<svg width="21" height="20" viewBox="0 0 21 20" fill="none" xmlns="http://www.w3.org/2000/svg">
<path d="M7.66658 18.5C8.12682 18.5 8.49992 18.1269 8.49992 17.6666C8.49992 17.2064 8.12682 16.8333 7.66658 16.8333C7.20635 16.8333 6.83325 17.2064 6.83325 17.6666C6.83325 18.1269 7.20635 18.5 7.66658 18.5Z" stroke="black" stroke-width="2" stroke-linecap="round" stroke-linejoin="round"/>
<path d="M16.8333 18.5C17.2936 18.5 17.6667 18.1269 17.6667 17.6666C17.6667 17.2064 17.2936 16.8333 16.8333 16.8333C16.3731 16.8333 16 17.2064 16 17.6666C16 18.1269 16.3731 18.5 16.8333 18.5Z" stroke="black" stroke-width="2" stroke-linecap="round" stroke-linejoin="round"/>
<path d="M1 1H4.33333L6.56667 12.1583C6.64287 12.542 6.85159 12.8866 7.15629 13.1319C7.46099 13.3772 7.84225 13.5075 8.23333 13.5H16.3333C16.7244 13.5075 17.1057 13.3772 17.4104 13.1319C17.7151 12.8866 17.9238 12.542 18 12.1583L19.3333 5.16667H5.16667" stroke="black" stroke-width="2" stroke-linecap="round" stroke-linejoin="round"/>
<path d="M7.66658 18.5C8.12682 18.5 8.49992 18.1269 8.49992 17.6666C8.49992 17.2064 8.12682 16.8333 7.66658 16.8333C7.20635 16.8333 6.83325 17.2064 6.83325 17.6666C6.83325 18.1269 7.20635 18.5 7.66658 18.5Z" stroke="black" stroke-width="2" stroke-linecap="round" stroke-linejoin="round"/>
<path d="M16.8333 18.5C17.2936 18.5 17.6667 18.1269 17.6667 17.6666C17.6667 17.2064 17.2936 16.8333 16.8333 16.8333C16.3731 16.8333 16 17.2064 16 17.6666C16 18.1269 16.3731 18.5 16.8333 18.5Z" stroke="black" stroke-width="2" stroke-linecap="round" stroke-linejoin="round"/>
<path d="M1 1H4.33333L6.56667 12.1583C6.64287 12.542 6.85159 12.8866 7.15629 13.1319C7.46099 13.3772 7.84225 13.5075 8.23333 13.5H16.3333C16.7244 13.5075 17.1057 13.3772 17.4104 13.1319C17.7151 12.8866 17.9238 12.542 18 12.1583L19.3333 5.16667H5.16667" stroke="black" stroke-width="2" stroke-linecap="round" stroke-linejoin="round"/>
</svg>
