<svg width="509" height="379" viewBox="0 0 509 379" fill="none" xmlns="http://www.w3.org/2000/svg">
<path d="M508.512 332.973H0V333.228H508.512V332.973Z" fill="#E0E0E0"/>
<path d="M137.878 343.744H102.892V343.998H137.878V343.744Z" fill="#E0E0E0"/>
<path d="M95.4374 343.866H75.7478V344.12H95.4374V343.866Z" fill="#E0E0E0"/>
<path d="M217.887 343.276H177.979V343.53H217.887V343.276Z" fill="#E0E0E0"/>
<path d="M319.915 339.655H202.164V339.909H319.915V339.655Z" fill="#E0E0E0"/>
<path d="M420.712 339.787H366.82V340.042H420.712V339.787Z" fill="#E0E0E0"/>
<path d="M241.034 287.614H44.6574C43.119 287.611 41.6445 286.998 40.5576 285.91C39.4708 284.821 38.8603 283.345 38.8604 281.807V5.75635C38.8737 4.22677 39.4901 2.76425 40.5755 1.68645C41.6609 0.608646 43.1278 0.00262025 44.6574 0H241.034C242.575 0 244.052 0.611829 245.141 1.70089C246.23 2.78995 246.842 4.26704 246.842 5.8072V281.807C246.842 283.347 246.23 284.824 245.141 285.913C244.052 287.002 242.575 287.614 241.034 287.614ZM44.6574 0.203405C43.1864 0.2061 41.7766 0.792327 40.7374 1.83341C39.6983 2.8745 39.1146 4.28538 39.1146 5.75635V281.807C39.1146 283.278 39.6983 284.689 40.7374 285.73C41.7766 286.771 43.1864 287.357 44.6574 287.36H241.034C242.506 287.357 243.917 286.771 244.958 285.73C245.999 284.69 246.585 283.279 246.587 281.807V5.75635C246.585 4.28444 245.999 2.87359 244.958 1.83279C243.917 0.791997 242.506 0.206094 241.034 0.203405H44.6574Z" fill="#E0E0E0"/>
<path d="M461.027 287.614H264.64C263.1 287.611 261.625 286.999 260.536 285.91C259.448 284.822 258.835 283.346 258.833 281.807V5.75635C258.849 4.22585 259.467 2.76333 260.554 1.68581C261.641 0.60829 263.109 0.00259167 264.64 0H461.027C462.555 0.00529309 464.019 0.612501 465.102 1.69002C466.185 2.76753 466.8 4.22853 466.814 5.75635V281.807C466.814 283.344 466.205 284.818 465.12 285.906C464.035 286.995 462.564 287.609 461.027 287.614ZM264.64 0.203405C263.168 0.206094 261.757 0.791997 260.716 1.83279C259.675 2.87359 259.089 4.28444 259.087 5.75635V281.807C259.089 283.279 259.675 284.69 260.716 285.73C261.757 286.771 263.168 287.357 264.64 287.36H461.027C462.499 287.357 463.91 286.771 464.95 285.73C465.991 284.69 466.577 283.279 466.58 281.807V5.75635C466.577 4.28444 465.991 2.87359 464.95 1.83279C463.91 0.791997 462.499 0.206094 461.027 0.203405H264.64Z" fill="#E0E0E0"/>
<path d="M217.378 233.519C216.819 233.519 216.26 233.519 215.69 233.57C212.146 233.82 208.702 234.851 205.604 236.589C202.505 238.327 199.83 240.729 197.769 243.623C195.708 246.517 194.313 249.831 193.684 253.327C193.055 256.823 193.207 260.416 194.129 263.846C196.757 274.091 198.025 284.636 197.902 295.211V326.007C197.902 327.086 198.331 328.12 199.094 328.883C199.857 329.646 200.892 330.075 201.971 330.075H299.727V233.519H217.378Z" fill="#E6E6E6"/>
<path d="M323.769 257.592C323.733 251.365 321.286 245.394 316.942 240.932C312.598 236.471 306.694 233.865 300.47 233.663C294.247 233.46 288.186 235.676 283.561 239.845C278.936 244.015 276.106 249.814 275.664 256.025C275.495 258.66 275.756 261.305 276.437 263.857C279.073 274.1 280.345 284.646 280.22 295.222V326.017C280.22 327.096 280.649 328.131 281.412 328.894C282.175 329.656 283.21 330.085 284.289 330.085H315.155C316.234 330.085 317.269 329.656 318.032 328.894C318.795 328.131 319.223 327.096 319.223 326.017V293.411C319.134 283.494 320.386 273.611 322.946 264.029C323.51 261.931 323.787 259.765 323.769 257.592Z" fill="#F0F0F0"/>
<path d="M266.521 271.444H178.782V330.055H266.521V271.444Z" fill="#E6E6E6"/>
<path d="M124.484 176.565H205.439C207.839 176.555 210.218 177.018 212.438 177.929C214.659 178.84 216.677 180.181 218.378 181.875C220.079 183.568 221.429 185.581 222.35 187.797C223.271 190.014 223.745 192.39 223.745 194.79V284.695H106.269V194.79C106.269 189.959 108.188 185.325 111.603 181.907C115.019 178.489 119.652 176.568 124.484 176.565Z" fill="#E0E0E0"/>
<path d="M146.553 176.565H229.298C231.575 176.565 233.83 177.014 235.934 177.885C238.038 178.757 239.949 180.034 241.559 181.644C243.17 183.254 244.447 185.166 245.318 187.27C246.19 189.374 246.638 191.628 246.638 193.906V284.685H129.162V193.916C129.161 191.634 129.61 189.373 130.484 187.265C131.358 185.157 132.639 183.242 134.255 181.63C135.871 180.018 137.789 178.741 139.899 177.872C142.01 177.003 144.271 176.559 146.553 176.565Z" fill="#F0F0F0"/>
<path d="M184.519 266.094H265.392C266.795 266.094 268.14 266.651 269.132 267.643C270.124 268.635 270.681 269.98 270.681 271.382V284.675C270.681 286.078 270.124 287.423 269.132 288.415C268.14 289.406 266.795 289.963 265.392 289.963H184.519C184.1 289.963 183.699 289.797 183.404 289.502C183.108 289.206 182.942 288.805 182.942 288.387V267.67C182.942 267.252 183.108 266.851 183.404 266.556C183.699 266.26 184.1 266.094 184.519 266.094Z" fill="#E0E0E0"/>
<path d="M97.6343 233.519C97.0749 233.519 96.5156 233.519 95.946 233.57C92.4023 233.82 88.9578 234.851 85.8595 236.589C82.7611 238.327 80.0857 240.729 78.0249 243.623C75.9642 246.517 74.5692 249.831 73.9399 253.327C73.3106 256.823 73.4627 260.416 74.3851 263.846C77.0125 274.091 78.2811 284.636 78.1583 295.211V326.007C78.1583 327.086 78.5869 328.12 79.3498 328.883C80.1127 329.646 81.1475 330.075 82.2264 330.075H179.973V233.519H97.6343Z" fill="#E6E6E6"/>
<path d="M204.005 257.592C203.968 251.365 201.521 245.394 197.177 240.932C192.833 236.471 186.93 233.865 180.706 233.663C174.482 233.46 168.422 235.676 163.796 239.845C159.171 244.015 156.341 249.814 155.9 256.025C155.73 258.66 155.992 261.305 156.672 263.857C159.308 274.1 160.58 284.646 160.456 295.222V326.017C160.456 327.096 160.884 328.131 161.647 328.894C162.41 329.656 163.445 330.085 164.524 330.085H195.391C196.469 330.085 197.504 329.656 198.267 328.894C199.03 328.131 199.459 327.096 199.459 326.017V293.411C199.37 283.494 200.622 273.611 203.181 264.029C203.745 261.931 204.022 259.765 204.005 257.592Z" fill="#F0F0F0"/>
<path d="M297.988 332.984H99.3326C98.5558 332.984 97.8108 332.675 97.2615 332.126C96.7122 331.576 96.4036 330.831 96.4036 330.055H300.907C300.907 330.83 300.599 331.573 300.052 332.122C299.505 332.671 298.763 332.981 297.988 332.984Z" fill="#E0E0E0"/>
<path d="M145.78 47.2509H87.3318V107.825H145.78V47.2509Z" fill="#E0E0E0"/>
<path d="M149.116 47.2509H92.1321V107.825H149.116V47.2509Z" fill="#F0F0F0"/>
<path d="M144.336 103.045V52.0207H96.902V103.045H144.336Z" fill="#FAFAFA"/>
<path d="M120.619 64.642L107.652 87.108H133.596L120.619 64.642Z" fill="#F0F0F0"/>
<path d="M223.694 72.7579H165.246V133.332H223.694V72.7579Z" fill="#E0E0E0"/>
<path d="M227.02 72.7579H170.036V133.332H227.02V72.7579Z" fill="#F0F0F0"/>
<path d="M222.24 128.562V77.5378H174.806V128.562H222.24Z" fill="#FAFAFA"/>
<path d="M204.34 112.147L209.964 102.404C210.551 101.384 210.859 100.228 210.858 99.0522C210.857 97.8759 210.547 96.7206 209.959 95.7019C209.37 94.6832 208.525 93.8369 207.507 93.2479C206.489 92.6589 205.334 92.3478 204.157 92.3457H192.899C191.722 92.3465 190.567 92.6569 189.548 93.246C188.529 93.835 187.684 94.6818 187.096 95.7012C186.509 96.7206 186.2 97.8767 186.201 99.0534C186.202 100.23 186.513 101.386 187.102 102.404L192.726 112.147C193.314 113.167 194.16 114.015 195.179 114.604C196.199 115.193 197.356 115.503 198.533 115.503C199.711 115.503 200.867 115.193 201.887 114.604C202.906 114.015 203.752 113.167 204.34 112.147Z" fill="#F0F0F0"/>
<path d="M359.08 188.607H343.103V328.153H359.08V188.607Z" fill="#E6E6E6"/>
<path d="M435.805 328.153H347.313V332.963H435.805V328.153Z" fill="#E6E6E6"/>
<path d="M359.07 328.163H440.015V188.617H359.07V328.163Z" fill="#F0F0F0"/>
<path d="M367.705 286.19H431.391V261.273H367.705V286.19Z" fill="#E6E6E6"/>
<path d="M367.705 318.806H431.391V293.889H367.705V318.806Z" fill="#E6E6E6"/>
<path d="M408.762 272.023H390.323C389.43 272.023 388.706 272.747 388.706 273.64V273.823C388.706 274.716 389.43 275.44 390.323 275.44H408.762C409.655 275.44 410.379 274.716 410.379 273.823V273.64C410.379 272.747 409.655 272.023 408.762 272.023Z" fill="#F0F0F0"/>
<path d="M408.762 304.639H390.323C389.43 304.639 388.706 305.363 388.706 306.256V306.439C388.706 307.332 389.43 308.056 390.323 308.056H408.762C409.655 308.056 410.379 307.332 410.379 306.439V306.256C410.379 305.363 409.655 304.639 408.762 304.639Z" fill="#F0F0F0"/>
<path d="M367.705 221.223H431.391V196.306H367.705V221.223Z" fill="#E6E6E6"/>
<path d="M367.705 253.585H431.391V228.668H367.705V253.585Z" fill="#E6E6E6"/>
<path d="M408.762 207.056H390.323C389.43 207.056 388.706 207.78 388.706 208.673V208.856C388.706 209.749 389.43 210.473 390.323 210.473H408.762C409.655 210.473 410.379 209.749 410.379 208.856V208.673C410.379 207.78 409.655 207.056 408.762 207.056Z" fill="#F0F0F0"/>
<path d="M408.762 239.407H390.323C389.43 239.407 388.706 240.131 388.706 241.024V241.207C388.706 242.1 389.43 242.824 390.323 242.824H408.762C409.655 242.824 410.379 242.1 410.379 241.207V241.024C410.379 240.131 409.655 239.407 408.762 239.407Z" fill="#F0F0F0"/>
<path d="M419.186 148.292H404.185C404.185 148.292 406.789 157.283 406.789 162.53C406.789 167.778 395.378 188.566 411.691 188.566C428.004 188.566 416.583 167.829 416.583 162.53C416.583 157.232 419.186 148.292 419.186 148.292Z" fill="#F0F0F0"/>
<path d="M380.143 160.374C380.133 161.78 379.707 163.152 378.918 164.316C378.13 165.48 377.015 166.384 375.713 166.915C374.411 167.446 372.982 167.58 371.604 167.3C370.226 167.019 368.963 166.337 367.972 165.34C366.981 164.342 366.309 163.073 366.038 161.694C365.767 160.314 365.911 158.885 366.452 157.588C366.992 156.29 367.904 155.181 369.074 154.401C370.244 153.621 371.618 153.204 373.024 153.204C374.917 153.218 376.727 153.979 378.061 155.322C379.395 156.665 380.143 158.482 380.143 160.374Z" fill="#F0F0F0"/>
<path d="M392.418 163.792C392.418 165.21 391.998 166.596 391.21 167.775C390.422 168.954 389.302 169.873 387.992 170.416C386.682 170.958 385.24 171.1 383.85 170.824C382.459 170.547 381.181 169.864 380.178 168.862C379.176 167.859 378.493 166.581 378.216 165.19C377.939 163.8 378.081 162.358 378.624 161.048C379.167 159.738 380.086 158.618 381.265 157.83C382.444 157.042 383.83 156.622 385.248 156.622C387.15 156.622 388.974 157.377 390.318 158.722C391.663 160.066 392.418 161.89 392.418 163.792Z" fill="#F0F0F0"/>
<path d="M402.904 161.025C402.904 162.443 402.483 163.83 401.696 165.009C400.908 166.188 399.788 167.107 398.478 167.65C397.168 168.192 395.726 168.334 394.335 168.058C392.944 167.781 391.667 167.098 390.664 166.095C389.661 165.092 388.978 163.815 388.702 162.424C388.425 161.033 388.567 159.592 389.11 158.281C389.652 156.971 390.571 155.851 391.751 155.064C392.93 154.276 394.316 153.855 395.734 153.855C397.636 153.855 399.459 154.611 400.804 155.955C402.149 157.3 402.904 159.124 402.904 161.025Z" fill="#F0F0F0"/>
<path d="M360.138 163.924V172.06C360.138 181.132 368.915 188.556 379.635 188.556H389.317C400.046 188.556 408.823 181.132 408.823 172.06V163.924H360.138Z" fill="#E6E6E6"/>
<path d="M328.865 122.043C323.462 122.043 318.28 119.897 314.46 116.076C310.64 112.256 308.494 107.075 308.494 101.672C308.494 96.2691 310.64 91.0877 314.46 87.2674C318.28 83.4471 323.462 81.3008 328.865 81.3008H331.367V122.043H328.865Z" fill="#E0E0E0"/>
<path d="M351.211 106.334C353.774 95.3793 346.972 84.4207 336.017 81.8574C325.062 79.2941 314.104 86.0966 311.541 97.0512C308.977 108.006 315.78 118.964 326.734 121.528C337.689 124.091 348.648 117.289 351.211 106.334Z" fill="#F0F0F0"/>
<path d="M332.282 104.225C331.607 104.225 330.961 103.957 330.484 103.48C330.007 103.003 329.739 102.356 329.739 101.682C329.739 101.008 330.007 100.361 330.484 99.8841C330.961 99.4073 331.607 99.1394 332.282 99.1394C338.113 99.1341 343.703 96.8161 347.827 92.694C351.951 88.5719 354.272 82.9823 354.28 77.1514V43.3354C354.28 42.661 354.548 42.0143 355.025 41.5375C355.502 41.0607 356.148 40.7928 356.823 40.7928C357.497 40.7928 358.144 41.0607 358.62 41.5375C359.097 42.0143 359.365 42.661 359.365 43.3354V77.1514C359.354 84.3301 356.497 91.2115 351.42 96.2867C346.343 101.362 339.461 104.216 332.282 104.225Z" fill="#E0E0E0"/>
<path d="M380.865 77.0802H332.78L338.15 33.0228H375.495L380.865 77.0802Z" fill="#F0F0F0"/>
<path d="M254.256 378.902C363.161 378.902 451.447 373.748 451.447 367.389C451.447 361.031 363.161 355.877 254.256 355.877C145.35 355.877 57.0652 361.031 57.0652 367.389C57.0652 373.748 145.35 378.902 254.256 378.902Z" fill="#F5F5F5"/>
<path d="M408.121 276.315L406.382 262.799C406.121 260.787 405.137 258.939 403.613 257.6C402.09 256.26 400.132 255.52 398.104 255.517H353.049C351.021 255.519 349.062 254.781 347.538 253.443C346.014 252.105 345.031 250.257 344.771 248.245L335.424 175.752C335.271 174.576 335.37 173.381 335.716 172.247C336.061 171.113 336.645 170.065 337.427 169.175C338.21 168.284 339.174 167.571 340.254 167.083C341.335 166.595 342.507 166.343 343.693 166.344H384.435C385.621 166.344 386.793 166.091 387.874 165.602C388.954 165.112 389.918 164.398 390.7 163.507C391.483 162.616 392.066 161.568 392.412 160.433C392.757 159.298 392.856 158.103 392.703 156.927L390.974 143.4C390.715 141.389 389.731 139.541 388.207 138.202C386.683 136.864 384.724 136.127 382.696 136.129H337.652C335.624 136.128 333.666 135.388 332.144 134.047C330.622 132.707 329.64 130.858 329.383 128.847L320.718 61.7232C320.459 59.7107 319.475 57.8617 317.952 56.5215C316.428 55.1814 314.469 54.4419 312.44 54.4413H299.056C297.869 54.4416 296.696 54.6949 295.616 55.1841C294.535 55.6733 293.57 56.3872 292.787 57.2783C292.004 58.1694 291.419 59.2172 291.073 60.3519C290.726 61.4866 290.625 62.6822 290.777 63.8589L298.913 126.691C299.065 127.867 298.964 129.063 298.618 130.198C298.271 131.332 297.687 132.38 296.903 133.271C296.12 134.162 295.156 134.876 294.075 135.365C292.994 135.855 291.821 136.108 290.635 136.108H181.539C179.511 136.107 177.553 135.367 176.031 134.027C174.509 132.687 173.527 130.838 173.27 128.826L164.605 61.7028C164.348 59.6912 163.367 57.8423 161.845 56.502C160.323 55.1617 158.365 54.4219 156.337 54.4209H142.953C141.766 54.4213 140.594 54.6745 139.513 55.1637C138.432 55.6529 137.467 56.3668 136.684 57.258C135.901 58.1491 135.316 59.1969 134.97 60.3316C134.623 61.4663 134.522 62.6618 134.674 63.8386L142.81 126.67C142.962 127.847 142.861 129.043 142.515 130.177C142.168 131.312 141.584 132.36 140.8 133.251C140.017 134.142 139.053 134.856 137.972 135.345C136.891 135.834 135.718 136.088 134.532 136.088H93.7593C92.5733 136.087 91.4008 136.339 90.3198 136.827C89.2389 137.315 88.2745 138.028 87.4911 138.918C86.7076 139.808 86.123 140.856 85.7763 141.99C85.4297 143.124 85.3289 144.319 85.4808 145.495L87.23 159.012C87.4875 161.025 88.4703 162.875 89.9943 164.216C91.5183 165.556 93.4789 166.295 95.5086 166.293H140.553C142.581 166.292 144.54 167.029 146.064 168.367C147.588 169.706 148.571 171.554 148.831 173.565L158.188 246.059C158.34 247.235 158.239 248.43 157.892 249.564C157.546 250.698 156.961 251.746 156.177 252.636C155.394 253.526 154.43 254.239 153.349 254.727C152.268 255.215 151.095 255.467 149.909 255.466H109.167C107.981 255.466 106.808 255.72 105.727 256.209C104.646 256.698 103.682 257.412 102.899 258.303C102.115 259.194 101.531 260.242 101.184 261.377C100.838 262.511 100.737 263.707 100.889 264.884L102.638 278.4C102.895 280.411 103.877 282.26 105.398 283.601C106.92 284.941 108.878 285.681 110.906 285.682H155.96C157.989 285.68 159.948 286.417 161.472 287.756C162.996 289.094 163.979 290.942 164.239 292.954L172.894 360.077C173.153 362.089 174.137 363.939 175.66 365.279C177.184 366.619 179.143 367.358 181.172 367.359H194.557C195.743 367.359 196.916 367.105 197.997 366.616C199.078 366.127 200.042 365.413 200.825 364.522C201.608 363.631 202.193 362.583 202.539 361.448C202.886 360.314 202.987 359.118 202.835 357.941L194.699 295.11C194.559 293.938 194.67 292.75 195.023 291.624C195.377 290.499 195.965 289.461 196.75 288.579C197.534 287.698 198.497 286.993 199.574 286.511C200.651 286.029 201.818 285.781 202.998 285.784H312.063C314.087 285.775 316.045 286.503 317.572 287.832C319.099 289.16 320.091 290.999 320.362 293.004L329.017 360.128C329.277 362.14 330.26 363.989 331.784 365.33C333.307 366.67 335.267 367.409 337.296 367.41H350.68C351.866 367.41 353.038 367.156 354.119 366.667C355.199 366.178 356.163 365.464 356.945 364.572C357.728 363.681 358.311 362.633 358.657 361.498C359.002 360.364 359.101 359.168 358.948 357.992L350.812 295.16C350.66 293.984 350.761 292.789 351.108 291.655C351.454 290.521 352.039 289.474 352.822 288.583C353.606 287.693 354.57 286.98 355.651 286.492C356.732 286.004 357.905 285.752 359.091 285.753H399.832C401.022 285.754 402.198 285.502 403.281 285.012C404.365 284.522 405.332 283.807 406.116 282.913C406.901 282.02 407.486 280.969 407.832 279.831C408.178 278.693 408.276 277.494 408.121 276.315ZM188.668 248.245L179.322 175.752C179.17 174.576 179.27 173.382 179.616 172.249C179.962 171.115 180.546 170.069 181.328 169.178C182.111 168.288 183.074 167.575 184.154 167.086C185.233 166.598 186.405 166.345 187.59 166.344H296.655C298.684 166.342 300.643 167.08 302.167 168.418C303.691 169.757 304.674 171.605 304.934 173.616L314.26 246.12C314.412 247.296 314.311 248.491 313.965 249.625C313.618 250.759 313.033 251.807 312.25 252.697C311.466 253.587 310.502 254.3 309.421 254.788C308.34 255.276 307.168 255.528 305.982 255.527H196.946C194.917 255.526 192.958 254.787 191.434 253.447C189.911 252.107 188.927 250.258 188.668 248.245Z" fill="#0086CF"/>
<path opacity="0.4" d="M408.121 276.315L406.382 262.799C406.121 260.787 405.137 258.939 403.613 257.6C402.09 256.26 400.132 255.52 398.104 255.517H353.049C351.021 255.519 349.062 254.781 347.538 253.443C346.014 252.105 345.031 250.257 344.771 248.245L335.424 175.752C335.271 174.576 335.37 173.381 335.716 172.247C336.061 171.113 336.645 170.065 337.427 169.175C338.21 168.284 339.174 167.571 340.254 167.083C341.335 166.595 342.507 166.343 343.693 166.344H384.435C385.621 166.344 386.793 166.091 387.874 165.602C388.954 165.112 389.918 164.398 390.7 163.507C391.483 162.616 392.066 161.568 392.412 160.433C392.757 159.298 392.856 158.103 392.703 156.927L390.974 143.4C390.715 141.389 389.731 139.541 388.207 138.202C386.683 136.864 384.724 136.127 382.696 136.129H337.652C335.624 136.128 333.666 135.388 332.144 134.047C330.622 132.707 329.64 130.858 329.383 128.847L320.718 61.7232C320.459 59.7107 319.475 57.8617 317.952 56.5215C316.428 55.1814 314.469 54.4419 312.44 54.4413H299.056C297.869 54.4416 296.696 54.6949 295.616 55.1841C294.535 55.6733 293.57 56.3872 292.787 57.2783C292.004 58.1694 291.419 59.2172 291.073 60.3519C290.726 61.4866 290.625 62.6822 290.777 63.8589L298.913 126.691C299.065 127.867 298.964 129.063 298.618 130.198C298.271 131.332 297.687 132.38 296.903 133.271C296.12 134.162 295.156 134.876 294.075 135.365C292.994 135.855 291.821 136.108 290.635 136.108H181.539C179.511 136.107 177.553 135.367 176.031 134.027C174.509 132.687 173.527 130.838 173.27 128.826L164.605 61.7028C164.348 59.6912 163.367 57.8423 161.845 56.502C160.323 55.1617 158.365 54.4219 156.337 54.4209H142.953C141.766 54.4213 140.594 54.6745 139.513 55.1637C138.432 55.6529 137.467 56.3668 136.684 57.258C135.901 58.1491 135.316 59.1969 134.97 60.3316C134.623 61.4663 134.522 62.6618 134.674 63.8386L142.81 126.67C142.962 127.847 142.861 129.043 142.515 130.177C142.168 131.312 141.584 132.36 140.8 133.251C140.017 134.142 139.053 134.856 137.972 135.345C136.891 135.834 135.718 136.088 134.532 136.088H93.7593C92.5733 136.087 91.4008 136.339 90.3198 136.827C89.2389 137.315 88.2745 138.028 87.4911 138.918C86.7076 139.808 86.123 140.856 85.7763 141.99C85.4297 143.124 85.3289 144.319 85.4808 145.495L87.23 159.012C87.4875 161.025 88.4703 162.875 89.9943 164.216C91.5183 165.556 93.4789 166.295 95.5086 166.293H140.553C142.581 166.292 144.54 167.029 146.064 168.367C147.588 169.706 148.571 171.554 148.831 173.565L158.188 246.059C158.34 247.235 158.239 248.43 157.892 249.564C157.546 250.698 156.961 251.746 156.177 252.636C155.394 253.526 154.43 254.239 153.349 254.727C152.268 255.215 151.095 255.467 149.909 255.466H109.167C107.981 255.466 106.808 255.72 105.727 256.209C104.646 256.698 103.682 257.412 102.899 258.303C102.115 259.194 101.531 260.242 101.184 261.377C100.838 262.511 100.737 263.707 100.889 264.884L102.638 278.4C102.895 280.411 103.877 282.26 105.398 283.601C106.92 284.941 108.878 285.681 110.906 285.682H155.96C157.989 285.68 159.948 286.417 161.472 287.756C162.996 289.094 163.979 290.942 164.239 292.954L172.894 360.077C173.153 362.089 174.137 363.939 175.66 365.279C177.184 366.619 179.143 367.358 181.172 367.359H194.557C195.743 367.359 196.916 367.105 197.997 366.616C199.078 366.127 200.042 365.413 200.825 364.522C201.608 363.631 202.193 362.583 202.539 361.448C202.886 360.314 202.987 359.118 202.835 357.941L194.699 295.11C194.559 293.938 194.67 292.75 195.023 291.624C195.377 290.499 195.965 289.461 196.75 288.579C197.534 287.698 198.497 286.993 199.574 286.511C200.651 286.029 201.818 285.781 202.998 285.784H312.063C314.087 285.775 316.045 286.503 317.572 287.832C319.099 289.16 320.091 290.999 320.362 293.004L329.017 360.128C329.277 362.14 330.26 363.989 331.784 365.33C333.307 366.67 335.267 367.409 337.296 367.41H350.68C351.866 367.41 353.038 367.156 354.119 366.667C355.199 366.178 356.163 365.464 356.945 364.572C357.728 363.681 358.311 362.633 358.657 361.498C359.002 360.364 359.101 359.168 358.948 357.992L350.812 295.16C350.66 293.984 350.761 292.789 351.108 291.655C351.454 290.521 352.039 289.474 352.822 288.583C353.606 287.693 354.57 286.98 355.651 286.492C356.732 286.004 357.905 285.752 359.091 285.753H399.832C401.022 285.754 402.198 285.502 403.281 285.012C404.365 284.522 405.332 283.807 406.116 282.913C406.901 282.02 407.486 280.969 407.832 279.831C408.178 278.693 408.276 277.494 408.121 276.315ZM188.668 248.245L179.322 175.752C179.17 174.576 179.27 173.382 179.616 172.249C179.962 171.115 180.546 170.069 181.328 169.178C182.111 168.288 183.074 167.575 184.154 167.086C185.233 166.598 186.405 166.345 187.59 166.344H296.655C298.684 166.342 300.643 167.08 302.167 168.418C303.691 169.757 304.674 171.605 304.934 173.616L314.26 246.12C314.412 247.296 314.311 248.491 313.965 249.625C313.618 250.759 313.033 251.807 312.25 252.697C311.466 253.587 310.502 254.3 309.421 254.788C308.34 255.276 307.168 255.528 305.982 255.527H196.946C194.917 255.526 192.958 254.787 191.434 253.447C189.911 252.107 188.927 250.258 188.668 248.245Z" fill="black"/>
<path d="M216.067 325.152L215.05 317.423L216.067 317.291L217.084 325.02L216.067 325.152ZM358.755 221.213L355.175 193.499L356.192 193.377L359.762 221.081L358.755 221.213ZM189.604 120.08L188.149 108.954L189.166 108.821L190.611 120.009L189.604 120.08ZM187.285 102.109L184.844 83.223L185.861 83.0908L188.292 101.977L187.285 102.109Z" fill="#0086CF"/>
<path opacity="0.3" d="M216.067 325.152L215.05 317.423L216.067 317.291L217.084 325.02L216.067 325.152ZM358.755 221.213L355.175 193.499L356.192 193.377L359.762 221.081L358.755 221.213ZM189.604 120.08L188.149 108.954L189.166 108.821L190.611 120.009L189.604 120.08ZM187.285 102.109L184.844 83.223L185.861 83.0908L188.292 101.977L187.285 102.109Z" fill="black"/>
<path d="M423.082 276.315L421.332 262.799C421.073 260.786 420.09 258.937 418.566 257.597C417.042 256.257 415.083 255.518 413.054 255.517H368C365.973 255.516 364.016 254.778 362.495 253.44C360.973 252.101 359.991 250.255 359.731 248.245L350.375 175.752C350.225 174.576 350.327 173.381 350.674 172.248C351.021 171.114 351.606 170.068 352.389 169.178C353.172 168.288 354.136 167.575 355.216 167.086C356.296 166.598 357.468 166.345 358.653 166.344H399.395C400.582 166.344 401.754 166.091 402.835 165.602C403.916 165.112 404.881 164.398 405.664 163.507C406.447 162.616 407.032 161.568 407.378 160.434C407.725 159.299 407.826 158.103 407.674 156.927L405.874 143.4C405.616 141.39 404.635 139.542 403.112 138.203C401.59 136.865 399.632 136.127 397.605 136.129H352.551C350.522 136.128 348.563 135.388 347.039 134.048C345.516 132.708 344.532 130.859 344.273 128.847L335.618 61.7231C335.358 59.7107 334.375 57.8616 332.851 56.5215C331.328 55.1814 329.368 54.4419 327.339 54.4413H313.955C312.769 54.4416 311.596 54.6949 310.515 55.184C309.434 55.6732 308.47 56.3872 307.687 57.2783C306.903 58.1694 306.319 59.2172 305.972 60.3519C305.626 61.4866 305.525 62.6822 305.677 63.8589L313.813 126.691C313.964 127.867 313.864 129.063 313.517 130.198C313.171 131.332 312.586 132.38 311.803 133.271C311.019 134.162 310.055 134.876 308.974 135.365C307.893 135.855 306.721 136.108 305.534 136.108H196.448C194.42 136.113 192.46 135.381 190.933 134.046C189.405 132.712 188.416 130.867 188.149 128.857L179.494 61.7333C179.235 59.7209 178.252 57.8718 176.728 56.5317C175.204 55.1916 173.245 54.4521 171.216 54.4514H157.852C156.666 54.4516 155.494 54.7048 154.413 55.1941C153.333 55.6834 152.369 56.3975 151.587 57.2888C150.804 58.1801 150.221 59.2281 149.875 60.3629C149.53 61.4976 149.431 62.6929 149.584 63.8691L157.72 126.701C157.872 127.877 157.771 129.073 157.424 130.208C157.078 131.342 156.493 132.39 155.71 133.281C154.927 134.172 153.962 134.886 152.882 135.376C151.801 135.865 150.628 136.118 149.441 136.118H108.669C107.483 136.117 106.31 136.369 105.23 136.857C104.149 137.345 103.184 138.058 102.401 138.949C101.617 139.839 101.033 140.886 100.686 142.02C100.339 143.155 100.239 144.35 100.39 145.526L102.13 159.042C102.389 161.055 103.372 162.904 104.896 164.244C106.42 165.584 108.379 166.323 110.408 166.324H155.462C157.49 166.322 159.45 167.059 160.974 168.398C162.497 169.736 163.481 171.584 163.741 173.596L173.087 246.12C173.241 247.295 173.141 248.49 172.796 249.624C172.451 250.759 171.867 251.806 171.084 252.697C170.302 253.587 169.338 254.3 168.257 254.788C167.177 255.277 166.004 255.528 164.819 255.527H124.077C122.891 255.527 121.718 255.78 120.638 256.27C119.557 256.759 118.594 257.473 117.811 258.364C117.029 259.256 116.445 260.304 116.1 261.439C115.755 262.573 115.655 263.769 115.809 264.945L117.548 278.461C117.807 280.473 118.791 282.322 120.314 283.663C121.838 285.003 123.797 285.742 125.826 285.743H170.86C172.887 285.741 174.845 286.479 176.367 287.818C177.889 289.156 178.871 291.004 179.128 293.015L187.793 360.138C188.053 362.151 189.036 364 190.56 365.34C192.083 366.68 194.043 367.419 196.072 367.42H209.507C210.693 367.42 211.866 367.166 212.947 366.677C214.028 366.188 214.992 365.474 215.775 364.583C216.559 363.692 217.143 362.644 217.49 361.509C217.836 360.375 217.937 359.179 217.785 358.002L209.649 295.171C209.497 293.994 209.598 292.799 209.945 291.665C210.291 290.531 210.876 289.484 211.66 288.593C212.443 287.703 213.407 286.99 214.488 286.502C215.569 286.014 216.742 285.762 217.928 285.763H326.973C328.999 285.764 330.956 286.502 332.478 287.84C334 289.179 334.982 291.025 335.241 293.035L343.906 360.158C344.164 362.17 345.145 364.019 346.667 365.359C348.189 366.7 350.147 367.439 352.175 367.44H365.559C366.745 367.44 367.918 367.187 368.999 366.698C370.08 366.208 371.044 365.494 371.828 364.603C372.611 363.712 373.195 362.664 373.542 361.53C373.888 360.395 373.989 359.199 373.837 358.023L365.701 295.191C365.55 294.016 365.65 292.821 365.996 291.688C366.342 290.554 366.926 289.508 367.708 288.618C368.491 287.727 369.454 287.014 370.533 286.526C371.613 286.037 372.785 285.784 373.97 285.784H414.722C415.92 285.796 417.107 285.55 418.202 285.063C419.296 284.576 420.273 283.859 421.067 282.961C421.86 282.062 422.45 281.004 422.798 279.857C423.146 278.711 423.242 277.502 423.082 276.315ZM203.628 248.245L194.252 175.752C194.101 174.576 194.203 173.381 194.551 172.248C194.898 171.114 195.483 170.068 196.266 169.178C197.049 168.288 198.013 167.575 199.093 167.086C200.173 166.598 201.345 166.345 202.53 166.344H311.565C313.593 166.345 315.551 167.083 317.074 168.421C318.598 169.759 319.582 171.605 319.844 173.616L329.19 246.12C329.342 247.295 329.241 248.489 328.895 249.623C328.549 250.756 327.966 251.803 327.183 252.693C326.401 253.583 325.438 254.296 324.358 254.785C323.278 255.274 322.107 255.527 320.922 255.527H211.856C209.826 255.529 207.866 254.79 206.342 253.449C204.818 252.109 203.835 250.258 203.578 248.245H203.628Z" fill="#0086CF"/>
<path opacity="0.3" d="M423.082 276.315L421.332 262.799C421.073 260.786 420.09 258.937 418.566 257.597C417.042 256.257 415.083 255.518 413.054 255.517H368C365.973 255.516 364.016 254.778 362.495 253.44C360.973 252.101 359.991 250.255 359.731 248.245L350.375 175.752C350.225 174.576 350.327 173.381 350.674 172.248C351.021 171.114 351.606 170.068 352.389 169.178C353.172 168.288 354.136 167.575 355.216 167.086C356.296 166.598 357.468 166.345 358.653 166.344H399.395C400.582 166.344 401.754 166.091 402.835 165.602C403.916 165.112 404.881 164.398 405.664 163.507C406.447 162.616 407.032 161.568 407.378 160.434C407.725 159.299 407.826 158.103 407.674 156.927L405.874 143.4C405.616 141.39 404.635 139.542 403.112 138.203C401.59 136.865 399.632 136.127 397.605 136.129H352.551C350.522 136.128 348.563 135.388 347.039 134.048C345.516 132.708 344.532 130.859 344.273 128.847L335.618 61.7231C335.358 59.7107 334.375 57.8616 332.851 56.5215C331.328 55.1814 329.368 54.4419 327.339 54.4413H313.955C312.769 54.4416 311.596 54.6949 310.515 55.184C309.434 55.6732 308.47 56.3872 307.687 57.2783C306.903 58.1694 306.319 59.2172 305.972 60.3519C305.626 61.4866 305.525 62.6822 305.677 63.8589L313.813 126.691C313.964 127.867 313.864 129.063 313.517 130.198C313.171 131.332 312.586 132.38 311.803 133.271C311.019 134.162 310.055 134.876 308.974 135.365C307.893 135.855 306.721 136.108 305.534 136.108H196.448C194.42 136.113 192.46 135.381 190.933 134.046C189.405 132.712 188.416 130.867 188.149 128.857L179.494 61.7333C179.235 59.7209 178.252 57.8718 176.728 56.5317C175.204 55.1916 173.245 54.4521 171.216 54.4514H157.852C156.666 54.4516 155.494 54.7048 154.413 55.1941C153.333 55.6834 152.369 56.3975 151.587 57.2888C150.804 58.1801 150.221 59.2281 149.875 60.3629C149.53 61.4976 149.431 62.6929 149.584 63.8691L157.72 126.701C157.872 127.877 157.771 129.073 157.424 130.208C157.078 131.342 156.493 132.39 155.71 133.281C154.927 134.172 153.962 134.886 152.882 135.376C151.801 135.865 150.628 136.118 149.441 136.118H108.669C107.483 136.117 106.31 136.369 105.23 136.857C104.149 137.345 103.184 138.058 102.401 138.949C101.617 139.839 101.033 140.886 100.686 142.02C100.339 143.155 100.239 144.35 100.39 145.526L102.13 159.042C102.389 161.055 103.372 162.904 104.896 164.244C106.42 165.584 108.379 166.323 110.408 166.324H155.462C157.49 166.322 159.45 167.059 160.974 168.398C162.497 169.736 163.481 171.584 163.741 173.596L173.087 246.12C173.241 247.295 173.141 248.49 172.796 249.624C172.451 250.759 171.867 251.806 171.084 252.697C170.302 253.587 169.338 254.3 168.257 254.788C167.177 255.277 166.004 255.528 164.819 255.527H124.077C122.891 255.527 121.718 255.78 120.638 256.27C119.557 256.759 118.594 257.473 117.811 258.364C117.029 259.256 116.445 260.304 116.1 261.439C115.755 262.573 115.655 263.769 115.809 264.945L117.548 278.461C117.807 280.473 118.791 282.322 120.314 283.663C121.838 285.003 123.797 285.742 125.826 285.743H170.86C172.887 285.741 174.845 286.479 176.367 287.818C177.889 289.156 178.871 291.004 179.128 293.015L187.793 360.138C188.053 362.151 189.036 364 190.56 365.34C192.083 366.68 194.043 367.419 196.072 367.42H209.507C210.693 367.42 211.866 367.166 212.947 366.677C214.028 366.188 214.992 365.474 215.775 364.583C216.559 363.692 217.143 362.644 217.49 361.509C217.836 360.375 217.937 359.179 217.785 358.002L209.649 295.171C209.497 293.994 209.598 292.799 209.945 291.665C210.291 290.531 210.876 289.484 211.66 288.593C212.443 287.703 213.407 286.99 214.488 286.502C215.569 286.014 216.742 285.762 217.928 285.763H326.973C328.999 285.764 330.956 286.502 332.478 287.84C334 289.179 334.982 291.025 335.241 293.035L343.906 360.158C344.164 362.17 345.145 364.019 346.667 365.359C348.189 366.7 350.147 367.439 352.175 367.44H365.559C366.745 367.44 367.918 367.187 368.999 366.698C370.08 366.208 371.044 365.494 371.828 364.603C372.611 363.712 373.195 362.664 373.542 361.53C373.888 360.395 373.989 359.199 373.837 358.023L365.701 295.191C365.55 294.016 365.65 292.821 365.996 291.688C366.342 290.554 366.926 289.508 367.708 288.618C368.491 287.727 369.454 287.014 370.533 286.526C371.613 286.037 372.785 285.784 373.97 285.784H414.722C415.92 285.796 417.107 285.55 418.202 285.063C419.296 284.576 420.273 283.859 421.067 282.961C421.86 282.062 422.45 281.004 422.798 279.857C423.146 278.711 423.242 277.502 423.082 276.315ZM203.628 248.245L194.252 175.752C194.101 174.576 194.203 173.381 194.551 172.248C194.898 171.114 195.483 170.068 196.266 169.178C197.049 168.288 198.013 167.575 199.093 167.086C200.173 166.598 201.345 166.345 202.53 166.344H311.565C313.593 166.345 315.551 167.083 317.074 168.421C318.598 169.759 319.582 171.605 319.844 173.616L329.19 246.12C329.342 247.295 329.241 248.489 328.895 249.623C328.549 250.756 327.966 251.803 327.183 252.693C326.401 253.583 325.438 254.296 324.358 254.785C323.278 255.274 322.107 255.527 320.922 255.527H211.856C209.826 255.529 207.866 254.79 206.342 253.449C204.818 252.109 203.835 250.258 203.578 248.245H203.628Z" fill="black"/>
<path d="M365.559 364.46H352.175C350.858 364.459 349.587 363.978 348.599 363.108C347.611 362.237 346.973 361.037 346.805 359.731L338.14 292.608C337.785 289.892 336.454 287.397 334.395 285.59C332.337 283.782 329.692 282.785 326.953 282.783H217.907C216.305 282.782 214.72 283.122 213.259 283.781C211.798 284.441 210.495 285.404 209.436 286.608C208.378 287.811 207.588 289.226 207.119 290.759C206.651 292.291 206.515 293.907 206.72 295.496L214.856 358.328C214.955 359.092 214.889 359.868 214.664 360.604C214.438 361.34 214.058 362.02 213.549 362.598C213.039 363.175 212.413 363.637 211.71 363.953C211.008 364.269 210.246 364.432 209.476 364.43H196.082C194.764 364.431 193.49 363.951 192.5 363.081C191.509 362.21 190.87 361.008 190.702 359.701L182.047 292.577C181.688 289.863 180.356 287.371 178.298 285.564C176.241 283.758 173.598 282.759 170.86 282.753H125.806C124.489 282.749 123.217 282.268 122.228 281.398C121.238 280.529 120.598 279.33 120.426 278.024L118.687 264.507C118.588 263.744 118.654 262.969 118.879 262.234C119.104 261.498 119.483 260.819 119.991 260.241C120.499 259.664 121.125 259.201 121.826 258.885C122.527 258.568 123.287 258.405 124.057 258.405H164.809C166.411 258.405 167.995 258.064 169.455 257.404C170.915 256.744 172.217 255.78 173.276 254.578C174.334 253.375 175.124 251.96 175.593 250.428C176.062 248.896 176.2 247.282 175.996 245.692L166.639 173.209C166.284 170.492 164.954 167.997 162.896 166.187C160.838 164.378 158.192 163.379 155.452 163.375H110.398C109.083 163.373 107.813 162.894 106.825 162.026C105.837 161.158 105.198 159.96 105.028 158.656L103.279 145.129C103.18 144.365 103.246 143.589 103.472 142.853C103.697 142.117 104.077 141.437 104.587 140.859C105.096 140.282 105.723 139.82 106.425 139.504C107.127 139.188 107.889 139.025 108.659 139.027H149.401C151.003 139.029 152.588 138.688 154.049 138.029C155.51 137.369 156.813 136.406 157.872 135.203C158.931 134 159.721 132.584 160.189 131.052C160.657 129.519 160.793 127.904 160.588 126.314L152.452 63.4826C152.353 62.7196 152.419 61.9445 152.644 61.2089C152.869 60.4733 153.248 59.7941 153.756 59.2166C154.264 58.6392 154.89 58.1767 155.591 57.86C156.292 57.5434 157.052 57.3799 157.822 57.3804H171.206C172.523 57.3839 173.794 57.8651 174.784 58.7348C175.773 59.6045 176.413 60.8036 176.586 62.1096L185.241 129.233C185.598 131.948 186.93 134.441 188.987 136.249C191.045 138.056 193.689 139.054 196.428 139.058H305.514C307.117 139.059 308.701 138.719 310.162 138.059C311.623 137.4 312.926 136.437 313.985 135.233C315.044 134.03 315.834 132.615 316.302 131.082C316.77 129.549 316.906 127.934 316.701 126.345L308.565 63.5131C308.467 62.7502 308.532 61.975 308.757 61.2394C308.982 60.5038 309.361 59.8246 309.869 59.2471C310.377 58.6697 311.003 58.2072 311.704 57.8906C312.405 57.5739 313.166 57.4104 313.935 57.4109H327.319C328.635 57.4165 329.906 57.8985 330.895 58.7678C331.884 59.6371 332.524 60.835 332.699 62.1401L341.354 129.264C341.709 131.98 343.04 134.474 345.098 136.282C347.156 138.089 349.802 139.087 352.541 139.088H397.656C398.972 139.092 400.242 139.573 401.23 140.443C402.218 141.313 402.856 142.512 403.026 143.817L404.775 157.303C404.874 158.067 404.808 158.843 404.582 159.579C404.357 160.315 403.977 160.995 403.468 161.573C402.958 162.15 402.332 162.613 401.629 162.929C400.927 163.245 400.165 163.407 399.395 163.405H358.602C357 163.405 355.416 163.746 353.956 164.406C352.496 165.066 351.194 166.03 350.135 167.233C349.077 168.436 348.287 169.85 347.818 171.382C347.349 172.914 347.211 174.529 347.415 176.118L356.772 248.611C357.127 251.327 358.458 253.822 360.516 255.629C362.574 257.437 365.22 258.434 367.959 258.436H413.013C414.331 258.437 415.604 258.918 416.593 259.788C417.583 260.658 418.223 261.858 418.393 263.165L420.132 276.681C420.231 277.444 420.165 278.219 419.94 278.955C419.715 279.69 419.336 280.37 418.828 280.947C418.32 281.525 417.694 281.987 416.993 282.304C416.292 282.62 415.532 282.784 414.762 282.783H374.01C372.407 282.778 370.82 283.116 369.358 283.775C367.896 284.433 366.591 285.397 365.531 286.601C364.472 287.805 363.682 289.221 363.215 290.755C362.748 292.29 362.614 293.906 362.823 295.496L370.959 358.328C371.054 359.091 370.986 359.866 370.759 360.601C370.533 361.335 370.152 362.014 369.644 362.591C369.135 363.168 368.51 363.63 367.809 363.947C367.108 364.264 366.348 364.429 365.579 364.43L365.559 364.46ZM217.907 282.549H326.973C329.771 282.555 332.472 283.578 334.573 285.426C336.674 287.274 338.032 289.823 338.394 292.598L347.059 359.721C347.219 360.96 347.822 362.099 348.757 362.927C349.692 363.756 350.895 364.217 352.144 364.227H365.528C366.26 364.223 366.982 364.063 367.647 363.759C368.312 363.454 368.905 363.012 369.386 362.46C369.867 361.909 370.225 361.262 370.437 360.562C370.649 359.862 370.709 359.124 370.613 358.399L362.477 295.567C362.268 293.943 362.407 292.292 362.885 290.726C363.364 289.159 364.171 287.713 365.253 286.483C366.335 285.253 367.666 284.268 369.159 283.593C370.651 282.918 372.271 282.569 373.909 282.57H414.651C415.382 282.566 416.104 282.406 416.77 282.102C417.435 281.797 418.027 281.355 418.508 280.804C418.989 280.252 419.348 279.605 419.559 278.905C419.771 278.205 419.831 277.467 419.736 276.742L417.986 263.226C417.827 261.987 417.223 260.848 416.289 260.02C415.354 259.192 414.15 258.73 412.901 258.721H367.847C365.05 258.712 362.35 257.689 360.249 255.841C358.149 253.993 356.79 251.446 356.426 248.672L347.069 176.179C346.86 174.554 346.999 172.904 347.478 171.337C347.956 169.771 348.763 168.324 349.845 167.094C350.927 165.864 352.258 164.879 353.751 164.204C355.243 163.53 356.863 163.181 358.501 163.181H399.243C399.974 163.177 400.697 163.018 401.362 162.714C402.027 162.409 402.62 161.966 403.1 161.415C403.581 160.864 403.94 160.217 404.151 159.517C404.363 158.816 404.423 158.079 404.328 157.354L402.741 143.817C402.577 142.58 401.973 141.444 401.039 140.616C400.105 139.789 398.904 139.325 397.656 139.312H352.602C349.803 139.306 347.101 138.284 344.998 136.436C342.895 134.588 341.535 132.039 341.171 129.264L332.516 62.1401C332.354 60.9022 331.75 59.7644 330.816 58.9365C329.881 58.1086 328.679 57.6462 327.431 57.6347H313.955C313.224 57.6402 312.503 57.8008 311.838 58.1058C311.174 58.4108 310.582 58.8534 310.101 59.4042C309.621 59.955 309.262 60.6015 309.05 61.3011C308.838 62.0006 308.776 62.7372 308.87 63.4622L317.006 126.294C317.223 127.927 317.087 129.587 316.608 131.163C316.128 132.738 315.317 134.193 314.228 135.429C313.139 136.664 311.797 137.652 310.294 138.326C308.791 138.999 307.161 139.342 305.514 139.332H196.448C193.649 139.326 190.947 138.305 188.844 136.456C186.742 134.608 185.382 132.059 185.017 129.284L176.362 62.1604C176.2 60.9225 175.596 59.7848 174.662 58.9568C173.728 58.1289 172.525 57.6666 171.277 57.655H157.852C157.121 57.6589 156.398 57.8184 155.733 58.1229C155.068 58.4274 154.475 58.8699 153.994 59.4211C153.513 59.9723 153.155 60.6195 152.944 61.3198C152.732 62.02 152.672 62.7573 152.767 63.4826L160.903 126.314C161.117 127.945 160.978 129.603 160.498 131.177C160.017 132.75 159.205 134.202 158.116 135.436C157.027 136.669 155.687 137.655 154.186 138.327C152.684 138.999 151.056 139.342 149.411 139.332H108.669C107.938 139.338 107.216 139.498 106.552 139.803C105.888 140.108 105.296 140.551 104.815 141.102C104.334 141.652 103.976 142.299 103.764 142.999C103.552 143.698 103.49 144.435 103.584 145.16L105.282 158.656C105.444 159.894 106.048 161.031 106.982 161.859C107.917 162.687 109.119 163.149 110.367 163.161H155.422C158.221 163.167 160.923 164.189 163.026 166.037C165.128 167.885 166.488 170.434 166.853 173.209L176.199 245.703C176.411 247.327 176.273 248.977 175.795 250.543C175.318 252.11 174.512 253.557 173.431 254.787C172.35 256.017 171.019 257.002 169.527 257.677C168.035 258.352 166.416 258.701 164.778 258.7H124.077C123.345 258.704 122.623 258.864 121.958 259.168C121.293 259.473 120.7 259.915 120.219 260.466C119.738 261.017 119.38 261.665 119.168 262.365C118.957 263.065 118.897 263.802 118.992 264.528L120.731 278.044C120.893 279.282 121.496 280.42 122.431 281.248C123.365 282.075 124.568 282.538 125.816 282.549H170.86C173.658 282.555 176.359 283.578 178.46 285.426C180.561 287.274 181.919 289.823 182.281 292.598L190.946 359.721C191.106 360.96 191.709 362.099 192.644 362.927C193.579 363.756 194.782 364.217 196.031 364.227H209.507C210.238 364.223 210.961 364.063 211.626 363.759C212.291 363.454 212.884 363.012 213.365 362.46C213.846 361.909 214.204 361.262 214.415 360.562C214.627 359.862 214.687 359.124 214.592 358.399L206.456 295.567C206.246 293.943 206.385 292.292 206.864 290.726C207.342 289.159 208.15 287.713 209.231 286.483C210.313 285.253 211.645 284.268 213.137 283.593C214.63 282.918 216.249 282.569 217.887 282.57L217.907 282.549ZM320.922 258.7H211.856C209.057 258.694 206.355 257.673 204.252 255.824C202.15 253.976 200.79 251.428 200.425 248.652L191.068 176.159C190.859 174.534 190.998 172.883 191.476 171.317C191.955 169.75 192.762 168.304 193.844 167.074C194.926 165.844 196.257 164.859 197.75 164.184C199.242 163.509 200.862 163.161 202.5 163.161H311.565C314.364 163.167 317.067 164.189 319.169 166.037C321.272 167.885 322.632 170.434 322.996 173.209L332.343 245.703C332.552 247.326 332.414 248.976 331.936 250.542C331.458 252.108 330.651 253.554 329.571 254.783C328.49 256.013 327.16 256.999 325.668 257.674C324.177 258.349 322.559 258.699 320.922 258.7ZM202.5 163.415C200.897 163.415 199.313 163.757 197.853 164.417C196.393 165.077 195.091 166.04 194.032 167.243C192.974 168.446 192.184 169.86 191.715 171.392C191.246 172.924 191.109 174.539 191.312 176.128L200.669 248.621C201.026 251.337 202.358 253.83 204.416 255.637C206.473 257.444 209.117 258.442 211.856 258.446H320.922C322.524 258.448 324.109 258.107 325.57 257.448C327.031 256.788 328.334 255.825 329.393 254.622C330.452 253.418 331.242 252.003 331.71 250.47C332.178 248.938 332.314 247.323 332.109 245.733L322.763 173.25C322.407 170.533 321.077 168.037 319.019 166.228C316.961 164.419 314.315 163.419 311.575 163.415H202.5Z" fill="#0086CF"/>
<path d="M280.617 325.285L288.601 329.953L300.652 312.175L292.669 307.497L280.617 325.285Z" fill="#E4897B"/>
<path d="M288.885 329.688L282.326 321.623C282.215 321.483 282.057 321.387 281.88 321.356C281.704 321.324 281.523 321.357 281.37 321.45L274.251 325.722C274.075 325.836 273.925 325.986 273.811 326.162C273.696 326.338 273.621 326.536 273.588 326.743C273.555 326.95 273.567 327.162 273.621 327.365C273.676 327.567 273.772 327.756 273.905 327.919C276.244 330.685 277.515 331.905 280.404 335.455C282.173 337.641 285.621 342.34 288.082 345.351C290.543 348.361 293.645 346.093 292.893 344.618C289.516 338.008 289.384 334.448 289.435 331.244C289.443 330.677 289.248 330.125 288.885 329.688Z" fill="#263238"/>
<path d="M291.886 334.743H291.692C290.391 334.54 289.007 332.261 288.306 330.929C288.291 330.901 288.284 330.87 288.288 330.838C288.292 330.807 288.305 330.777 288.327 330.754C288.348 330.73 288.376 330.714 288.407 330.707C288.438 330.7 288.47 330.703 288.499 330.716C288.926 330.899 292.689 332.556 292.923 333.767C292.943 333.876 292.935 333.988 292.899 334.093C292.864 334.198 292.802 334.292 292.72 334.367C292.613 334.483 292.485 334.576 292.341 334.641C292.198 334.705 292.043 334.74 291.886 334.743ZM288.835 331.163C289.902 333.085 291.001 334.296 291.784 334.418C291.923 334.442 292.066 334.43 292.199 334.384C292.333 334.338 292.452 334.258 292.547 334.153C292.59 334.112 292.623 334.061 292.642 334.004C292.661 333.947 292.667 333.887 292.659 333.828C292.465 333.014 290.096 331.763 288.835 331.163Z" fill="#0086CF"/>
<path d="M291.438 331.55C290.391 331.541 289.355 331.33 288.387 330.929C288.363 330.919 288.342 330.902 288.328 330.88C288.313 330.859 288.306 330.833 288.306 330.807C288.301 330.78 288.304 330.752 288.315 330.727C288.326 330.702 288.344 330.68 288.367 330.665C288.458 330.604 290.513 329.21 291.967 329.495C292.174 329.534 292.371 329.615 292.545 329.732C292.72 329.849 292.869 330 292.984 330.177C293.299 330.655 293.177 330.96 292.984 331.122C292.542 331.456 291.989 331.609 291.438 331.55ZM288.763 330.766C290.014 331.265 292.313 331.438 292.781 330.919C292.781 330.868 292.954 330.726 292.699 330.349C292.61 330.206 292.491 330.083 292.351 329.989C292.211 329.894 292.052 329.83 291.886 329.8C290.766 329.805 289.675 330.157 288.763 330.807V330.766Z" fill="#0086CF"/>
<path d="M268.087 185.23L268.474 186.776L268.911 188.444C269.206 189.563 269.542 190.692 269.877 191.821C270.555 194.079 271.271 196.333 272.023 198.584C272.816 200.821 273.579 203.079 274.444 205.306C274.861 206.415 275.278 207.544 275.715 208.652L276.234 209.985C276.342 210.214 276.479 210.43 276.64 210.625C277.909 211.902 279.449 212.876 281.146 213.473C283.228 214.319 285.374 214.999 287.563 215.507C289.821 216.036 292.14 216.473 294.489 216.839C296.839 217.206 299.249 217.49 301.608 217.745L301.69 222.535C296.618 223.062 291.506 223.062 286.434 222.535C283.78 222.268 281.156 221.761 278.593 221.019C277.194 220.603 275.833 220.069 274.525 219.423C273.025 218.697 271.652 217.736 270.457 216.575C269.765 215.887 269.167 215.111 268.677 214.266C268.54 214.046 268.414 213.819 268.301 213.585L268.067 213.107L267.66 212.263C267.111 211.134 266.562 210.005 266.053 208.856C265.036 206.557 264.019 204.249 263.124 201.889C262.229 199.53 261.365 197.15 260.592 194.77C260.216 193.55 259.86 192.319 259.575 191.078L259.087 189.187C258.944 188.526 258.812 187.956 258.67 187.153L268.087 185.23Z" fill="#E4897B"/>
<path d="M265.067 175.152C268.88 176.118 271.555 191.821 271.555 191.821L261.039 198.94C261.039 198.94 250.961 183.105 253.92 178.905C256.951 174.572 259.504 173.728 265.067 175.152Z" fill="#0086CF"/>
<path opacity="0.2" d="M265.067 175.152C268.88 176.118 271.555 191.821 271.555 191.821L261.039 198.94C261.039 198.94 250.961 183.105 253.92 178.905C256.951 174.572 259.504 173.728 265.067 175.152Z" fill="black"/>
<path d="M265.443 180.857L257.307 182.749L256.524 190.732C257.908 193.554 259.436 196.304 261.1 198.97L267.477 194.638C267.141 190.966 266.46 183.339 265.443 180.857Z" fill="#0086CF"/>
<path opacity="0.3" d="M265.443 180.857L257.307 182.749L256.524 190.732C257.908 193.554 259.436 196.304 261.1 198.97L267.477 194.638C267.141 190.966 266.46 183.339 265.443 180.857Z" fill="black"/>
<path d="M300.205 217.643L306.765 210.992L307.629 220.358C307.629 220.358 302.707 223.694 299.3 221.904L300.205 217.643Z" fill="#E4897B"/>
<path d="M314.484 209.985L314.779 217.877L307.629 220.348L306.765 210.981L314.484 209.985Z" fill="#E4897B"/>
<path d="M267.447 343.581H276.701L279.681 322.142H270.416L267.447 343.581Z" fill="#E4897B"/>
<path d="M277.312 340.815L268.158 335.923C268.002 335.837 267.819 335.811 267.645 335.851C267.471 335.89 267.317 335.992 267.213 336.136L262.3 342.839C262.183 343.012 262.104 343.209 262.068 343.415C262.031 343.622 262.039 343.833 262.09 344.037C262.141 344.24 262.234 344.43 262.363 344.595C262.492 344.76 262.654 344.896 262.839 344.995C266.063 346.642 267.711 347.273 271.749 349.419C274.23 350.741 280.454 354.392 283.892 356.223C287.329 358.053 289.302 354.748 288.041 353.68C282.376 348.9 279.63 345.005 278.441 342.045C278.226 341.512 277.825 341.074 277.312 340.815Z" fill="#263238"/>
<path d="M226.237 138.997C226.003 149.167 213.554 144.966 212.161 156.683C211.378 163.263 203.405 163.944 201.991 169.904C200.608 175.67 206.232 179.861 201.991 187.041C196.316 196.652 193.143 213.412 224.986 215.151C248.662 216.443 256.992 192.39 252.974 177.613C248.957 162.836 246.72 160.557 251.123 156.489C255.527 152.421 262.585 150.387 260.327 137.959C258.578 128.348 254.327 129.477 254.327 129.477C254.113 124.168 226.796 116.368 226.237 138.997Z" fill="#263238"/>
<path d="M300.652 312.175L294.438 321.339L286.445 316.671L292.659 307.497L300.652 312.175Z" fill="#CE6F64"/>
<path d="M270.416 322.152H279.681L278.136 333.197H268.881L270.416 322.152Z" fill="#CE6F64"/>
<path d="M265.067 175.152C265.067 175.152 269.481 176.708 260.643 231.017H223.013C223.643 215.761 223.653 206.283 216.341 174.877C221.606 173.794 226.942 173.094 232.308 172.782C237.993 172.375 243.7 172.375 249.384 172.782C256.747 173.453 265.067 175.152 265.067 175.152Z" fill="#0086CF"/>
<path opacity="0.2" d="M265.067 175.152C265.067 175.152 269.481 176.708 260.643 231.017H223.013C223.643 215.761 223.653 206.283 216.341 174.877C221.606 173.794 226.942 173.094 232.308 172.782C237.993 172.375 243.7 172.375 249.384 172.782C256.747 173.453 265.067 175.152 265.067 175.152Z" fill="black"/>
<path d="M234.037 153.57C235.115 159.062 236.193 169.121 232.349 172.792C232.349 172.792 233.854 178.365 244.055 178.365C253.879 178.365 249.425 172.792 249.425 172.792C243.323 171.328 243.455 166.782 244.523 162.51L234.037 153.57Z" fill="#E4897B"/>
<path d="M238.309 157.211L244.513 162.5C244.251 163.5 244.077 164.521 243.994 165.551C241.645 165.215 238.431 162.642 238.187 160.191C238.049 159.199 238.091 158.189 238.309 157.211Z" fill="#CE6F64"/>
<path d="M233.396 139.088C232.379 148.241 231.688 152.045 235.431 157.496C241.045 165.693 252.486 165.002 256.249 156.377C259.636 148.618 260.805 135.02 252.608 129.823C250.807 128.672 248.741 128 246.607 127.873C244.473 127.745 242.342 128.166 240.417 129.094C238.491 130.023 236.835 131.429 235.606 133.178C234.378 134.927 233.617 136.962 233.396 139.088Z" fill="#E4897B"/>
<path d="M233.346 144.478C234.637 146.878 254.408 135.945 252.161 130.077C249.913 124.209 244.025 126.335 244.025 126.335C244.025 126.335 233.58 128.714 231.82 134.135C230.061 139.556 233.346 144.478 233.346 144.478Z" fill="#263238"/>
<path d="M229.542 145.526C229.725 147.287 230.573 148.913 231.912 150.072C233.702 151.587 235.481 150.235 235.726 148.038C235.949 146.075 235.288 142.953 233.142 142.241C230.996 141.529 229.339 143.4 229.542 145.526Z" fill="#E4897B"/>
<path d="M260.643 231.017C260.643 231.017 319.162 236.651 318.552 264.873C317.921 294.235 296.838 320.678 296.838 320.678L285.783 314.423C285.783 314.423 297.988 288.58 297.357 270.976C296.849 255.924 240.729 253.035 240.729 253.035L232.99 231.017H260.643Z" fill="#0086CF"/>
<path opacity="0.6" d="M260.643 231.017C260.643 231.017 319.162 236.651 318.552 264.873C317.921 294.235 296.838 320.678 296.838 320.678L285.783 314.423C285.783 314.423 297.988 288.58 297.357 270.976C296.849 255.924 240.729 253.035 240.729 253.035L232.99 231.017H260.643Z" fill="#FAFAFA"/>
<path d="M281.034 247.564L282.214 259.565C290.401 262.128 296.696 265.667 297.316 270.406C298.7 259.788 291.296 253.513 281.034 247.564Z" fill="#0086CF"/>
<path opacity="0.4" d="M281.034 247.564L282.214 259.565C290.401 262.128 296.696 265.667 297.316 270.406C298.7 259.788 291.296 253.513 281.034 247.564Z" fill="#FAFAFA"/>
<path d="M250.716 231.017C250.716 231.017 290.869 244.319 291.886 260.785C293.757 291.103 280.424 331.061 280.424 331.061H267.752C267.752 331.061 268.463 304.548 269.979 277.078C271.871 242.57 210.992 276.6 223.053 231.017H250.716Z" fill="#0086CF"/>
<path opacity="0.6" d="M250.716 231.017C250.716 231.017 290.869 244.319 291.886 260.785C293.757 291.103 280.424 331.061 280.424 331.061H267.752C267.752 331.061 268.463 304.548 269.979 277.078C271.871 242.57 210.992 276.6 223.053 231.017H250.716Z" fill="#FAFAFA"/>
<path d="M246.638 144.061C246.506 144.794 246.791 145.455 247.269 145.546C247.747 145.638 248.286 145.099 248.377 144.366C248.469 143.634 248.225 142.963 247.747 142.882C247.269 142.8 246.77 143.319 246.638 144.061Z" fill="#263238"/>
<path d="M254.937 145.546C254.815 146.278 255.09 146.939 255.578 147.031C256.066 147.123 256.595 146.594 256.686 145.851C256.778 145.109 256.534 144.458 256.046 144.366C255.557 144.275 255.069 144.804 254.937 145.546Z" fill="#263238"/>
<path d="M255.832 144.417L257.683 144.224C257.683 144.224 256.534 145.434 255.832 144.417Z" fill="#263238"/>
<path d="M252.517 146.451C252.866 148.217 253.451 149.927 254.256 151.536C253.831 151.731 253.37 151.832 252.903 151.832C252.436 151.832 251.975 151.731 251.551 151.536L252.517 146.451Z" fill="#DE5753"/>
<path d="M247.36 153.509H247.299C245.821 152.814 244.664 151.581 244.065 150.062C244.059 150.044 244.056 150.026 244.058 150.008C244.059 149.989 244.064 149.971 244.073 149.955C244.081 149.939 244.093 149.924 244.108 149.913C244.122 149.902 244.139 149.893 244.157 149.889C244.173 149.882 244.191 149.879 244.209 149.88C244.227 149.881 244.244 149.885 244.261 149.893C244.277 149.9 244.291 149.911 244.303 149.924C244.315 149.938 244.324 149.953 244.33 149.97C244.903 151.406 245.991 152.577 247.381 153.255C247.414 153.271 247.44 153.298 247.453 153.332C247.466 153.367 247.466 153.404 247.452 153.438C247.442 153.456 247.429 153.471 247.414 153.484C247.398 153.496 247.38 153.505 247.36 153.509Z" fill="#263238"/>
<path d="M245.713 140.766C245.673 140.766 245.634 140.757 245.599 140.739C245.564 140.722 245.533 140.696 245.509 140.664C245.481 140.641 245.459 140.611 245.444 140.578C245.428 140.544 245.42 140.508 245.42 140.471C245.42 140.434 245.428 140.398 245.444 140.365C245.459 140.331 245.481 140.302 245.509 140.278C246.001 139.826 246.593 139.497 247.237 139.321C247.881 139.144 248.558 139.123 249.211 139.261C249.283 139.28 249.344 139.326 249.381 139.39C249.418 139.454 249.429 139.53 249.41 139.602C249.391 139.673 249.344 139.734 249.28 139.771C249.217 139.809 249.14 139.819 249.069 139.8C248.501 139.687 247.915 139.712 247.359 139.873C246.804 140.034 246.295 140.327 245.876 140.725C245.826 140.754 245.77 140.769 245.713 140.766Z" fill="#263238"/>
<path d="M259.473 142.241C259.419 142.237 259.367 142.219 259.323 142.189C259.278 142.158 259.242 142.117 259.219 142.068C259.002 141.534 258.663 141.058 258.228 140.68C257.794 140.302 257.276 140.032 256.717 139.892C256.643 139.879 256.577 139.838 256.533 139.777C256.489 139.716 256.471 139.64 256.483 139.566C256.498 139.494 256.54 139.43 256.601 139.389C256.661 139.347 256.736 139.33 256.808 139.342C257.461 139.493 258.067 139.799 258.575 140.235C259.083 140.671 259.479 141.223 259.727 141.844C259.744 141.877 259.753 141.913 259.755 141.95C259.757 141.987 259.751 142.024 259.738 142.059C259.724 142.093 259.704 142.125 259.677 142.151C259.651 142.177 259.62 142.197 259.585 142.21C259.551 142.231 259.513 142.242 259.473 142.241Z" fill="#263238"/>
<path d="M280.78 344.11C279.691 344.11 278.217 342.971 277.393 342.238C277.368 342.22 277.35 342.195 277.34 342.166C277.331 342.136 277.332 342.105 277.342 342.076C277.351 342.047 277.369 342.021 277.392 342.001C277.415 341.981 277.444 341.968 277.474 341.964C277.851 341.964 281.156 341.659 281.848 342.564C281.922 342.659 281.969 342.773 281.985 342.892C282.002 343.012 281.986 343.134 281.939 343.245C281.883 343.441 281.778 343.62 281.634 343.764C281.49 343.908 281.311 344.013 281.115 344.069C281.005 344.094 280.893 344.107 280.78 344.11ZM277.871 342.249C279.213 343.367 280.373 343.937 281.034 343.764C281.181 343.723 281.315 343.644 281.422 343.535C281.529 343.426 281.605 343.291 281.644 343.144C281.683 343.087 281.703 343.019 281.703 342.95C281.703 342.882 281.683 342.814 281.644 342.757C281.156 342.167 279.02 342.177 277.871 342.249Z" fill="#0086CF"/>
<path d="M277.495 342.279C277.467 342.281 277.439 342.274 277.415 342.26C277.392 342.245 277.373 342.224 277.363 342.198C277.35 342.174 277.344 342.148 277.344 342.121C277.344 342.095 277.35 342.069 277.363 342.045C277.413 341.954 278.664 339.625 279.946 339.32C280.1 339.275 280.262 339.268 280.419 339.298C280.576 339.328 280.724 339.394 280.851 339.492C280.994 339.567 281.106 339.689 281.168 339.838C281.229 339.987 281.236 340.153 281.187 340.306C280.912 341.242 278.624 342.249 277.505 342.279H277.495ZM280.22 339.594H280.007C279.091 339.808 278.135 341.303 277.769 341.903C278.837 341.74 280.668 340.886 280.881 340.184C280.881 340.072 280.932 339.899 280.668 339.716C280.535 339.63 280.379 339.587 280.22 339.594Z" fill="#0086CF"/>
<path d="M247.523 142.882L249.384 142.688C249.384 142.688 248.225 143.909 247.523 142.882Z" fill="#263238"/>
<path d="M222.484 228.83L222.189 232.197C222.057 232.461 222.362 232.725 222.799 232.725H260.826C261.172 232.725 261.446 232.563 261.467 232.349L261.812 228.983C261.812 228.749 261.538 228.545 261.172 228.545H223.094C222.977 228.539 222.86 228.561 222.753 228.611C222.647 228.661 222.554 228.736 222.484 228.83Z" fill="#263238"/>
<path d="M227.6 233.071H226.583C226.379 233.071 226.227 232.969 226.237 232.837L226.715 228.464C226.715 228.332 226.908 228.23 227.111 228.23H228.128C228.332 228.23 228.484 228.332 228.474 228.464L227.996 232.837C227.976 232.969 227.813 233.071 227.6 233.071Z" fill="#0086CF"/>
<path opacity="0.6" d="M227.6 233.071H226.583C226.379 233.071 226.227 232.969 226.237 232.837L226.715 228.464C226.715 228.332 226.908 228.23 227.111 228.23H228.128C228.332 228.23 228.484 228.332 228.474 228.464L227.996 232.837C227.976 232.969 227.813 233.071 227.6 233.071Z" fill="#FAFAFA"/>
<path d="M257.968 233.071H256.951C256.748 233.071 256.595 232.969 256.615 232.837L257.093 228.464C257.093 228.332 257.276 228.23 257.48 228.23H258.497C258.7 228.23 258.853 228.332 258.832 228.464L258.354 232.837C258.324 232.969 258.171 233.071 257.968 233.071Z" fill="#0086CF"/>
<path opacity="0.6" d="M257.968 233.071H256.951C256.748 233.071 256.595 232.969 256.615 232.837L257.093 228.464C257.093 228.332 257.276 228.23 257.48 228.23H258.497C258.7 228.23 258.853 228.332 258.832 228.464L258.354 232.837C258.324 232.969 258.171 233.071 257.968 233.071Z" fill="#FAFAFA"/>
<path d="M242.784 233.071H241.767C241.563 233.071 241.401 232.969 241.421 232.837L241.899 228.464C241.899 228.332 242.092 228.23 242.296 228.23H243.313C243.516 228.23 243.669 228.332 243.658 228.464L243.18 232.837C243.16 232.969 242.987 233.071 242.784 233.071Z" fill="#0086CF"/>
<path opacity="0.6" d="M242.784 233.071H241.767C241.563 233.071 241.401 232.969 241.421 232.837L241.899 228.464C241.899 228.332 242.092 228.23 242.296 228.23H243.313C243.516 228.23 243.669 228.332 243.658 228.464L243.18 232.837C243.16 232.969 242.987 233.071 242.784 233.071Z" fill="#FAFAFA"/>
<path d="M225.23 189.461L220.379 193.59C221.396 199.082 222.108 203.659 222.555 207.727C223.46 203.649 225.779 192.583 225.23 189.461Z" fill="#0086CF"/>
<path opacity="0.3" d="M225.23 189.461L220.379 193.59C221.396 199.082 222.108 203.659 222.555 207.727C223.46 203.649 225.779 192.583 225.23 189.461Z" fill="black"/>
<path d="M328 205.032H262.026L252.466 243.994H318.44L328 205.032Z" fill="#FAFAFA"/>
<path d="M294.571 236.743L254.225 246.15L228.332 238.889L228.596 236.743H294.571Z" fill="#FAFAFA"/>
<path d="M221.996 188.271C221.213 190.865 220.358 193.539 219.595 196.184C218.833 198.828 218.029 201.493 217.338 204.147C216.646 206.801 215.985 209.446 215.477 212.039C215.232 213.331 214.999 214.622 214.846 215.843C214.737 216.7 214.679 217.562 214.673 218.426C214.897 219.119 215.28 219.749 215.792 220.267C216.564 221.104 217.419 221.861 218.345 222.525C220.462 224.033 222.696 225.369 225.026 226.522C227.416 227.752 229.918 228.871 232.471 229.908C235.024 230.946 237.627 231.942 240.18 232.959L239 237.556C236.081 237.099 233.305 236.448 230.478 235.746C227.65 235.044 224.894 234.119 222.118 233.102C219.249 232.053 216.484 230.739 213.859 229.176C212.401 228.303 211.037 227.281 209.791 226.125C208.226 224.712 207.04 222.928 206.344 220.938C206.152 220.332 206.019 219.709 205.947 219.077V218.589V218.223V217.572C205.947 216.717 205.947 215.904 205.947 215.1C206.028 213.514 206.201 212.049 206.425 210.524C206.842 207.554 207.442 204.686 208.073 201.859C209.371 196.232 210.957 190.675 212.822 185.21L221.996 188.271Z" fill="#E4897B"/>
<path d="M216.382 174.928C212.619 176.077 206.852 190.865 206.852 190.865L221.467 201.31C221.467 201.31 228.037 188.668 226.45 183.796C224.762 178.681 220.694 173.575 216.382 174.928Z" fill="#0086CF"/>
<path opacity="0.2" d="M216.382 174.928C212.619 176.077 206.852 190.865 206.852 190.865L221.467 201.31C221.467 201.31 228.037 188.668 226.45 183.796C224.762 178.681 220.694 173.575 216.382 174.928Z" fill="black"/>
<path d="M238.278 233.244L247.065 231.017L242.875 239.448C242.875 239.448 236.946 239.702 234.983 236.397L238.278 233.244Z" fill="#E4897B"/>
<path d="M254.154 234.22L250.269 241.095L242.875 239.448L247.065 231.017L254.154 234.22Z" fill="#E4897B"/>
<path d="M330.034 205.032H264.06L254.5 243.994H320.474L330.034 205.032Z" fill="#263238"/>
<path d="M320.474 243.994L320.21 246.15H254.225L254.49 243.994H320.474Z" fill="#263238"/>
<path d="M250.584 133.657C259.473 137.217 260.205 142.332 259.737 138.742C259.066 133.586 254.785 129.874 251.713 128.623C249.913 127.87 246.699 132.101 250.584 133.657Z" fill="#263238"/>
<path d="M234.017 138.315L233.417 139.017C233.323 139.114 233.271 139.243 233.271 139.378C233.271 139.513 233.323 139.642 233.417 139.739L238.217 144.112C238.313 144.2 238.438 144.249 238.568 144.249C238.698 144.249 238.823 144.2 238.919 144.112L239.743 143.349C239.797 143.301 239.84 143.241 239.87 143.175C239.9 143.108 239.915 143.036 239.915 142.963C239.915 142.89 239.9 142.818 239.87 142.751C239.84 142.685 239.797 142.625 239.743 142.576L234.708 138.264C234.607 138.186 234.481 138.148 234.353 138.157C234.225 138.167 234.106 138.223 234.017 138.315Z" fill="#0086CF"/>
<path opacity="0.3" d="M234.017 138.315L233.417 139.017C233.323 139.114 233.271 139.243 233.271 139.378C233.271 139.513 233.323 139.642 233.417 139.739L238.217 144.112C238.313 144.2 238.438 144.249 238.568 144.249C238.698 144.249 238.823 144.2 238.919 144.112L239.743 143.349C239.797 143.301 239.84 143.241 239.87 143.175C239.9 143.108 239.915 143.036 239.915 142.963C239.915 142.89 239.9 142.818 239.87 142.751C239.84 142.685 239.797 142.625 239.743 142.576L234.708 138.264C234.607 138.186 234.481 138.148 234.353 138.157C234.225 138.167 234.106 138.223 234.017 138.315Z" fill="black"/>
<path d="M232.787 172.141C232.888 172.914 233.743 176.728 241.004 178.162C241.004 178.162 238.848 180.511 237.628 186.136C237.628 186.136 224.894 181.142 228.759 173.046C228.79 172.982 228.835 172.925 228.892 172.881C228.948 172.836 229.014 172.806 229.085 172.792L232.624 172.04C232.641 172.035 232.659 172.034 232.677 172.037C232.695 172.04 232.712 172.046 232.727 172.055C232.742 172.065 232.755 172.078 232.766 172.092C232.776 172.107 232.783 172.124 232.787 172.141Z" fill="#0086CF"/>
<path opacity="0.6" d="M232.787 172.141C232.888 172.914 233.743 176.728 241.004 178.162C241.004 178.162 238.848 180.511 237.628 186.136C237.628 186.136 224.894 181.142 228.759 173.046C228.79 172.982 228.835 172.925 228.892 172.881C228.948 172.836 229.014 172.806 229.085 172.792L232.624 172.04C232.641 172.035 232.659 172.034 232.677 172.037C232.695 172.04 232.712 172.046 232.727 172.055C232.742 172.065 232.755 172.078 232.766 172.092C232.776 172.107 232.783 172.124 232.787 172.141Z" fill="#FAFAFA"/>
<path d="M249.008 172.731C249.883 173.657 252.273 176.799 246.231 178.243C246.231 178.243 249.903 180.278 251.123 185.902C251.123 185.902 260.165 179.688 251.937 172.935C251.927 172.93 251.917 172.928 251.906 172.928C251.896 172.928 251.885 172.93 251.876 172.935L249.12 172.548C249.099 172.55 249.079 172.556 249.061 172.567C249.043 172.578 249.028 172.593 249.017 172.611C249.006 172.629 249 172.649 248.998 172.67C248.996 172.691 249 172.712 249.008 172.731Z" fill="#0086CF"/>
<path opacity="0.6" d="M249.008 172.731C249.883 173.657 252.273 176.799 246.231 178.243C246.231 178.243 249.903 180.278 251.123 185.902C251.123 185.902 260.165 179.688 251.937 172.935C251.927 172.93 251.917 172.928 251.906 172.928C251.896 172.928 251.885 172.93 251.876 172.935L249.12 172.548C249.099 172.55 249.079 172.556 249.061 172.567C249.043 172.578 249.028 172.593 249.017 172.611C249.006 172.629 249 172.649 248.998 172.67C248.996 172.691 249 172.712 249.008 172.731Z" fill="#FAFAFA"/>
<path d="M335.323 114.212C333.777 98.2343 319.732 85.2876 303.958 85.2977C288.184 85.3079 276.63 98.2546 278.207 114.232C278.776 119.416 280.578 124.389 283.462 128.734C286.346 133.08 290.228 136.672 294.784 139.21L294.53 149.38L302.992 142.414C305.15 142.913 307.357 143.169 309.572 143.177C325.346 143.146 336.879 130.179 335.323 114.212Z" fill="#0086CF"/>
<path opacity="0.6" d="M335.323 114.212C333.777 98.2343 319.732 85.2876 303.958 85.2977C288.184 85.3079 276.63 98.2546 278.207 114.232C278.776 119.416 280.578 124.389 283.462 128.734C286.346 133.08 290.228 136.672 294.784 139.21L294.53 149.38L302.992 142.414C305.15 142.913 307.357 143.169 309.572 143.177C325.346 143.146 336.879 130.179 335.323 114.212Z" fill="#FAFAFA"/>
<path d="M309.175 109.188C302.188 107.082 297.256 99.6073 297.256 99.6073C297.256 99.6073 295.099 99.4852 295.222 101.458C295.447 104.19 296.701 106.734 298.73 108.577L295.455 108.394C294.303 108.329 293.148 108.456 292.038 108.771L291.021 109.066C290.586 109.198 290.183 109.419 289.837 109.715C289.491 110.012 289.211 110.376 289.013 110.786C288.815 111.196 288.704 111.642 288.688 112.097C288.671 112.552 288.749 113.005 288.916 113.429L291.092 119.846C291.814 121.922 293.258 123.669 295.161 124.768C296.772 125.729 298.662 126.113 300.52 125.857C303.795 125.358 308.89 124.596 309.765 124.433L312.114 124.229L311.423 109.839L309.175 109.188Z" fill="#FAFAFA"/>
<path d="M321.461 126.172H312.308C311.955 126.16 311.619 126.022 311.36 125.783C311.1 125.544 310.935 125.22 310.894 124.87L309.307 108.496C309.287 108.332 309.302 108.166 309.351 108.009C309.4 107.851 309.482 107.706 309.592 107.583C309.702 107.459 309.837 107.361 309.988 107.294C310.138 107.227 310.302 107.193 310.467 107.194H319.62C319.976 107.204 320.316 107.343 320.577 107.584C320.839 107.825 321.005 108.153 321.044 108.506L322.63 124.87C322.649 125.034 322.633 125.201 322.582 125.358C322.532 125.516 322.449 125.661 322.338 125.784C322.228 125.907 322.092 126.005 321.941 126.072C321.79 126.139 321.626 126.173 321.461 126.172Z" fill="#0086CF"/>
<path d="M187.02 192.441L177.867 183.766C177.999 181.957 177.979 180.14 177.806 178.335C176.087 160.68 160.568 146.37 143.136 146.38C125.704 146.39 112.971 160.71 114.659 178.366C116.348 196.021 131.888 210.331 149.319 210.32C154.692 210.41 159.978 208.952 164.545 206.121C169.113 203.29 172.77 199.205 175.081 194.353L187.02 192.441Z" fill="#0086CF"/>
<path d="M160.873 166.914C156.103 162.51 149.065 162.52 145.16 166.914C140.39 162.52 133.352 162.52 129.437 166.914C125.521 171.307 126.213 178.447 130.983 182.84L148.272 198.757L162.439 182.83C166.334 178.437 165.643 171.307 160.873 166.914Z" fill="#0086CF"/>
<path opacity="0.6" d="M160.873 166.914C156.103 162.51 149.065 162.52 145.16 166.914C140.39 162.52 133.352 162.52 129.437 166.914C125.521 171.307 126.213 178.447 130.983 182.84L148.272 198.757L162.439 182.83C166.334 178.437 165.643 171.307 160.873 166.914Z" fill="#FAFAFA"/>
</svg>
