<svg width="447" height="434" viewBox="0 0 447 434" fill="none" xmlns="http://www.w3.org/2000/svg">
<path d="M401.339 65.1834C373.937 2.70267 308.163 -20.8226 256.267 21.1286C236.001 37.4949 223.358 63.5423 198.544 73.9943C175.261 83.7965 145.766 80.9109 120.589 86.2195C66.9741 97.4535 -5.20966 140.077 0.297184 205.751C2.70918 234.519 22.1153 266.47 31.7082 293.387C42.7219 324.358 49.3302 363.104 78.4834 381.618C128.464 413.403 188.753 387.422 233.777 361.793C258.007 348.015 271.344 339.546 297.436 344.27C321.589 348.676 343.341 364.095 366.943 345.801C384.664 332.067 386.129 304.236 401.009 287.891C417.771 269.476 434.766 268.144 443.477 240.466C454.04 206.886 438.477 185.905 427.959 155.903C417.441 125.902 414.247 94.5789 401.339 65.1834Z" fill="#0086CF"/>
<g opacity="0.7">
<path opacity="0.7" d="M401.339 65.1834C373.937 2.70267 308.163 -20.8226 256.267 21.1286C236.001 37.4949 223.358 63.5423 198.544 73.9943C175.261 83.7965 145.766 80.9109 120.589 86.2195C66.9741 97.4535 -5.20966 140.077 0.297184 205.751C2.70918 234.519 22.1153 266.47 31.7082 293.387C42.7219 324.358 49.3302 363.104 78.4834 381.618C128.464 413.403 188.753 387.422 233.777 361.793C258.007 348.015 271.344 339.546 297.436 344.27C321.589 348.676 343.341 364.095 366.943 345.801C384.664 332.067 386.129 304.236 401.009 287.891C417.771 269.476 434.766 268.144 443.477 240.466C454.04 206.886 438.477 185.905 427.959 155.903C417.441 125.902 414.247 94.5789 401.339 65.1834Z" fill="white"/>
</g>
<path d="M192.828 433.79C286.854 433.79 363.077 429.041 363.077 423.184C363.077 417.326 286.854 412.578 192.828 412.578C98.8013 412.578 22.5779 417.326 22.5779 423.184C22.5779 429.041 98.8013 433.79 192.828 433.79Z" fill="#0086CF"/>
<path opacity="0.8" d="M192.828 433.79C286.854 433.79 363.077 429.041 363.077 423.184C363.077 417.326 286.854 412.578 192.828 412.578C98.8013 412.578 22.5779 417.326 22.5779 423.184C22.5779 429.041 98.8013 433.79 192.828 433.79Z" fill="white"/>
<path d="M320.763 19.873H149.577C137.758 19.873 128.177 29.454 128.177 41.2727V402.676C128.177 414.495 137.758 424.076 149.577 424.076H320.763C332.581 424.076 342.162 414.495 342.162 402.676V41.2727C342.162 29.454 332.581 19.873 320.763 19.873Z" fill="#263238"/>
<path d="M332.647 64.2583H137.682V379.691H332.647V64.2583Z" fill="white" stroke="#263238" stroke-width="1.33739" stroke-miterlimit="10"/>
<path d="M265.052 191.986C281.555 175.482 281.555 148.725 265.052 132.222C248.548 115.718 221.791 115.718 205.288 132.222C188.784 148.725 188.784 175.483 205.288 191.986C221.791 208.489 248.548 208.489 265.052 191.986Z" fill="#0086CF"/>
<path d="M290.651 359.855H179.699C179.45 359.856 179.202 359.808 178.971 359.714C178.74 359.619 178.53 359.48 178.353 359.304C178.176 359.128 178.035 358.919 177.939 358.688C177.843 358.457 177.794 358.21 177.794 357.96C177.793 357.71 177.841 357.461 177.936 357.23C178.031 356.998 178.172 356.787 178.349 356.61C178.526 356.433 178.737 356.292 178.968 356.197C179.2 356.102 179.449 356.054 179.699 356.055H290.651C290.901 356.055 291.148 356.104 291.379 356.2C291.609 356.296 291.819 356.437 291.995 356.614C292.171 356.791 292.31 357.001 292.405 357.232C292.499 357.463 292.547 357.711 292.546 357.96C292.546 358.463 292.346 358.945 291.991 359.3C291.636 359.655 291.154 359.855 290.651 359.855Z" fill="#0086CF"/>
<path d="M294.264 228.12H176.076C173.637 228.12 171.659 230.097 171.659 232.537V246.469C171.659 248.908 173.637 250.885 176.076 250.885H294.264C296.703 250.885 298.68 248.908 298.68 246.469V232.537C298.68 230.097 296.703 228.12 294.264 228.12Z" fill="#0086CF"/>
<path d="M294.264 270.699H176.076C173.637 270.699 171.659 272.676 171.659 275.115V289.048C171.659 291.487 173.637 293.464 176.076 293.464H294.264C296.703 293.464 298.68 291.487 298.68 289.048V275.115C298.68 272.676 296.703 270.699 294.264 270.699Z" fill="#0086CF"/>
<path d="M256.211 183.184L243.777 176.025V170.111C245.577 167.933 246.882 165.388 247.599 162.655C248.027 162.807 248.477 162.885 248.931 162.886C250.473 162.886 251.454 158.106 251.619 154.692C253.414 150.892 250.969 148.667 250.969 148.667C250.969 148.667 251.982 147.654 252.654 143.59C253.326 139.526 250.286 141.222 247.918 137.499C245.55 133.777 243.854 129.724 236.078 129.724C233.936 129.653 231.822 130.229 230.011 131.376C228.2 132.523 226.776 134.188 225.924 136.156C223.988 136.163 222.06 136.388 220.175 136.827C217.796 137.499 217.124 145.286 219.15 148.337C220.058 150.004 220.542 151.869 220.56 153.767C220.02 153.106 219.459 152.929 219.15 154.427C218.479 157.809 221.188 162.544 221.188 162.544L222.587 162.148C223.291 165.069 224.651 167.792 226.563 170.111V176.025L214.128 183.184C212.676 184.023 211.47 185.228 210.631 186.68C209.792 188.132 209.35 189.779 209.348 191.455V195.552C216.743 201.266 225.825 204.365 235.17 204.365C244.515 204.365 253.596 201.266 260.991 195.552V191.455C260.992 189.778 260.551 188.13 259.712 186.678C258.872 185.226 257.665 184.021 256.211 183.184Z" fill="#263238"/>
<path d="M187.75 287.803C187.465 287.799 187.193 287.685 186.99 287.484C186.882 287.387 186.796 287.268 186.737 287.135C186.678 287.002 186.648 286.858 186.649 286.713C186.652 286.514 186.709 286.32 186.814 286.151L188.797 282.979L184.931 283.1C184.785 283.109 184.639 283.088 184.503 283.036C184.366 282.985 184.242 282.906 184.138 282.803C183.958 282.601 183.859 282.341 183.859 282.071C183.859 281.801 183.958 281.54 184.138 281.338C184.239 281.232 184.363 281.149 184.5 281.096C184.637 281.042 184.784 281.02 184.931 281.03L188.742 281.173L186.781 278.012C186.674 277.84 186.617 277.642 186.616 277.439C186.615 277.294 186.645 277.15 186.704 277.017C186.762 276.884 186.849 276.765 186.957 276.668C187.16 276.468 187.432 276.353 187.717 276.349C187.905 276.35 188.088 276.405 188.246 276.506C188.404 276.607 188.53 276.752 188.609 276.922L190.493 280.325L192.354 276.944C192.442 276.763 192.578 276.61 192.747 276.502C192.916 276.393 193.111 276.333 193.312 276.327C193.451 276.328 193.589 276.358 193.716 276.414C193.843 276.471 193.957 276.554 194.05 276.657C194.252 276.867 194.363 277.148 194.359 277.439C194.358 277.629 194.309 277.814 194.215 277.979L192.222 281.173L196.088 281.03C196.234 281.02 196.381 281.042 196.519 281.096C196.656 281.149 196.779 281.232 196.881 281.338C197.068 281.533 197.171 281.794 197.167 282.065C197.166 282.338 197.064 282.601 196.881 282.803C196.777 282.906 196.653 282.985 196.516 283.036C196.379 283.088 196.233 283.109 196.088 283.1L192.2 282.979L194.138 286.118C194.247 286.293 194.304 286.496 194.303 286.702C194.303 286.994 194.187 287.274 193.981 287.481C193.774 287.687 193.494 287.803 193.202 287.803C193.013 287.801 192.829 287.743 192.673 287.637C192.516 287.532 192.394 287.383 192.321 287.208L190.482 283.904L188.653 287.208C188.572 287.381 188.445 287.528 188.286 287.633C188.126 287.738 187.941 287.797 187.75 287.803Z" fill="#263238"/>
<path d="M205.615 287.803C205.329 287.799 205.057 287.685 204.855 287.484C204.746 287.387 204.66 287.268 204.601 287.135C204.542 287.002 204.512 286.858 204.513 286.713C204.517 286.514 204.574 286.32 204.678 286.151L206.661 282.979L202.806 283.1C202.659 283.107 202.512 283.084 202.374 283.033C202.236 282.982 202.109 282.904 202.002 282.803C201.856 282.652 201.758 282.461 201.722 282.254C201.687 282.047 201.714 281.834 201.8 281.643C201.887 281.451 202.029 281.291 202.209 281.181C202.388 281.072 202.596 281.019 202.806 281.03L206.606 281.173L204.645 278.012C204.539 277.84 204.482 277.642 204.48 277.439C204.479 277.294 204.509 277.15 204.568 277.017C204.627 276.884 204.713 276.765 204.822 276.668C205.024 276.468 205.296 276.353 205.582 276.349C205.769 276.35 205.953 276.405 206.111 276.506C206.268 276.607 206.394 276.752 206.474 276.922L208.357 280.325L210.218 276.944C210.307 276.763 210.443 276.61 210.611 276.502C210.78 276.393 210.976 276.333 211.176 276.327C211.316 276.326 211.454 276.356 211.581 276.413C211.708 276.469 211.822 276.553 211.914 276.657C212.016 276.76 212.097 276.882 212.152 277.017C212.207 277.151 212.235 277.294 212.234 277.439C212.23 277.63 212.177 277.815 212.08 277.979L210.086 281.173L213.963 281.052C214.108 281.042 214.253 281.065 214.389 281.118C214.524 281.171 214.646 281.254 214.745 281.36C214.933 281.555 215.036 281.817 215.031 282.087C215.031 282.36 214.929 282.623 214.745 282.825C214.643 282.927 214.521 283.007 214.386 283.058C214.251 283.109 214.107 283.131 213.963 283.122L210.064 283.001L212.002 286.14C212.111 286.315 212.168 286.518 212.168 286.724C212.168 287.016 212.052 287.296 211.845 287.503C211.639 287.709 211.358 287.825 211.066 287.825C210.877 287.823 210.693 287.765 210.537 287.659C210.38 287.554 210.258 287.405 210.185 287.23L208.346 283.926L206.518 287.23C206.434 287.399 206.305 287.542 206.146 287.643C205.987 287.743 205.803 287.799 205.615 287.803Z" fill="#263238"/>
<path d="M223.49 287.803C223.201 287.802 222.924 287.687 222.719 287.484C222.61 287.387 222.524 287.268 222.465 287.135C222.406 287.002 222.376 286.858 222.377 286.713C222.381 286.514 222.438 286.32 222.543 286.151L224.525 282.979L220.67 283.1C220.463 283.109 220.257 283.055 220.08 282.946C219.903 282.837 219.763 282.678 219.677 282.489C219.59 282.3 219.562 282.09 219.596 281.885C219.63 281.68 219.724 281.49 219.866 281.338C219.97 281.232 220.096 281.15 220.235 281.096C220.373 281.043 220.522 281.021 220.67 281.03L224.47 281.173L222.51 278.012C222.403 277.84 222.346 277.642 222.344 277.439C222.348 277.295 222.38 277.152 222.438 277.02C222.497 276.888 222.581 276.768 222.686 276.668C222.891 276.465 223.168 276.35 223.457 276.349C223.643 276.352 223.824 276.408 223.979 276.509C224.135 276.61 224.259 276.753 224.338 276.922L226.221 280.325L228.083 276.944C228.171 276.763 228.307 276.61 228.476 276.502C228.645 276.393 228.84 276.333 229.041 276.327C229.18 276.326 229.318 276.356 229.445 276.413C229.573 276.469 229.686 276.553 229.779 276.657C229.881 276.76 229.961 276.882 230.016 277.017C230.071 277.151 230.099 277.294 230.098 277.439C230.094 277.63 230.041 277.815 229.944 277.979L227.95 281.173L231.827 281.03C231.97 281.016 232.114 281.032 232.249 281.078C232.385 281.124 232.509 281.199 232.613 281.297C232.718 281.395 232.8 281.514 232.854 281.647C232.909 281.779 232.934 281.922 232.929 282.065C232.931 282.337 232.833 282.599 232.653 282.803C232.549 282.906 232.425 282.985 232.289 283.036C232.152 283.088 232.006 283.109 231.86 283.1L227.972 282.979L229.9 286.118C230.008 286.293 230.066 286.496 230.065 286.702C230.062 286.846 230.03 286.989 229.971 287.121C229.912 287.254 229.828 287.373 229.724 287.473C229.628 287.576 229.512 287.658 229.383 287.715C229.254 287.772 229.115 287.802 228.975 287.803C228.787 287.8 228.605 287.742 228.45 287.636C228.296 287.531 228.176 287.382 228.105 287.208L226.254 283.904L224.426 287.208C224.344 287.387 224.211 287.538 224.045 287.644C223.879 287.749 223.686 287.804 223.49 287.803Z" fill="#263238"/>
<path d="M241.354 287.803C241.065 287.802 240.788 287.687 240.583 287.484C240.376 287.28 240.257 287.003 240.253 286.713C240.249 286.515 240.303 286.32 240.407 286.151L242.389 282.979L238.534 283.1C238.387 283.107 238.24 283.084 238.102 283.033C237.964 282.982 237.838 282.904 237.73 282.803C237.551 282.601 237.452 282.341 237.452 282.071C237.452 281.801 237.551 281.54 237.73 281.338C237.837 281.235 237.963 281.155 238.101 281.102C238.239 281.049 238.387 281.025 238.534 281.03L242.345 281.173L240.396 278.012C240.289 277.84 240.232 277.642 240.231 277.439C240.234 277.295 240.266 277.152 240.325 277.02C240.383 276.888 240.467 276.768 240.572 276.668C240.777 276.465 241.054 276.35 241.343 276.349C241.531 276.35 241.714 276.405 241.872 276.506C242.03 276.607 242.156 276.752 242.235 276.922L244.107 280.325L245.969 276.944C246.057 276.763 246.193 276.61 246.362 276.502C246.531 276.393 246.726 276.333 246.927 276.327C247.066 276.326 247.204 276.356 247.332 276.413C247.459 276.469 247.572 276.553 247.665 276.657C247.767 276.76 247.848 276.882 247.902 277.017C247.957 277.151 247.985 277.294 247.984 277.439C247.98 277.63 247.927 277.815 247.83 277.979L245.837 281.173L249.713 281.03C249.856 281.016 250 281.032 250.135 281.078C250.271 281.124 250.395 281.199 250.5 281.297C250.604 281.395 250.686 281.514 250.741 281.647C250.795 281.779 250.82 281.922 250.815 282.065C250.817 282.337 250.719 282.599 250.539 282.803C250.436 282.906 250.311 282.985 250.175 283.036C250.038 283.088 249.892 283.109 249.746 283.1L245.859 282.979L247.786 286.118C247.895 286.293 247.952 286.496 247.951 286.702C247.952 286.847 247.922 286.991 247.863 287.124C247.805 287.257 247.718 287.376 247.61 287.473C247.514 287.576 247.398 287.658 247.269 287.715C247.141 287.772 247.002 287.802 246.861 287.803C246.674 287.8 246.491 287.742 246.337 287.636C246.182 287.531 246.062 287.382 245.991 287.208L244.14 283.904L242.312 287.208C242.228 287.391 242.093 287.544 241.922 287.65C241.752 287.755 241.554 287.809 241.354 287.803Z" fill="#263238"/>
<path d="M259.218 287.803C258.929 287.802 258.652 287.687 258.447 287.484C258.277 287.311 258.168 287.087 258.138 286.846C258.108 286.605 258.159 286.36 258.282 286.151L260.254 282.979L256.399 283.1C256.252 283.107 256.105 283.084 255.967 283.033C255.829 282.982 255.702 282.904 255.595 282.803C255.415 282.601 255.316 282.341 255.316 282.071C255.316 281.801 255.415 281.54 255.595 281.338C255.701 281.235 255.827 281.155 255.965 281.102C256.103 281.049 256.251 281.025 256.399 281.03L260.209 281.173L258.249 278.012C258.142 277.84 258.085 277.642 258.084 277.439C258.088 277.149 258.207 276.872 258.414 276.668C258.619 276.465 258.896 276.35 259.185 276.349C259.373 276.35 259.556 276.405 259.714 276.506C259.872 276.607 259.998 276.752 260.077 276.922L261.95 280.325L263.811 276.944C263.899 276.763 264.035 276.611 264.204 276.502C264.373 276.393 264.568 276.333 264.769 276.327C264.91 276.326 265.05 276.355 265.179 276.412C265.308 276.469 265.424 276.553 265.518 276.657C265.72 276.867 265.831 277.148 265.826 277.439C265.823 277.63 265.769 277.815 265.672 277.979L263.679 281.173L267.556 281.03C267.698 281.016 267.842 281.032 267.978 281.078C268.113 281.124 268.238 281.199 268.342 281.297C268.446 281.395 268.528 281.514 268.583 281.647C268.637 281.779 268.662 281.922 268.657 282.065C268.659 282.337 268.561 282.599 268.382 282.803C268.278 282.906 268.154 282.985 268.017 283.037C267.88 283.088 267.734 283.109 267.589 283.1L263.701 282.979L265.628 286.118C265.737 286.293 265.794 286.496 265.793 286.702C265.794 286.847 265.765 286.991 265.706 287.124C265.647 287.257 265.56 287.376 265.452 287.473C265.356 287.576 265.24 287.658 265.112 287.715C264.983 287.772 264.844 287.802 264.703 287.803C264.516 287.8 264.334 287.742 264.179 287.636C264.024 287.531 263.904 287.382 263.833 287.208L261.983 283.904L260.154 287.208C260.072 287.387 259.94 287.538 259.774 287.644C259.608 287.749 259.415 287.804 259.218 287.803Z" fill="#263238"/>
<path d="M277.082 287.803C276.797 287.799 276.525 287.685 276.323 287.484C276.214 287.387 276.128 287.268 276.069 287.135C276.01 287.002 275.98 286.858 275.981 286.713C275.984 286.514 276.042 286.32 276.146 286.151L278.118 282.979L274.263 283.1C274.121 283.111 273.979 283.092 273.845 283.045C273.711 282.997 273.588 282.923 273.484 282.825C273.381 282.728 273.298 282.61 273.243 282.479C273.187 282.348 273.16 282.207 273.162 282.065C273.161 281.93 273.187 281.797 273.238 281.672C273.289 281.547 273.364 281.434 273.459 281.338C273.56 281.232 273.684 281.149 273.821 281.096C273.958 281.042 274.105 281.02 274.252 281.03L278.063 281.173L276.102 278.012C275.996 277.84 275.938 277.642 275.937 277.439C275.941 277.149 276.06 276.872 276.267 276.668C276.473 276.465 276.749 276.35 277.038 276.349C277.226 276.35 277.41 276.405 277.567 276.506C277.725 276.607 277.851 276.752 277.931 276.922L279.803 280.325L281.675 276.944C281.763 276.765 281.897 276.613 282.064 276.505C282.23 276.396 282.423 276.335 282.622 276.327C282.763 276.326 282.903 276.355 283.032 276.412C283.161 276.469 283.277 276.553 283.371 276.657C283.573 276.867 283.684 277.148 283.68 277.439C283.679 277.629 283.63 277.814 283.537 277.979L281.543 281.173L285.409 281.03C285.556 281.02 285.703 281.042 285.84 281.096C285.977 281.149 286.1 281.232 286.202 281.338C286.39 281.533 286.493 281.794 286.488 282.065C286.487 282.338 286.385 282.601 286.202 282.803C286.098 282.906 285.974 282.985 285.837 283.037C285.7 283.088 285.554 283.109 285.409 283.1L281.521 282.979L283.448 286.118C283.557 286.293 283.614 286.496 283.614 286.702C283.609 286.992 283.491 287.269 283.283 287.473C283.083 287.678 282.81 287.796 282.523 287.803C282.336 287.8 282.154 287.742 281.999 287.636C281.844 287.531 281.724 287.382 281.653 287.208L279.803 283.904L277.975 287.208C277.895 287.38 277.77 287.527 277.613 287.632C277.455 287.737 277.272 287.796 277.082 287.803Z" fill="#263238"/>
<g style="mix-blend-mode:multiply">
<path d="M332.647 64.6768H137.682V76.8909H332.647V64.6768Z" fill="#0086CF"/>
</g>
<path d="M256.366 42.1758H213.963C213.198 42.1758 212.464 41.8718 211.923 41.3306C211.381 40.7895 211.077 40.0555 211.077 39.2902C211.077 38.5249 211.381 37.7909 211.923 37.2498C212.464 36.7086 213.198 36.4046 213.963 36.4046H256.366C257.131 36.4046 257.865 36.7086 258.406 37.2498C258.947 37.7909 259.251 38.5249 259.251 39.2902C259.251 40.0555 258.947 40.7895 258.406 41.3306C257.865 41.8718 257.131 42.1758 256.366 42.1758Z" fill="#0086CF" stroke="#263238" stroke-width="1.33739" stroke-linecap="round" stroke-linejoin="round"/>
<path d="M246.729 397.511C246.731 395.223 246.054 392.985 244.784 391.082C243.514 389.178 241.709 387.694 239.595 386.818C237.481 385.941 235.155 385.711 232.911 386.157C230.667 386.603 228.605 387.704 226.987 389.322C225.369 390.94 224.268 393.002 223.822 395.246C223.376 397.491 223.606 399.817 224.482 401.93C225.359 404.044 226.843 405.85 228.746 407.12C230.65 408.39 232.887 409.066 235.175 409.064C238.239 409.061 241.176 407.843 243.342 405.677C245.508 403.511 246.726 400.574 246.729 397.511Z" fill="#0086CF"/>
<path d="M241.035 391.651H229.316V403.37H241.035V391.651Z" fill="#0086CF" stroke="#263238" stroke-width="1.33739" stroke-linecap="round" stroke-linejoin="round"/>
<path d="M374.763 264.531C374.763 264.531 359.41 225.521 373.078 220.884C387.308 216.049 386.68 241.81 386.129 254.366C384.973 281.195 382.01 286.184 379.796 279.631L374.763 264.531ZM370.148 294.962C374.366 300.469 375.556 294.764 367.945 269.003C364.377 256.888 356.623 232.382 344.729 241.579C333.307 250.39 360.489 282.329 360.489 282.329L370.148 294.962ZM361.998 317.32C366.018 320.888 366.095 316.384 356.546 297.782C352.064 289.07 342.581 271.437 334.816 280.16C327.36 288.574 352.769 309.027 352.769 309.027L361.998 317.32ZM353.187 343.907C357.207 347.487 357.284 342.971 347.735 324.38C343.253 315.668 333.77 298.024 326.005 306.758C318.593 315.194 343.925 335.647 343.925 335.647L353.187 343.907ZM378.629 289.786C372.197 292.297 377.307 295.028 404.169 294.951C416.769 294.951 442.497 294.378 437.012 280.38C431.759 266.932 393.497 284.059 393.497 284.059L378.629 289.786ZM371.305 307.672C364.498 308.85 368.97 312.551 395.314 317.816C407.661 320.294 432.981 324.864 430.393 310.106C427.915 295.876 387.01 305.062 387.01 305.062L371.305 307.672ZM363.11 329.512C357.317 330.349 361.018 333.576 383.166 338.643C393.552 341.021 414.864 345.482 413.013 332.893C411.251 320.778 376.448 327.629 376.448 327.629L363.11 329.512ZM356.888 349.744C351.216 351.187 355.236 354.007 377.814 356.694C388.387 357.95 410.051 360.13 406.89 347.806C403.839 335.977 369.961 346.451 369.961 346.451L356.888 349.744ZM390.083 267.835C386.779 275.237 393.64 274.113 416.967 253.76C427.893 244.211 449.81 224.232 432.453 214.287C415.789 204.727 397.87 250.852 397.87 250.852L390.083 267.835ZM357.747 376.1C354.255 378.138 357.681 378.931 373.695 375.737C381.206 374.25 396.482 370.946 391.316 364.426C386.316 358.148 365.831 371.364 365.831 371.364L357.747 376.1Z" fill="#0086CF"/>
<path opacity="0.3" d="M374.763 264.531C374.763 264.531 359.41 225.521 373.078 220.884C387.308 216.049 386.68 241.81 386.129 254.366C384.973 281.195 382.01 286.184 379.796 279.631L374.763 264.531ZM370.148 294.962C374.366 300.469 375.556 294.764 367.945 269.003C364.377 256.888 356.623 232.382 344.729 241.579C333.307 250.39 360.489 282.329 360.489 282.329L370.148 294.962ZM361.998 317.32C366.018 320.888 366.095 316.384 356.546 297.782C352.064 289.07 342.581 271.437 334.816 280.16C327.36 288.574 352.769 309.027 352.769 309.027L361.998 317.32ZM353.187 343.907C357.207 347.487 357.284 342.971 347.735 324.38C343.253 315.668 333.77 298.024 326.005 306.758C318.593 315.194 343.925 335.647 343.925 335.647L353.187 343.907ZM378.629 289.786C372.197 292.297 377.307 295.028 404.169 294.951C416.769 294.951 442.497 294.378 437.012 280.38C431.759 266.932 393.497 284.059 393.497 284.059L378.629 289.786ZM371.305 307.672C364.498 308.85 368.97 312.551 395.314 317.816C407.661 320.294 432.981 324.864 430.393 310.106C427.915 295.876 387.01 305.062 387.01 305.062L371.305 307.672ZM363.11 329.512C357.317 330.349 361.018 333.576 383.166 338.643C393.552 341.021 414.864 345.482 413.013 332.893C411.251 320.778 376.448 327.629 376.448 327.629L363.11 329.512ZM356.888 349.744C351.216 351.187 355.236 354.007 377.814 356.694C388.387 357.95 410.051 360.13 406.89 347.806C403.839 335.977 369.961 346.451 369.961 346.451L356.888 349.744ZM390.083 267.835C386.779 275.237 393.64 274.113 416.967 253.76C427.893 244.211 449.81 224.232 432.453 214.287C415.789 204.727 397.87 250.852 397.87 250.852L390.083 267.835ZM357.747 376.1C354.255 378.138 357.681 378.931 373.695 375.737C381.206 374.25 396.482 370.946 391.316 364.426C386.316 358.148 365.831 371.364 365.831 371.364L357.747 376.1Z" fill="white"/>
<path d="M381.536 282.693L378.86 238.164L381.536 282.693ZM373.067 297.385L356.15 259.09L373.067 297.385ZM416.725 286.25L376.184 292.065L416.725 286.25ZM364.3 318.025L342.35 289.863L364.3 318.025ZM368.155 309.39L398.398 310.91L368.155 309.39ZM360.996 330.988L384.125 333.279L360.996 330.988ZM355.412 344.711L343.925 327.43L355.412 344.711ZM354.09 350.813L381.283 351.066L354.09 350.813ZM348.583 401.828C348.766 401.814 348.935 401.728 349.054 401.59C349.174 401.452 349.234 401.272 349.222 401.09C347.493 375.12 357.537 332.585 373.651 297.671C383.948 275.358 424.314 231.501 424.743 231.061C424.873 230.931 424.946 230.754 424.946 230.57C424.946 230.387 424.873 230.21 424.743 230.08C424.68 230.016 424.604 229.966 424.521 229.931C424.438 229.896 424.349 229.879 424.258 229.879C424.168 229.879 424.079 229.896 423.996 229.931C423.913 229.966 423.837 230.016 423.774 230.08C423.366 230.521 382.836 274.543 372.45 297.055C356.04 332.816 346.127 374.58 347.889 401.178C347.903 401.354 347.982 401.517 348.11 401.638C348.239 401.758 348.407 401.826 348.583 401.828ZM381.525 283.376C381.707 283.364 381.878 283.282 381.999 283.146C382.121 283.01 382.184 282.831 382.175 282.649L379.543 238.098C379.539 238.008 379.516 237.919 379.477 237.837C379.438 237.755 379.384 237.681 379.316 237.621C379.248 237.56 379.169 237.514 379.083 237.484C378.997 237.455 378.907 237.443 378.816 237.449C378.634 237.46 378.463 237.543 378.342 237.679C378.22 237.815 378.157 237.993 378.166 238.175L380.842 282.704C380.851 282.879 380.927 283.044 381.054 283.165C381.181 283.286 381.35 283.354 381.525 283.354V283.376ZM373.309 298.013C373.474 297.938 373.603 297.802 373.669 297.633C373.735 297.464 373.732 297.276 373.662 297.11L356.733 258.815C356.66 258.649 356.524 258.518 356.355 258.452C356.186 258.386 355.997 258.39 355.83 258.463C355.664 258.536 355.533 258.672 355.467 258.841C355.401 259.011 355.405 259.199 355.478 259.366L372.395 297.66C372.448 297.783 372.536 297.888 372.647 297.962C372.758 298.037 372.889 298.077 373.023 298.079C373.137 298.085 373.25 298.062 373.353 298.013H373.309ZM376.239 292.726L416.758 286.933C416.856 286.931 416.952 286.908 417.041 286.866C417.129 286.825 417.208 286.764 417.271 286.69C417.335 286.616 417.382 286.529 417.41 286.435C417.437 286.341 417.444 286.242 417.431 286.145C417.418 286.048 417.384 285.955 417.332 285.872C417.281 285.789 417.212 285.718 417.131 285.663C417.049 285.609 416.957 285.572 416.861 285.556C416.765 285.539 416.666 285.543 416.571 285.567L376.052 291.361C375.87 291.372 375.701 291.455 375.582 291.592C375.462 291.728 375.401 291.906 375.413 292.087C375.424 292.269 375.508 292.438 375.644 292.557C375.78 292.677 375.959 292.738 376.14 292.726H376.239ZM364.685 318.575C364.829 318.462 364.923 318.297 364.945 318.116C364.968 317.934 364.918 317.751 364.807 317.606L342.845 289.389C342.733 289.243 342.567 289.148 342.384 289.124C342.201 289.1 342.017 289.15 341.871 289.262C341.724 289.375 341.629 289.541 341.605 289.724C341.582 289.906 341.631 290.091 341.744 290.237L363.749 318.498C363.813 318.581 363.895 318.647 363.988 318.693C364.082 318.739 364.185 318.763 364.289 318.763C364.453 318.754 364.609 318.688 364.729 318.575H364.685ZM399.004 310.943C399.01 310.761 398.944 310.583 398.82 310.45C398.697 310.316 398.525 310.236 398.343 310.227L368.155 308.696C367.985 308.708 367.826 308.781 367.707 308.903C367.588 309.024 367.517 309.185 367.509 309.355C367.501 309.525 367.556 309.692 367.662 309.824C367.769 309.957 367.921 310.045 368.089 310.073L398.332 311.604C398.514 311.61 398.692 311.544 398.826 311.42C398.96 311.296 399.04 311.125 399.048 310.943H399.004ZM384.763 333.345C384.774 333.254 384.766 333.162 384.741 333.075C384.716 332.987 384.673 332.905 384.615 332.835C384.558 332.764 384.487 332.705 384.406 332.662C384.326 332.619 384.237 332.593 384.147 332.585L361.018 330.305C360.928 330.296 360.837 330.305 360.751 330.331C360.665 330.357 360.584 330.4 360.515 330.457C360.445 330.515 360.388 330.585 360.345 330.665C360.303 330.745 360.277 330.832 360.269 330.922C360.253 331.102 360.309 331.282 360.425 331.422C360.54 331.562 360.705 331.651 360.886 331.671L384.014 333.962H384.08C384.258 333.974 384.434 333.916 384.569 333.801C384.705 333.686 384.791 333.522 384.807 333.345H384.763ZM355.742 345.284C355.895 345.183 356.002 345.025 356.039 344.845C356.076 344.666 356.041 344.479 355.941 344.325L344.508 327.045C344.404 326.896 344.245 326.794 344.067 326.759C343.888 326.724 343.703 326.759 343.55 326.858C343.397 326.959 343.29 327.116 343.253 327.296C343.216 327.476 343.252 327.662 343.352 327.816L354.784 345.096C354.849 345.191 354.937 345.268 355.038 345.322C355.14 345.376 355.253 345.404 355.368 345.405C355.517 345.413 355.664 345.37 355.786 345.284H355.742ZM381.977 351.066C381.974 350.885 381.902 350.711 381.774 350.582C381.647 350.453 381.475 350.378 381.294 350.372L354.101 350.119C353.92 350.119 353.746 350.191 353.618 350.319C353.49 350.447 353.418 350.62 353.418 350.802C353.415 350.893 353.431 350.983 353.464 351.068C353.497 351.153 353.547 351.23 353.611 351.295C353.675 351.36 353.751 351.411 353.836 351.446C353.92 351.48 354.01 351.497 354.101 351.495L381.294 351.749C381.387 351.753 381.48 351.739 381.567 351.707C381.654 351.674 381.734 351.625 381.802 351.561C381.87 351.498 381.924 351.421 381.962 351.336C381.999 351.251 382.02 351.159 382.021 351.066H381.977ZM345.489 391.728C345.544 391.607 350.18 378.831 364.124 375.781C364.303 375.741 364.46 375.632 364.559 375.477C364.658 375.322 364.692 375.134 364.652 374.955C364.608 374.778 364.497 374.626 364.343 374.53C364.189 374.433 364.004 374.4 363.826 374.437C349.123 377.653 344.244 391.145 344.189 391.277C344.132 391.451 344.145 391.64 344.225 391.804C344.306 391.969 344.447 392.096 344.618 392.158H344.839C344.985 392.171 345.132 392.136 345.257 392.058C345.382 391.981 345.479 391.865 345.533 391.728H345.489ZM348.583 401.828C348.766 401.814 348.935 401.728 349.054 401.59C349.174 401.452 349.234 401.272 349.222 401.09C347.493 375.12 357.537 332.585 373.651 297.671C383.948 275.358 424.314 231.501 424.743 231.061C424.873 230.931 424.946 230.754 424.946 230.57C424.946 230.387 424.873 230.21 424.743 230.08C424.68 230.016 424.604 229.966 424.521 229.931C424.438 229.896 424.349 229.879 424.258 229.879C424.168 229.879 424.079 229.896 423.996 229.931C423.913 229.966 423.837 230.016 423.774 230.08C423.366 230.521 382.836 274.543 372.45 297.055C356.04 332.816 346.127 374.58 347.889 401.178C347.903 401.354 347.982 401.517 348.11 401.638C348.239 401.758 348.407 401.826 348.583 401.828ZM381.525 283.376C381.707 283.364 381.878 283.282 381.999 283.146C382.121 283.01 382.184 282.831 382.175 282.649L379.543 238.098C379.539 238.008 379.516 237.919 379.477 237.837C379.438 237.755 379.384 237.681 379.316 237.621C379.248 237.56 379.169 237.514 379.083 237.484C378.997 237.455 378.907 237.443 378.816 237.449C378.634 237.46 378.463 237.543 378.342 237.679C378.22 237.815 378.157 237.993 378.166 238.175L380.842 282.704C380.851 282.879 380.927 283.044 381.054 283.165C381.181 283.286 381.35 283.354 381.525 283.354V283.376ZM373.309 298.013C373.474 297.938 373.603 297.802 373.669 297.633C373.735 297.464 373.732 297.276 373.662 297.11L356.733 258.815C356.66 258.649 356.524 258.518 356.355 258.452C356.186 258.386 355.997 258.39 355.83 258.463C355.664 258.536 355.533 258.672 355.467 258.841C355.401 259.011 355.405 259.199 355.478 259.366L372.395 297.66C372.448 297.783 372.536 297.888 372.647 297.962C372.758 298.037 372.889 298.077 373.023 298.079C373.137 298.085 373.25 298.062 373.353 298.013H373.309ZM376.239 292.726L416.758 286.933C416.856 286.931 416.952 286.908 417.041 286.866C417.129 286.825 417.208 286.764 417.271 286.69C417.335 286.616 417.382 286.529 417.41 286.435C417.437 286.341 417.444 286.242 417.431 286.145C417.418 286.048 417.384 285.955 417.332 285.872C417.281 285.789 417.212 285.718 417.131 285.663C417.049 285.609 416.957 285.572 416.861 285.556C416.765 285.539 416.666 285.543 416.571 285.567L376.052 291.361C375.87 291.372 375.701 291.455 375.582 291.592C375.462 291.728 375.401 291.906 375.413 292.087C375.424 292.269 375.508 292.438 375.644 292.557C375.78 292.677 375.959 292.738 376.14 292.726H376.239ZM364.685 318.575C364.829 318.462 364.923 318.297 364.945 318.116C364.968 317.934 364.918 317.751 364.807 317.606L342.845 289.389C342.79 289.317 342.72 289.256 342.641 289.211C342.562 289.165 342.475 289.136 342.384 289.124C342.294 289.112 342.202 289.118 342.114 289.142C342.025 289.166 341.943 289.207 341.871 289.262C341.798 289.318 341.738 289.388 341.692 289.467C341.647 289.546 341.617 289.633 341.605 289.724C341.594 289.814 341.6 289.906 341.624 289.994C341.647 290.082 341.688 290.165 341.744 290.237L363.749 318.498C363.813 318.581 363.895 318.647 363.988 318.693C364.082 318.739 364.185 318.763 364.289 318.763C364.453 318.754 364.609 318.688 364.729 318.575H364.685ZM399.004 310.943C399.01 310.761 398.944 310.583 398.82 310.45C398.697 310.316 398.525 310.236 398.343 310.227L368.155 308.696C367.985 308.708 367.826 308.781 367.707 308.903C367.588 309.024 367.517 309.185 367.509 309.355C367.501 309.525 367.556 309.692 367.662 309.824C367.769 309.957 367.921 310.045 368.089 310.073L398.332 311.604C398.514 311.61 398.692 311.544 398.826 311.42C398.96 311.296 399.04 311.125 399.048 310.943H399.004ZM384.763 333.345C384.774 333.254 384.766 333.162 384.741 333.075C384.716 332.987 384.673 332.905 384.615 332.835C384.558 332.764 384.487 332.705 384.406 332.662C384.326 332.619 384.237 332.593 384.147 332.585L361.018 330.305C360.928 330.296 360.837 330.305 360.751 330.331C360.665 330.357 360.584 330.4 360.515 330.457C360.445 330.515 360.388 330.585 360.345 330.665C360.303 330.745 360.277 330.832 360.269 330.922C360.253 331.102 360.309 331.282 360.425 331.422C360.54 331.562 360.705 331.651 360.886 331.671L384.014 333.962H384.08C384.258 333.974 384.434 333.916 384.569 333.801C384.705 333.686 384.791 333.522 384.807 333.345H384.763ZM355.742 345.284C355.895 345.183 356.002 345.025 356.039 344.845C356.076 344.666 356.041 344.479 355.941 344.325L344.508 327.045C344.404 326.896 344.245 326.794 344.067 326.759C343.888 326.724 343.703 326.759 343.55 326.858C343.397 326.959 343.29 327.116 343.253 327.296C343.216 327.476 343.252 327.662 343.352 327.816L354.784 345.096C354.849 345.191 354.937 345.268 355.038 345.322C355.14 345.376 355.253 345.404 355.368 345.405C355.517 345.413 355.664 345.37 355.786 345.284H355.742ZM381.977 351.066C381.974 350.885 381.902 350.711 381.774 350.582C381.647 350.453 381.475 350.378 381.294 350.372L354.101 350.119C353.92 350.119 353.746 350.191 353.618 350.319C353.49 350.447 353.418 350.62 353.418 350.802C353.415 350.893 353.431 350.983 353.464 351.068C353.497 351.153 353.547 351.23 353.611 351.295C353.675 351.36 353.751 351.411 353.836 351.446C353.92 351.48 354.01 351.497 354.101 351.495L381.294 351.749C381.387 351.753 381.48 351.739 381.567 351.707C381.654 351.674 381.734 351.625 381.802 351.561C381.87 351.498 381.924 351.421 381.962 351.336C381.999 351.251 382.02 351.159 382.021 351.066H381.977ZM345.489 391.728C345.544 391.607 350.18 378.831 364.124 375.781C364.303 375.741 364.46 375.632 364.559 375.477C364.658 375.322 364.692 375.134 364.652 374.955C364.608 374.778 364.497 374.626 364.343 374.53C364.189 374.433 364.004 374.4 363.826 374.437C349.123 377.653 344.244 391.145 344.189 391.277C344.132 391.451 344.145 391.64 344.225 391.804C344.306 391.969 344.447 392.096 344.618 392.158H344.839C344.985 392.171 345.132 392.136 345.257 392.058C345.382 391.981 345.479 391.865 345.533 391.728H345.489Z" fill="#0086CF"/>
<path opacity="0.2" d="M381.536 282.693L378.86 238.164L381.536 282.693ZM373.067 297.385L356.15 259.09L373.067 297.385ZM416.725 286.25L376.184 292.065L416.725 286.25ZM364.3 318.025L342.35 289.863L364.3 318.025ZM368.155 309.39L398.398 310.91L368.155 309.39ZM360.996 330.988L384.125 333.279L360.996 330.988ZM355.412 344.711L343.925 327.43L355.412 344.711ZM354.09 350.813L381.283 351.066L354.09 350.813ZM348.583 401.828C348.766 401.814 348.935 401.728 349.054 401.59C349.174 401.452 349.234 401.272 349.222 401.09C347.493 375.12 357.537 332.585 373.651 297.671C383.948 275.358 424.314 231.501 424.743 231.061C424.873 230.931 424.946 230.754 424.946 230.57C424.946 230.387 424.873 230.21 424.743 230.08C424.68 230.016 424.604 229.966 424.521 229.931C424.438 229.896 424.349 229.879 424.258 229.879C424.168 229.879 424.079 229.896 423.996 229.931C423.913 229.966 423.837 230.016 423.774 230.08C423.366 230.521 382.836 274.543 372.45 297.055C356.04 332.816 346.127 374.58 347.889 401.178C347.903 401.354 347.982 401.517 348.11 401.638C348.239 401.758 348.407 401.826 348.583 401.828ZM381.525 283.376C381.707 283.364 381.878 283.282 381.999 283.146C382.121 283.01 382.184 282.831 382.175 282.649L379.543 238.098C379.539 238.008 379.516 237.919 379.477 237.837C379.438 237.755 379.384 237.681 379.316 237.621C379.248 237.56 379.169 237.514 379.083 237.484C378.997 237.455 378.907 237.443 378.816 237.449C378.634 237.46 378.463 237.543 378.342 237.679C378.22 237.815 378.157 237.993 378.166 238.175L380.842 282.704C380.851 282.879 380.927 283.044 381.054 283.165C381.181 283.286 381.35 283.354 381.525 283.354V283.376ZM373.309 298.013C373.474 297.938 373.603 297.802 373.669 297.633C373.735 297.464 373.732 297.276 373.662 297.11L356.733 258.815C356.66 258.649 356.524 258.518 356.355 258.452C356.186 258.386 355.997 258.39 355.83 258.463C355.664 258.536 355.533 258.672 355.467 258.841C355.401 259.011 355.405 259.199 355.478 259.366L372.395 297.66C372.448 297.783 372.536 297.888 372.647 297.962C372.758 298.037 372.889 298.077 373.023 298.079C373.137 298.085 373.25 298.062 373.353 298.013H373.309ZM376.239 292.726L416.758 286.933C416.856 286.931 416.952 286.908 417.041 286.866C417.129 286.825 417.208 286.764 417.271 286.69C417.335 286.616 417.382 286.529 417.41 286.435C417.437 286.341 417.444 286.242 417.431 286.145C417.418 286.048 417.384 285.955 417.332 285.872C417.281 285.789 417.212 285.718 417.131 285.663C417.049 285.609 416.957 285.572 416.861 285.556C416.765 285.539 416.666 285.543 416.571 285.567L376.052 291.361C375.87 291.372 375.701 291.455 375.582 291.592C375.462 291.728 375.401 291.906 375.413 292.087C375.424 292.269 375.508 292.438 375.644 292.557C375.78 292.677 375.959 292.738 376.14 292.726H376.239ZM364.685 318.575C364.829 318.462 364.923 318.297 364.945 318.116C364.968 317.934 364.918 317.751 364.807 317.606L342.845 289.389C342.733 289.243 342.567 289.148 342.384 289.124C342.201 289.1 342.017 289.15 341.871 289.262C341.724 289.375 341.629 289.541 341.605 289.724C341.582 289.906 341.631 290.091 341.744 290.237L363.749 318.498C363.813 318.581 363.895 318.647 363.988 318.693C364.082 318.739 364.185 318.763 364.289 318.763C364.453 318.754 364.609 318.688 364.729 318.575H364.685ZM399.004 310.943C399.01 310.761 398.944 310.583 398.82 310.45C398.697 310.316 398.525 310.236 398.343 310.227L368.155 308.696C367.985 308.708 367.826 308.781 367.707 308.903C367.588 309.024 367.517 309.185 367.509 309.355C367.501 309.525 367.556 309.692 367.662 309.824C367.769 309.957 367.921 310.045 368.089 310.073L398.332 311.604C398.514 311.61 398.692 311.544 398.826 311.42C398.96 311.296 399.04 311.125 399.048 310.943H399.004ZM384.763 333.345C384.774 333.254 384.766 333.162 384.741 333.075C384.716 332.987 384.673 332.905 384.615 332.835C384.558 332.764 384.487 332.705 384.406 332.662C384.326 332.619 384.237 332.593 384.147 332.585L361.018 330.305C360.928 330.296 360.837 330.305 360.751 330.331C360.665 330.357 360.584 330.4 360.515 330.457C360.445 330.515 360.388 330.585 360.345 330.665C360.303 330.745 360.277 330.832 360.269 330.922C360.253 331.102 360.309 331.282 360.425 331.422C360.54 331.562 360.705 331.651 360.886 331.671L384.014 333.962H384.08C384.258 333.974 384.434 333.916 384.569 333.801C384.705 333.686 384.791 333.522 384.807 333.345H384.763ZM355.742 345.284C355.895 345.183 356.002 345.025 356.039 344.845C356.076 344.666 356.041 344.479 355.941 344.325L344.508 327.045C344.404 326.896 344.245 326.794 344.067 326.759C343.888 326.724 343.703 326.759 343.55 326.858C343.397 326.959 343.29 327.116 343.253 327.296C343.216 327.476 343.252 327.662 343.352 327.816L354.784 345.096C354.849 345.191 354.937 345.268 355.038 345.322C355.14 345.376 355.253 345.404 355.368 345.405C355.517 345.413 355.664 345.37 355.786 345.284H355.742ZM381.977 351.066C381.974 350.885 381.902 350.711 381.774 350.582C381.647 350.453 381.475 350.378 381.294 350.372L354.101 350.119C353.92 350.119 353.746 350.191 353.618 350.319C353.49 350.447 353.418 350.62 353.418 350.802C353.415 350.893 353.431 350.983 353.464 351.068C353.497 351.153 353.547 351.23 353.611 351.295C353.675 351.36 353.751 351.411 353.836 351.446C353.92 351.48 354.01 351.497 354.101 351.495L381.294 351.749C381.387 351.753 381.48 351.739 381.567 351.707C381.654 351.674 381.734 351.625 381.802 351.561C381.87 351.498 381.924 351.421 381.962 351.336C381.999 351.251 382.02 351.159 382.021 351.066H381.977ZM345.489 391.728C345.544 391.607 350.18 378.831 364.124 375.781C364.303 375.741 364.46 375.632 364.559 375.477C364.658 375.322 364.692 375.134 364.652 374.955C364.608 374.778 364.497 374.626 364.343 374.53C364.189 374.433 364.004 374.4 363.826 374.437C349.123 377.653 344.244 391.145 344.189 391.277C344.132 391.451 344.145 391.64 344.225 391.804C344.306 391.969 344.447 392.096 344.618 392.158H344.839C344.985 392.171 345.132 392.136 345.257 392.058C345.382 391.981 345.479 391.865 345.533 391.728H345.489ZM348.583 401.828C348.766 401.814 348.935 401.728 349.054 401.59C349.174 401.452 349.234 401.272 349.222 401.09C347.493 375.12 357.537 332.585 373.651 297.671C383.948 275.358 424.314 231.501 424.743 231.061C424.873 230.931 424.946 230.754 424.946 230.57C424.946 230.387 424.873 230.21 424.743 230.08C424.68 230.016 424.604 229.966 424.521 229.931C424.438 229.896 424.349 229.879 424.258 229.879C424.168 229.879 424.079 229.896 423.996 229.931C423.913 229.966 423.837 230.016 423.774 230.08C423.366 230.521 382.836 274.543 372.45 297.055C356.04 332.816 346.127 374.58 347.889 401.178C347.903 401.354 347.982 401.517 348.11 401.638C348.239 401.758 348.407 401.826 348.583 401.828ZM381.525 283.376C381.707 283.364 381.878 283.282 381.999 283.146C382.121 283.01 382.184 282.831 382.175 282.649L379.543 238.098C379.539 238.008 379.516 237.919 379.477 237.837C379.438 237.755 379.384 237.681 379.316 237.621C379.248 237.56 379.169 237.514 379.083 237.484C378.997 237.455 378.907 237.443 378.816 237.449C378.634 237.46 378.463 237.543 378.342 237.679C378.22 237.815 378.157 237.993 378.166 238.175L380.842 282.704C380.851 282.879 380.927 283.044 381.054 283.165C381.181 283.286 381.35 283.354 381.525 283.354V283.376ZM373.309 298.013C373.474 297.938 373.603 297.802 373.669 297.633C373.735 297.464 373.732 297.276 373.662 297.11L356.733 258.815C356.66 258.649 356.524 258.518 356.355 258.452C356.186 258.386 355.997 258.39 355.83 258.463C355.664 258.536 355.533 258.672 355.467 258.841C355.401 259.011 355.405 259.199 355.478 259.366L372.395 297.66C372.448 297.783 372.536 297.888 372.647 297.962C372.758 298.037 372.889 298.077 373.023 298.079C373.137 298.085 373.25 298.062 373.353 298.013H373.309ZM376.239 292.726L416.758 286.933C416.856 286.931 416.952 286.908 417.041 286.866C417.129 286.825 417.208 286.764 417.271 286.69C417.335 286.616 417.382 286.529 417.41 286.435C417.437 286.341 417.444 286.242 417.431 286.145C417.418 286.048 417.384 285.955 417.332 285.872C417.281 285.789 417.212 285.718 417.131 285.663C417.049 285.609 416.957 285.572 416.861 285.556C416.765 285.539 416.666 285.543 416.571 285.567L376.052 291.361C375.87 291.372 375.701 291.455 375.582 291.592C375.462 291.728 375.401 291.906 375.413 292.087C375.424 292.269 375.508 292.438 375.644 292.557C375.78 292.677 375.959 292.738 376.14 292.726H376.239ZM364.685 318.575C364.829 318.462 364.923 318.297 364.945 318.116C364.968 317.934 364.918 317.751 364.807 317.606L342.845 289.389C342.79 289.317 342.72 289.256 342.641 289.211C342.562 289.165 342.475 289.136 342.384 289.124C342.294 289.112 342.202 289.118 342.114 289.142C342.025 289.166 341.943 289.207 341.871 289.262C341.798 289.318 341.738 289.388 341.692 289.467C341.647 289.546 341.617 289.633 341.605 289.724C341.594 289.814 341.6 289.906 341.624 289.994C341.647 290.082 341.688 290.165 341.744 290.237L363.749 318.498C363.813 318.581 363.895 318.647 363.988 318.693C364.082 318.739 364.185 318.763 364.289 318.763C364.453 318.754 364.609 318.688 364.729 318.575H364.685ZM399.004 310.943C399.01 310.761 398.944 310.583 398.82 310.45C398.697 310.316 398.525 310.236 398.343 310.227L368.155 308.696C367.985 308.708 367.826 308.781 367.707 308.903C367.588 309.024 367.517 309.185 367.509 309.355C367.501 309.525 367.556 309.692 367.662 309.824C367.769 309.957 367.921 310.045 368.089 310.073L398.332 311.604C398.514 311.61 398.692 311.544 398.826 311.42C398.96 311.296 399.04 311.125 399.048 310.943H399.004ZM384.763 333.345C384.774 333.254 384.766 333.162 384.741 333.075C384.716 332.987 384.673 332.905 384.615 332.835C384.558 332.764 384.487 332.705 384.406 332.662C384.326 332.619 384.237 332.593 384.147 332.585L361.018 330.305C360.928 330.296 360.837 330.305 360.751 330.331C360.665 330.357 360.584 330.4 360.515 330.457C360.445 330.515 360.388 330.585 360.345 330.665C360.303 330.745 360.277 330.832 360.269 330.922C360.253 331.102 360.309 331.282 360.425 331.422C360.54 331.562 360.705 331.651 360.886 331.671L384.014 333.962H384.08C384.258 333.974 384.434 333.916 384.569 333.801C384.705 333.686 384.791 333.522 384.807 333.345H384.763ZM355.742 345.284C355.895 345.183 356.002 345.025 356.039 344.845C356.076 344.666 356.041 344.479 355.941 344.325L344.508 327.045C344.404 326.896 344.245 326.794 344.067 326.759C343.888 326.724 343.703 326.759 343.55 326.858C343.397 326.959 343.29 327.116 343.253 327.296C343.216 327.476 343.252 327.662 343.352 327.816L354.784 345.096C354.849 345.191 354.937 345.268 355.038 345.322C355.14 345.376 355.253 345.404 355.368 345.405C355.517 345.413 355.664 345.37 355.786 345.284H355.742ZM381.977 351.066C381.974 350.885 381.902 350.711 381.774 350.582C381.647 350.453 381.475 350.378 381.294 350.372L354.101 350.119C353.92 350.119 353.746 350.191 353.618 350.319C353.49 350.447 353.418 350.62 353.418 350.802C353.415 350.893 353.431 350.983 353.464 351.068C353.497 351.153 353.547 351.23 353.611 351.295C353.675 351.36 353.751 351.411 353.836 351.446C353.92 351.48 354.01 351.497 354.101 351.495L381.294 351.749C381.387 351.753 381.48 351.739 381.567 351.707C381.654 351.674 381.734 351.625 381.802 351.561C381.87 351.498 381.924 351.421 381.962 351.336C381.999 351.251 382.02 351.159 382.021 351.066H381.977ZM345.489 391.728C345.544 391.607 350.18 378.831 364.124 375.781C364.303 375.741 364.46 375.632 364.559 375.477C364.658 375.322 364.692 375.134 364.652 374.955C364.608 374.778 364.497 374.626 364.343 374.53C364.189 374.433 364.004 374.4 363.826 374.437C349.123 377.653 344.244 391.145 344.189 391.277C344.132 391.451 344.145 391.64 344.225 391.804C344.306 391.969 344.447 392.096 344.618 392.158H344.839C344.985 392.171 345.132 392.136 345.257 392.058C345.382 391.981 345.479 391.865 345.533 391.728H345.489Z" fill="black"/>
<path d="M366.569 382.411H335.389V388.865H338.109L343.737 424.076H358.22L363.848 388.865H366.569V382.411Z" fill="#0086CF"/>
<path opacity="0.3" d="M366.569 382.411H335.389V388.865H338.109L343.737 424.076H358.22L363.848 388.865H366.569V382.411Z" fill="white"/>
<path d="M85.8516 187.248L49.5835 175.409L46.3565 166.884L38.9883 166.653L25.6177 164.119L27.2257 166.884L44.0546 179.098L48.2068 181.169L86.1379 200.982L85.8516 187.248Z" fill="white" stroke="#263238" stroke-width="1.00396" stroke-miterlimit="10"/>
<path d="M46.3564 166.884L42.8981 164.813L35.9926 167.346L37.138 168.723L46.3564 166.884Z" fill="white" stroke="#263238" stroke-width="1.00396" stroke-linejoin="round"/>
<path d="M85.8516 187.248L49.5835 175.409L46.3565 166.884L38.9883 166.653L25.6177 164.119L27.2257 166.884L44.0546 179.098L48.2068 181.169L86.1379 200.982L85.8516 187.248Z" fill="white"/>
<path opacity="0.5" d="M85.8516 187.248L49.5835 175.409L46.3565 166.884L38.9883 166.653L25.6177 164.119L27.2257 166.884L44.0546 179.098L48.2068 181.169L86.1379 200.982L85.8516 187.248Z" fill="#0086CF" stroke="#263238" stroke-width="1.00396" stroke-miterlimit="10"/>
<path d="M85.8516 187.248L49.5835 175.409L46.3565 166.884L38.9883 166.653L25.6177 164.119L27.2257 166.884L44.0546 179.098L48.2068 181.169L86.1379 200.982L85.8516 187.248Z" stroke="#263238" stroke-width="1.00396" stroke-miterlimit="10"/>
<path d="M46.3564 166.884L42.8981 164.813L35.9926 167.346L37.138 168.723L46.3564 166.884Z" fill="white"/>
<path opacity="0.5" d="M46.3564 166.884L42.8981 164.813L35.9926 167.346L37.138 168.723L46.3564 166.884Z" fill="#0086CF" stroke="#263238" stroke-width="1.00396" stroke-linejoin="round"/>
<path d="M46.3564 166.884L42.8981 164.813L35.9926 167.346L37.138 168.723L46.3564 166.884Z" stroke="#263238" stroke-width="1.00396" stroke-linejoin="round"/>
<path d="M93.5501 110.406C93.5501 110.406 92.9884 115.362 94.3872 118.545C95.7859 121.728 103.551 132.51 103.551 132.51L89.0565 144.13C89.0565 144.13 83.0431 132.014 81.8976 130.054C80.7522 128.094 79.3755 119.657 83.1091 113.611C86.8428 107.564 92.2175 105.934 93.5501 110.406Z" fill="white"/>
<g style="mix-blend-mode:multiply" opacity="0.5">
<path d="M86.1048 126.331L92.3937 139.372L89.0455 144.141L82.7236 132.852L86.1048 126.331Z" fill="#0086CF"/>
</g>
<path d="M93.5501 110.406C93.5501 110.406 92.9884 115.362 94.3872 118.545C95.7859 121.728 103.551 132.51 103.551 132.51L89.0565 144.13C89.0565 144.13 83.0431 132.014 81.8976 130.054C80.7522 128.094 79.3755 119.657 83.1091 113.611C86.8428 107.564 92.2175 105.934 93.5501 110.406Z" stroke="#263238" stroke-width="1.00396" stroke-miterlimit="10"/>
<path d="M98.0438 101.33C97.1517 95.8235 90.8408 84.6226 80.8294 85.0521C74.3313 85.3385 71.2915 86.6491 68.472 88.2461C66.1737 89.6002 64.0315 91.2031 62.0841 93.026C57.194 98.8963 55.4758 100.504 56.423 104.998C56.3453 106.79 56.6261 108.58 57.249 110.262C58.7469 114.26 59.7712 116.871 61.0708 118.776C60.6743 120.637 59.639 125.549 59.584 126.673C59.5289 127.796 62.8881 127.014 64.5842 126.585C67.7341 133.634 73.5053 138.524 75.3005 139.085C78.4284 140.066 83.3735 134.922 85.9948 130.935C88.6161 126.948 86.6336 122.466 86.6446 120.681C86.6556 118.897 92.5369 114.976 94.7176 113.732C96.8983 112.487 98.9249 106.826 98.0438 101.33Z" fill="white"/>
<g style="mix-blend-mode:multiply" opacity="0.5">
<path d="M56.467 104.998C56.3893 106.79 56.6701 108.58 57.293 110.262C58.7909 114.26 59.8151 116.871 61.1148 118.776C60.7183 120.637 59.683 125.549 59.6279 126.673C59.5728 127.796 62.932 127.014 64.6281 126.585C67.778 133.634 73.5492 138.524 75.3444 139.085C78.4723 140.066 83.4175 134.922 86.0387 130.935C86.6936 129.94 87.1188 128.811 87.2833 127.631C87.1401 127.113 87.041 126.794 87.041 126.794C87.041 126.794 85.5652 132.466 82.6355 131.728C79.7059 130.99 75.2233 125.12 72.7232 123.093C70.2231 121.067 71.2474 118.402 70.7517 115.384C70.2561 112.366 62.8549 109.712 62.3593 107.983C61.8637 106.253 63.5928 99.0946 63.5928 99.0946C63.5928 99.0946 66.4013 95.3499 65.7956 96.8918C65.3674 98.2288 65.2121 99.6382 65.3389 101.036C65.4656 102.434 65.8719 103.793 66.5335 105.031C66.9978 106.008 67.7342 106.83 68.6545 107.399C69.5747 107.967 70.6395 108.258 71.7209 108.236L74.4083 94.9204L68.7362 90.2286L62.128 92.982C57.1939 98.8963 55.5088 100.504 56.467 104.998Z" fill="#0086CF"/>
</g>
<path d="M98.0438 101.33C97.1517 95.8235 90.8408 84.6226 80.8294 85.0521C74.3313 85.3385 71.2915 86.6491 68.472 88.2461C66.1737 89.6002 64.0315 91.2031 62.0841 93.026C57.194 98.8963 55.4758 100.504 56.423 104.998C56.3453 106.79 56.6261 108.58 57.249 110.262C58.7469 114.26 59.7712 116.871 61.0708 118.776C60.6743 120.637 59.639 125.549 59.584 126.673C59.5289 127.796 62.8881 127.014 64.5842 126.585C67.7341 133.634 73.5053 138.524 75.3005 139.085C78.4284 140.066 83.3735 134.922 85.9948 130.935C88.6161 126.948 86.6336 122.466 86.6446 120.681C86.6556 118.897 92.5369 114.976 94.7176 113.732C96.8984 112.487 98.9249 106.826 98.0438 101.33Z" stroke="#263238" stroke-miterlimit="10"/>
<path d="M62.4365 115.45L63.5379 118.6C63.5379 118.6 65.9058 119.382 68.7914 116.232" stroke="#263238" stroke-miterlimit="10" stroke-linecap="round"/>
<path d="M70.5756 130.164C70.5756 130.164 73.1968 129.9 74.2541 126.221" stroke="#263238" stroke-miterlimit="10" stroke-linecap="round"/>
<path d="M60.5972 112.818C60.5972 112.818 61.3791 110.45 66.104 110.45" stroke="#263238" stroke-miterlimit="10" stroke-linecap="round"/>
<path d="M84.8163 80.6687C81.3831 80.175 77.9208 79.9101 74.4524 79.8757C74.4524 79.8757 64.0775 73.8953 54.1101 80.2722C44.1427 86.6491 48.9337 97.817 48.9337 100.603C48.9337 103.39 45.7397 103.401 47.7332 106.991C49.7267 110.582 56.4671 108.599 56.4671 108.599C56.5383 107.245 56.8962 105.922 57.517 104.716C58.1378 103.51 59.0075 102.45 60.0685 101.606C63.659 98.8193 66.5226 98.2135 67.712 99.0175C67.712 99.0175 66.9191 104.998 68.1085 107.388C68.1085 107.388 72.0955 109.381 73.296 109.381C74.4965 109.381 72.514 111.066 76.49 112.564C77.2143 112.825 77.9891 112.913 78.7535 112.823C79.5179 112.734 80.2511 112.468 80.8954 112.047C81.4792 109.624 82.7567 105.978 85.1357 106.826C88.627 108.071 91.81 116.661 87.0851 119.591C92.7682 120.626 99.6518 110.571 100.059 101.407C100.467 92.2441 90.7197 81.704 84.8163 80.6687Z" fill="#263238"/>
<path d="M67.8883 95.0855C67.8883 95.0855 70.8179 93.5105 74.4084 96.8807C77.9989 100.251 84.9816 104.755 94.2331 102.277" stroke="white" stroke-width="0.5" stroke-linecap="round" stroke-linejoin="round"/>
<path d="M67.4807 92.3872C67.4807 92.3872 69.4962 89.2372 72.8664 89.2372C76.2366 89.2372 84.1114 93.9621 90.4002 93.9621" stroke="white" stroke-width="0.5" stroke-linecap="round" stroke-linejoin="round"/>
<path d="M65.1898 98.4557C65.1898 98.4557 61.3681 93.7419 57.7776 97.5636C54.1872 101.385 56.467 104.998 56.467 104.998" stroke="white" stroke-width="0.5" stroke-linecap="round" stroke-linejoin="round"/>
<path d="M49.9139 101.606C52.104 99.6307 53.4654 96.8999 53.7247 93.9622C54.1762 89.0171 60.9276 84.7438 65.1899 88.7968" stroke="white" stroke-width="0.5" stroke-linecap="round" stroke-linejoin="round"/>
<path d="M56.8745 83.6204C56.8745 83.6204 63.6259 77.1003 69.2429 85.4156" stroke="white" stroke-width="0.5" stroke-linecap="round" stroke-linejoin="round"/>
<path d="M111.822 404.196C111.822 404.196 115.974 410.65 115.511 414.802L115.06 418.954C115.06 418.954 99.8279 423.129 96.6009 423.129C93.3739 423.129 76.2916 421.509 76.2916 421.509L75.5537 418.58C75.5021 418.363 75.5264 418.136 75.6227 417.935C75.7189 417.735 75.8812 417.574 76.0824 417.478L91.3143 410.375L96.1163 405.121L111.822 404.196Z" fill="white" stroke="#263238" stroke-width="1.00396" stroke-miterlimit="10"/>
<path d="M98.9138 419.88C103.044 420.199 110.886 417.677 115.434 416.069L115.115 418.954C115.115 418.954 99.828 423.129 96.601 423.129C93.374 423.129 76.2917 421.51 76.2917 421.51L75.7631 419.417C78.4945 419.428 93.4511 419.461 98.9138 419.88Z" fill="#0086CF" stroke="#263238" stroke-width="1.00396" stroke-miterlimit="10"/>
<path d="M91.3364 410.375L69.1658 420.023C69.1658 420.023 67.2714 424.77 69.1658 425.717C71.0601 426.664 112.362 425.717 112.362 425.717C112.362 425.717 115.214 418.217 110.709 413.183C106.205 408.15 91.3364 410.375 91.3364 410.375Z" fill="white" stroke="#263238" stroke-width="1.00396" stroke-miterlimit="10"/>
<path d="M112.362 425.717C112.362 425.717 71.0602 426.664 69.1658 425.717C68.2517 425.254 68.2186 423.921 68.4279 422.655H113.088C112.942 423.696 112.699 424.721 112.362 425.717Z" fill="#0086CF" stroke="#263238" stroke-width="1.00396" stroke-miterlimit="10"/>
<path d="M80.8514 242.735C80.8514 242.735 75.0582 268.408 72.8665 284.466C70.6747 300.524 69.3861 332.695 69.8487 336.385C70.3113 340.074 93.374 401.894 93.374 401.894L95.6758 407.401L111.822 404.174C111.822 404.174 104.443 380.649 101.678 367.73C98.9139 354.811 92.8673 333.587 92.8673 329.898C92.8673 326.208 107.185 255.742 108.209 251.117C109.234 246.491 113.881 239.387 113.881 239.387L82.966 238.759L80.8514 242.735Z" fill="#0086CF" stroke="#263238" stroke-width="1.00396" stroke-miterlimit="10"/>
<path d="M80.8513 242.735C80.8513 242.735 77.4591 266.183 78.8578 282.484C80.2566 298.784 83.2633 333.488 83.2633 338.653C83.2633 343.819 91.6007 374.668 92.0743 384.36C92.8122 398.359 91.7769 405.286 91.7769 405.286L91.2813 410.364C91.2813 410.364 101.006 411.751 103.132 412.357C105.587 412.99 108.121 413.264 110.654 413.172C110.654 413.172 114.19 397.61 114.19 384.349C114.19 371.089 111.249 343.797 109.784 332.739C108.319 321.681 112.934 279.025 115.555 271.062C118.177 263.099 123.904 246.237 120.049 237.625C116.194 229.012 80.8513 242.735 80.8513 242.735Z" fill="#0086CF" stroke="#263238" stroke-width="1.00396" stroke-miterlimit="10"/>
<path d="M124.333 233.307L123.981 243.793C123.981 243.793 117.703 245.037 109.245 246.502C102.262 247.713 84.7281 246.183 78.8248 245.61C78.2868 245.562 77.7894 245.304 77.4409 244.891C77.0923 244.479 76.9207 243.945 76.9635 243.407L77.5362 233.935L124.333 233.307Z" fill="#263238"/>
<path d="M99.7949 128.787C99.7949 128.787 89.8826 139.504 86.1489 146.167C82.4153 152.83 80.9395 163.04 79.5407 171.08C78.142 179.12 81.9307 197.997 80.8624 206.665L77.4812 233.968C77.4812 233.968 76.7543 235.818 79.1883 237.845C81.6223 239.872 93.5061 240.609 104.244 241.149C108.165 241.347 119.873 238.825 121.789 238.704C124.102 238.561 124.179 235.62 124.278 233.307C124.741 222.437 126.701 193.46 127.99 180.838C130.644 155.099 116.117 130.252 99.7949 128.787Z" fill="white" stroke="#263238" stroke-width="1.00396" stroke-miterlimit="10"/>
<g style="mix-blend-mode:multiply">
<path d="M126.778 195.475C127.219 189.759 127.66 184.572 128.045 180.838C128.155 179.737 128.221 178.635 128.276 177.534L101.943 181.94L79.3204 174.23C79.3229 178.911 79.5876 183.588 80.1134 188.239L102.306 194.451L126.778 195.475Z" fill="#0086CF"/>
</g>
<g style="mix-blend-mode:multiply">
<path d="M98.8148 129.867C97.3169 131.53 94.3432 134.911 91.5127 138.502L108.231 155.496L113.738 153.293L98.8148 129.867Z" fill="#0086CF"/>
</g>
<path d="M99.795 128.787C99.795 128.787 89.8826 139.504 86.149 146.167C85.0419 148.192 84.1451 150.325 83.4727 152.533L103.407 129.503C102.23 129.147 101.02 128.907 99.795 128.787Z" fill="#263238"/>
<g style="mix-blend-mode:multiply">
<path d="M80.3116 166.741L101.943 173.855L128.21 170.838C127.799 164.294 126.345 157.858 123.904 151.773L102.725 160.265L83.792 151.685C82.2439 156.606 81.0803 161.639 80.3116 166.741Z" fill="#0086CF"/>
</g>
<g style="mix-blend-mode:multiply">
<path d="M117.549 222.437C106.578 224.279 95.3208 223.359 84.7943 219.761L79.5187 217.954L77.8777 231.171L83.8912 232.856C95.3231 236.052 107.271 236.973 119.058 235.565L123.915 234.982C124.168 234.446 124.31 233.866 124.333 233.274C124.466 230.334 124.697 226.06 124.994 221.159L117.549 222.437Z" fill="#0086CF"/>
</g>
<g style="mix-blend-mode:multiply">
<path d="M120.49 204.441C109.518 206.29 98.2583 205.366 87.735 201.753L81.0166 199.451C81.1832 201.851 81.1501 204.26 80.9175 206.654L80.1355 213.009L86.8318 214.882C98.2593 218.081 110.204 219.005 121.988 217.602L125.292 217.205C125.567 212.8 125.886 208.108 126.228 203.471L120.49 204.441Z" fill="#0086CF"/>
</g>
<path d="M17.1605 157.866L38.4559 174.988L39.3738 173.846L18.0784 156.724L17.1605 157.866Z" fill="#263238"/>
<path d="M110.049 140.671C110.049 140.671 117.857 145.991 118.034 158.558C118.111 164.064 117.538 169.208 116.271 178.228C115.005 187.248 107.141 216.622 101.017 220.19C94.8938 223.759 85.3889 217.018 85.3889 217.018L39.4178 186.499L28.3049 177.523L22.7981 167.126L24.5272 163.822L38.0851 174.219L30.783 167.468L32.2148 165.65L34.8581 167.49L42.5677 170.375L44.2528 181.389L46.6317 183.019L90.6094 199.088C90.6094 199.088 90.0587 175.42 90.4663 170.893C90.8738 166.366 91.4354 154.989 96.2815 146.74" fill="white"/>
<g style="mix-blend-mode:multiply" opacity="0.5">
<path d="M90.3011 181.202C90.3011 189.374 90.5764 199.088 90.5764 199.088L46.6428 183.085L44.2638 181.455L42.5787 170.441L34.8691 167.556L32.2369 165.683L30.8051 167.501L38.0851 174.219L24.5273 163.822L22.8862 167.071L28.3931 177.468L39.5059 186.499L42.3034 188.361L103.044 207.932L90.3011 181.202Z" fill="#0086CF"/>
</g>
<path d="M110.049 140.671C110.049 140.671 117.857 145.991 118.034 158.558C118.111 164.064 117.538 169.208 116.271 178.228C115.005 187.248 107.141 216.622 101.017 220.19C94.8938 223.759 85.3889 217.018 85.3889 217.018L39.4178 186.499L28.3049 177.523L22.7981 167.126L24.5272 163.822L38.0851 174.219L30.783 167.468L32.2148 165.65L34.8581 167.49L42.5677 170.375L44.2528 181.389L46.6317 183.019L90.6094 199.088C90.6094 199.088 90.0587 175.42 90.4663 170.893C90.8738 166.366 91.4355 154.989 96.2815 146.74" stroke="#263238" stroke-width="1.00396" stroke-miterlimit="10"/>
<path d="M90.6095 199.088L107.394 211.203L111.745 203.493C111.745 203.493 114.752 201.126 115.192 199.341C115.633 197.557 115.071 194.66 115.522 192.876C115.974 191.092 118.221 189.418 118.43 185.101C118.639 180.783 118.43 177.182 118.43 177.182C118.43 177.182 122.065 162.236 121.668 155.738C121.272 149.24 115.005 137.753 109.983 137.499C104.96 137.246 98.4292 138.006 93.3629 145.672C88.2966 153.337 89.3319 175.717 88.5389 177.116C87.746 178.514 88.8473 185.42 88.8473 185.42C88.4072 185.748 88.042 186.167 87.7761 186.647C87.5102 187.128 87.3498 187.659 87.3054 188.206C87.2173 190.002 89.1557 194.418 89.1557 194.418L90.6095 199.088Z" fill="white" stroke="#263238" stroke-width="1.00396" stroke-miterlimit="10"/>
<g style="mix-blend-mode:multiply">
<path d="M88.9794 171.366C89.014 173.288 88.8702 175.209 88.5499 177.105C87.845 178.36 88.649 184.032 88.8252 185.189C98.2659 188.121 108.249 188.874 118.023 187.391C118.233 186.625 118.358 185.839 118.397 185.045C118.617 180.739 118.397 177.127 118.397 177.127C118.397 177.127 118.716 175.794 119.157 173.767C109.035 174.411 98.8725 173.602 88.9794 171.366Z" fill="#0086CF"/>
</g>
<g style="mix-blend-mode:multiply">
<path d="M92.6801 146.894C91.1051 150.055 90.224 154.802 89.7174 159.615C99.7158 163.431 110.496 164.743 121.117 163.437C121.541 160.889 121.729 158.309 121.679 155.727C121.488 153.686 121.006 151.683 120.247 149.78C110.973 149.996 101.709 149.026 92.6801 146.894Z" fill="#0086CF"/>
</g>
<path d="M89.1556 194.539L90.5764 199.088L107.361 211.203L111.712 203.493C111.712 203.493 114.718 201.125 115.159 199.341C115.238 199.031 115.286 198.714 115.302 198.394C106.457 198.241 97.6686 196.946 89.1556 194.539Z" fill="#263238"/>
<path d="M101.304 412.214C101.304 412.214 101.678 402.676 103.507 388.733C105.335 374.789 100.94 354.987 100.202 351.683C99.4646 348.379 100.577 341.043 99.839 338.466C99.1011 335.889 95.5327 324.897 97.6363 312.144C99.7399 299.39 101.447 265.677 101.447 265.677C101.447 265.677 96.1494 261.37 94.5965 255.764C93.0436 250.158 94.233 248.396 94.233 248.396" stroke="#263238" stroke-width="1.00396" stroke-miterlimit="10"/>
<path d="M103.76 248.914L101.722 260.192" stroke="#263238" stroke-width="1.00396" stroke-miterlimit="10"/>
</svg>
