<svg width="39" height="42" viewBox="0 0 39 42" fill="none" xmlns="http://www.w3.org/2000/svg">
<path d="M11.375 34.6667H27.625" stroke="white" stroke-width="2" stroke-linecap="round" stroke-linejoin="round"/>
<path d="M16.25 34.6667C25.1875 30.3958 17.55 23.7333 21.125 17.5833" stroke="white" stroke-width="2" stroke-linecap="round" stroke-linejoin="round"/>
<path d="M15.4375 16.5583C17.225 17.925 18.3625 20.3167 19.175 22.8792C15.925 23.5625 13.4875 23.5625 11.375 22.3667C9.425 21.3417 7.6375 19.1208 6.5 15.1917C11.05 14.3375 13.65 15.1917 15.4375 16.5583V16.5583Z" stroke="white" stroke-width="2" stroke-linecap="round" stroke-linejoin="round"/>
<path d="M22.9124 10.75C21.6735 12.7856 21.0503 15.168 21.1249 17.5833C24.2124 17.4125 26.4874 16.5583 28.1124 15.1917C29.7374 13.4833 30.7124 11.2625 30.8749 7.33334C26.4874 7.50418 24.3749 9.04168 22.9124 10.75Z" stroke="white" stroke-width="2" stroke-linecap="round" stroke-linejoin="round"/>
</svg>
