<svg width="646" height="481" viewBox="0 0 646 481" fill="none" xmlns="http://www.w3.org/2000/svg">
<path d="M173.55 235.866C249.109 313.774 348.404 367.855 440.446 280.564C487.892 235.595 550.596 114.151 488.719 58.56C403.441 -18.0314 354.484 107.285 290.761 124.271C247.057 135.887 210.31 68.7696 157.997 113.609C116.642 149.04 142.134 203.482 173.55 235.866Z" fill="#0086CF"/>
<path opacity="0.9" d="M173.55 235.866C249.109 313.774 348.404 367.855 440.446 280.564C487.892 235.595 550.596 114.151 488.719 58.56C403.441 -18.0314 354.484 107.285 290.761 124.271C247.057 135.887 210.31 68.7696 157.997 113.609C116.642 149.04 142.134 203.482 173.55 235.866Z" fill="white"/>
<path d="M322.68 480.871C460.894 480.871 572.938 474.329 572.938 466.26C572.938 458.191 460.894 451.649 322.68 451.649C184.467 451.649 72.4224 458.191 72.4224 466.26C72.4224 474.329 184.467 480.871 322.68 480.871Z" fill="#F5F5F5"/>
<path d="M450.784 139.953L437.981 134.79C437.981 134.79 421.085 165.599 416.245 167.161C409.662 169.278 396.032 175.164 387.952 176.196C386.855 177.487 385.061 181.501 385.229 182.96C396.084 186.587 419.936 181.772 425.048 177.978C436.677 169.368 450.784 139.953 450.784 139.953Z" fill="#E58A7B"/>
<path d="M454.721 132.944C457.109 141.76 444.176 159.494 444.176 159.494L427.229 149.995C427.229 149.995 430.404 142.702 434.276 135.281C440.484 123.29 451.998 122.89 454.721 132.944Z" fill="#0086CF"/>
<path opacity="0.2" d="M454.721 132.944C457.109 141.76 444.176 159.494 444.176 159.494L427.229 149.995C427.229 149.995 430.404 142.702 434.276 135.281C440.484 123.29 451.998 122.89 454.721 132.944Z" fill="black"/>
<path opacity="0.2" d="M433.953 153.789L440.626 157.533L441.801 137.049C437.916 140.03 435.18 149.014 433.953 153.789Z" fill="black"/>
<path d="M443.569 126.31C443.569 126.31 430.378 155.661 438.071 210.31H490.048C490.874 202.333 488.138 163.405 498.038 125.819C492.336 124.705 486.567 123.968 480.768 123.612C473.413 123.186 466.039 123.186 458.684 123.612C453.585 124.13 448.532 125.032 443.569 126.31Z" fill="#0086CF"/>
<path opacity="0.2" d="M443.569 126.31C443.569 126.31 430.378 155.661 438.071 210.31H490.048C490.874 202.333 488.138 163.405 498.038 125.819C492.336 124.705 486.567 123.968 480.768 123.612C473.413 123.186 466.039 123.186 458.684 123.612C453.585 124.13 448.532 125.032 443.569 126.31Z" fill="black"/>
<g style="mix-blend-mode:multiply">
<path d="M431.514 467.422C431.437 468.816 451.146 469.939 475.528 469.939C499.909 469.939 519.761 468.816 519.838 467.422C519.916 466.028 500.219 464.918 475.825 464.918C451.43 464.918 431.604 466.041 431.514 467.422Z" fill="#E8ECF1"/>
</g>
<path d="M466.209 430.795L456.99 434.363L464.932 454.878L474.15 451.309L466.209 430.795Z" fill="#E58A7B"/>
<path d="M507.318 457.496H497.599L494.037 434.999H503.756L507.318 457.496Z" fill="#E58A7B"/>
<path d="M496.928 456.373H507.847C508.037 456.374 508.22 456.442 508.364 456.564C508.508 456.687 508.604 456.857 508.635 457.044L510.041 465.679C510.071 465.896 510.054 466.116 509.991 466.326C509.928 466.535 509.82 466.728 509.676 466.892C509.531 467.056 509.353 467.188 509.153 467.277C508.954 467.366 508.737 467.411 508.518 467.409C504.711 467.344 502.878 467.112 498.077 467.112C495.121 467.112 489.041 467.422 484.937 467.422C480.832 467.422 480.561 463.395 482.252 463.02C489.842 461.381 492.785 459.148 495.314 456.98C495.76 456.588 496.334 456.372 496.928 456.373Z" fill="#263238"/>
<path d="M464.66 453.043L474.985 450.023C475.17 449.971 475.366 449.984 475.542 450.059C475.718 450.134 475.863 450.267 475.953 450.436L479.826 458.18C479.916 458.377 479.962 458.59 479.96 458.807C479.959 459.023 479.911 459.236 479.818 459.431C479.726 459.627 479.593 459.8 479.427 459.938C479.261 460.076 479.066 460.177 478.858 460.232C475.102 461.265 472.585 461.898 467.886 463.266C464.647 464.208 461.343 465.744 458.142 466.764C455.921 467.473 450.707 467.499 448.009 467.499C444.021 467.499 443.13 463.291 444.847 463.098C449.171 462.62 449.752 462.84 452.14 461.639C456.047 459.931 459.588 457.486 462.569 454.437C463.131 453.796 463.852 453.316 464.66 453.043Z" fill="#263238"/>
<path d="M389.578 176.145L378.891 171.666L374.49 183.515C378.87 184.182 383.327 184.182 387.707 183.515L389.578 176.145Z" fill="#E58A7B"/>
<path d="M370.94 171.356L370.656 179.23L374.49 183.489L378.891 171.64L370.94 171.356Z" fill="#E58A7B"/>
<path d="M467.474 432.537L458.227 436.107L462.322 446.715L471.57 443.145L467.474 432.537Z" fill="#CF6F64"/>
<path d="M503.756 434.999H494.037L495.882 446.602H505.601L503.756 434.999Z" fill="#CF6F64"/>
<path opacity="0.2" d="M436.419 195.531C436.612 197.868 436.832 200.255 437.116 202.708L475.76 190.162C481.795 188.373 487.04 184.581 490.629 179.41C490.784 175.964 490.977 172.337 491.274 168.555C491.403 166.722 491.558 164.838 491.726 162.928C491.894 161.017 492.126 158.901 492.371 156.861L436.419 195.531Z" fill="black"/>
<path d="M449.042 153.196L447.751 153.041C448.513 146.587 453.327 141.502 458.4 141.631V142.922C453.96 142.831 449.726 147.413 449.042 153.196Z" fill="white"/>
<path d="M455.922 165.109H455.702V163.818C460.142 163.986 464.311 159.352 464.995 153.583L466.286 153.738C465.602 160.049 460.942 165.109 455.922 165.109Z" fill="white"/>
<path d="M480.045 98.7402C478.225 105.852 476.083 118.875 480.768 123.612C480.768 123.612 477.49 130.827 464.285 130.827C452.217 130.827 458.684 123.612 458.684 123.612C466.712 121.728 466.854 115.868 465.796 110.318L480.045 98.7402Z" fill="#E58A7B"/>
<path d="M474.237 103.464L465.809 110.318C466.07 111.593 466.221 112.889 466.26 114.19C468.726 116.643 473.669 110.434 474.172 107.259C474.428 106.009 474.45 104.722 474.237 103.464Z" fill="#CF6F64"/>
<path d="M451.314 98.6498C451.9 99.6663 452.69 100.551 453.634 101.248C454.578 101.946 455.655 102.441 456.799 102.703C459.897 103.387 461.446 100.534 460.594 97.6689C459.832 95.0875 457.29 91.6154 454.14 92.2092C453.466 92.3481 452.834 92.6467 452.299 93.0799C451.763 93.5131 451.339 94.0683 451.062 94.699C450.786 95.3297 450.664 96.0176 450.708 96.705C450.751 97.3923 450.959 98.0593 451.314 98.6498Z" fill="#CF6F64"/>
<path d="M456.438 75.8945C451.61 78.1016 449.907 97.2817 455.973 100.121C462.039 102.961 465.576 71.6996 456.438 75.8945Z" fill="#263238"/>
<path d="M481.517 88.0401C480.355 97.6689 480.226 103.335 475.063 108.266C473.463 109.902 471.442 111.064 469.223 111.624C467.005 112.184 464.674 112.12 462.49 111.439C460.305 110.758 458.351 109.486 456.843 107.765C455.336 106.043 454.334 103.938 453.947 101.683C452.385 93.0352 454.541 78.7469 464.195 74.9135C466.224 74.0187 468.455 73.6828 470.657 73.9406C472.859 74.1984 474.952 75.0405 476.719 76.3795C478.486 77.7186 479.862 79.506 480.706 81.5563C481.55 83.6066 481.829 85.8452 481.517 88.0401Z" fill="#E58A7B"/>
<path d="M465.654 80.8766C472.804 79.0567 478.057 77.8176 476.173 83.7678C473.682 91.7187 470.687 99.4113 474.702 99.7598C477.154 99.9793 487.996 95.3843 486.615 90.7248C485.415 86.6719 490.487 85.5619 491.391 83.5097C494.734 76.0751 485.169 77.0561 486.873 72.5385C488.577 68.021 479.129 60.7414 473.966 64.3683C465.563 70.2282 451.146 70.1378 458.722 60.4961C464.156 53.6166 454.463 55.0235 454.463 55.0235C454.463 55.0235 460.323 58.4955 450.462 63.8649C440.033 69.5957 449.597 84.994 465.654 80.8766Z" fill="#263238"/>
<path d="M485.311 98.6498C483.9 100.692 481.779 102.137 479.361 102.703C476.173 103.387 474.947 100.534 476.147 97.6689C477.219 95.0875 480.161 91.6154 483.207 92.2092C486.254 92.8029 486.951 96.12 485.311 98.6498Z" fill="#E58A7B"/>
<path d="M438.071 210.31C438.071 210.31 429.346 288.399 428.662 318.034C427.965 348.856 458.232 445.028 458.232 445.028L473.721 438.574C473.721 438.574 455.65 350.702 458.232 320.434C460.968 287.431 472.275 210.362 472.275 210.362L438.071 210.31Z" fill="#0086CF"/>
<path opacity="0.2" d="M459.755 231.749C452.798 246.179 457.483 274.717 461.252 291.625C462.685 279.686 464.389 266.727 466.002 254.737C465.847 236.305 464.415 222.069 459.755 231.749Z" fill="black"/>
<path d="M473.036 433.463C473.114 433.463 474.869 438.393 474.869 438.393L457.006 445.905L454.192 440.665L473.036 433.463Z" fill="#0086CF"/>
<path d="M456.515 210.31C456.515 210.31 463.188 284.578 467.603 312.393C472.456 342.867 491.481 444.357 491.481 444.357H509.28C509.28 444.357 498.619 345.332 496.605 315.155C494.411 282.423 490.048 210.31 490.048 210.31H456.515Z" fill="#0086CF"/>
<path d="M509.551 439.723C509.628 439.723 510.145 444.692 510.145 444.692H490.577L489.183 438.987L509.551 439.723Z" fill="#0086CF"/>
<path opacity="0.2" d="M502.736 433.837C502.696 433.838 502.656 433.824 502.626 433.798C502.595 433.771 502.574 433.735 502.568 433.695C502.465 432.792 492.849 343.345 491.042 316.24C489.08 286.837 485.131 221.617 485.092 220.959C485.09 220.937 485.093 220.916 485.1 220.895C485.107 220.875 485.118 220.856 485.132 220.841C485.147 220.825 485.165 220.812 485.184 220.804C485.204 220.795 485.225 220.791 485.247 220.791C485.289 220.791 485.33 220.807 485.361 220.835C485.392 220.864 485.411 220.903 485.415 220.946C485.415 221.604 489.403 286.772 491.365 316.227C493.172 343.332 502.788 432.714 502.878 433.682C502.882 433.704 502.881 433.726 502.876 433.747C502.87 433.768 502.861 433.787 502.847 433.804C502.834 433.821 502.817 433.835 502.798 433.845C502.779 433.856 502.758 433.862 502.736 433.863V433.837Z" fill="black"/>
<path d="M466.751 90.7248C466.751 91.5122 466.26 92.1446 465.744 92.1446C465.228 92.1446 464.853 91.5122 464.905 90.7248C464.957 89.9375 465.395 89.305 465.912 89.305C466.428 89.305 466.802 89.9504 466.751 90.7248Z" fill="#263238"/>
<path d="M457.896 90.7248C457.896 91.5122 457.393 92.1446 456.89 92.1446C456.386 92.1446 455.999 91.5122 456.038 90.7248C456.077 89.9375 456.541 89.305 457.057 89.305C457.574 89.305 457.948 89.9504 457.896 90.7248Z" fill="#263238"/>
<path d="M460.684 91.1249C459.607 93.5291 458.218 95.7813 456.554 97.8237C457.845 99.1144 460.258 98.5207 460.258 98.5207L460.684 91.1249Z" fill="#DF5753"/>
<path d="M460.917 101.812C460.887 101.812 460.857 101.806 460.83 101.794C460.802 101.782 460.777 101.765 460.757 101.743C460.736 101.722 460.72 101.696 460.71 101.668C460.7 101.64 460.695 101.61 460.697 101.58C460.7 101.517 460.728 101.458 460.773 101.415C460.819 101.371 460.88 101.347 460.942 101.347C461.93 101.354 462.906 101.14 463.799 100.72C464.693 100.3 465.481 99.6853 466.105 98.9209C466.15 98.8819 466.207 98.8604 466.267 98.8604C466.326 98.8604 466.383 98.8819 466.428 98.9209C466.47 98.9642 466.493 99.022 466.493 99.0822C466.493 99.1424 466.47 99.2003 466.428 99.2436C465.759 100.056 464.917 100.708 463.964 101.153C463.01 101.597 461.969 101.823 460.917 101.812Z" fill="#263238"/>
<path d="M468.325 88.3498C468.263 88.3816 468.195 88.3981 468.125 88.3981C468.056 88.3981 467.987 88.3816 467.925 88.3498C467.442 88.0377 466.893 87.8435 466.321 87.783C465.749 87.7224 465.171 87.7972 464.634 88.0014C464.582 88.0276 464.524 88.043 464.466 88.0468C464.408 88.0505 464.349 88.0426 464.294 88.0233C464.238 88.0041 464.187 87.9739 464.144 87.9347C464.1 87.8955 464.065 87.8479 464.04 87.7948C463.992 87.68 463.991 87.5509 464.037 87.4352C464.083 87.3195 464.172 87.2262 464.285 87.1753C464.96 86.8997 465.692 86.791 466.417 86.8584C467.143 86.9258 467.842 87.1673 468.454 87.5625C468.504 87.5961 468.546 87.6393 468.579 87.6894C468.612 87.7395 468.634 87.7956 468.645 87.8544C468.656 87.9133 468.655 87.9737 468.642 88.0321C468.629 88.0906 468.605 88.1459 468.571 88.195C468.505 88.269 468.42 88.3227 468.325 88.3498Z" fill="#263238"/>
<path d="M454.476 85.7685C454.407 85.7518 454.345 85.716 454.295 85.6652C454.252 85.6231 454.218 85.5729 454.195 85.5175C454.172 85.4621 454.16 85.4026 454.16 85.3425C454.16 85.2824 454.172 85.2229 454.195 85.1675C454.218 85.1121 454.252 85.0619 454.295 85.0198C454.79 84.465 455.406 84.0319 456.096 83.7543C456.785 83.4766 457.53 83.362 458.271 83.4193C458.33 83.4285 458.387 83.4498 458.438 83.4818C458.489 83.5138 458.532 83.556 458.566 83.6056C458.6 83.6552 458.623 83.7112 458.635 83.7702C458.646 83.8292 458.645 83.8899 458.632 83.9485C458.604 84.0681 458.534 84.1734 458.434 84.2447C458.334 84.316 458.212 84.3483 458.09 84.3358C457.504 84.2988 456.916 84.3958 456.373 84.6194C455.829 84.8431 455.344 85.1874 454.954 85.6265C454.895 85.6918 454.819 85.7396 454.735 85.7647C454.65 85.7897 454.561 85.791 454.476 85.7685Z" fill="#263238"/>
<path d="M503.033 138.52L489.609 134.945C489.609 134.945 476.444 167.355 471.785 169.459C465.46 172.35 449.442 182.366 442.627 187.103C442.253 188.716 442.55 192.989 443.402 194.163C455.018 192.046 477.257 183.489 481.904 179.139C492.501 169.214 503.033 138.52 503.033 138.52Z" fill="#E58A7B"/>
<path d="M493.662 458.077C493.007 458.129 492.355 457.951 491.817 457.573C491.65 457.423 491.526 457.233 491.456 457.02C491.386 456.807 491.372 456.58 491.416 456.36C491.425 456.223 491.47 456.091 491.547 455.977C491.624 455.863 491.731 455.773 491.855 455.715C492.939 455.16 495.973 457.083 496.321 457.302C496.359 457.326 496.389 457.361 496.405 457.403C496.422 457.445 496.424 457.491 496.411 457.535C496.4 457.58 496.378 457.621 496.346 457.655C496.315 457.689 496.275 457.714 496.231 457.728C495.389 457.935 494.528 458.052 493.662 458.077ZM492.372 456.063C492.274 456.042 492.172 456.042 492.075 456.063C492.025 456.088 491.984 456.127 491.957 456.176C491.929 456.224 491.916 456.279 491.92 456.334C491.885 456.485 491.891 456.641 491.936 456.788C491.982 456.936 492.065 457.068 492.178 457.173C492.681 457.625 493.946 457.677 495.611 457.354C494.62 456.701 493.503 456.262 492.333 456.063H492.372Z" fill="#0086CF"/>
<path d="M496.166 457.728C496.133 457.739 496.096 457.739 496.063 457.728C495.095 457.186 493.275 455.057 493.546 453.972C493.587 453.801 493.684 453.647 493.822 453.537C493.96 453.427 494.131 453.367 494.308 453.366C494.481 453.343 494.657 453.357 494.824 453.408C494.991 453.46 495.145 453.546 495.276 453.663C496.347 454.579 496.411 457.393 496.411 457.535C496.418 457.577 496.41 457.62 496.389 457.658C496.368 457.695 496.335 457.725 496.295 457.741C496.252 457.75 496.207 457.746 496.166 457.728ZM494.437 453.792H494.346C494.049 453.792 494.011 453.959 493.998 454.024C493.843 454.656 494.992 456.27 495.947 457.031C495.942 455.941 495.605 454.878 494.979 453.985C494.829 453.855 494.635 453.785 494.437 453.792Z" fill="#0086CF"/>
<path d="M459.393 456.463C458.604 456.739 457.744 456.739 456.954 456.463C456.775 456.366 456.623 456.226 456.512 456.054C456.402 455.883 456.336 455.686 456.322 455.483C456.305 455.355 456.322 455.225 456.369 455.106C456.416 454.986 456.493 454.88 456.593 454.798C457.625 453.869 461.846 454.798 462.323 454.979C462.369 454.991 462.409 455.018 462.437 455.055C462.465 455.093 462.48 455.139 462.478 455.186C462.48 455.234 462.468 455.282 462.443 455.323C462.417 455.365 462.38 455.398 462.336 455.418C461.386 455.847 460.402 456.197 459.393 456.463ZM457.29 454.928C457.142 454.957 457.004 455.024 456.889 455.121C456.848 455.152 456.817 455.194 456.799 455.242C456.78 455.29 456.776 455.342 456.786 455.392C456.795 455.528 456.837 455.659 456.909 455.774C456.981 455.889 457.081 455.984 457.199 456.05C457.883 456.412 459.471 456.128 461.523 455.263C460.141 454.914 458.71 454.801 457.29 454.928Z" fill="#0086CF"/>
<path d="M462.298 455.418H462.194C460.904 455.186 458.322 453.701 458.245 452.591C458.245 452.333 458.361 451.972 458.981 451.765C459.19 451.691 459.412 451.659 459.634 451.672C459.856 451.686 460.072 451.744 460.271 451.843C461.665 452.527 462.401 455.005 462.44 455.121C462.449 455.16 462.448 455.201 462.436 455.239C462.425 455.278 462.404 455.313 462.375 455.341C462.356 455.372 462.329 455.399 462.298 455.418ZM459.239 452.152H459.11C458.71 452.294 458.71 452.462 458.71 452.514C458.71 453.185 460.581 454.411 461.885 454.824C461.584 453.788 460.949 452.88 460.078 452.243C459.819 452.111 459.52 452.079 459.239 452.152Z" fill="#0086CF"/>
<path d="M443.724 186.341L430.262 192.537L428.7 196.409L433.669 199.752C433.669 199.752 442.963 198.745 445.609 192.769L443.724 186.341Z" fill="#E58A7B"/>
<path d="M444.292 194.383C443.991 191.796 443.137 189.304 441.788 187.077L443.918 185.477C445.52 188.043 446.542 190.928 446.912 193.931L444.292 194.383Z" fill="#263238"/>
<path d="M446.59 188.174C446.874 188.622 447.014 189.146 446.99 189.676C446.966 190.206 446.779 190.716 446.455 191.136C446.132 191.556 445.686 191.866 445.18 192.024C444.673 192.182 444.131 192.18 443.625 192.018C443.12 191.857 442.677 191.544 442.356 191.121C442.035 190.699 441.852 190.188 441.832 189.658C441.811 189.128 441.955 188.604 442.243 188.159C442.531 187.713 442.949 187.367 443.44 187.168C443.992 186.886 444.632 186.834 445.222 187.023C445.812 187.212 446.303 187.625 446.59 188.174Z" fill="#263238"/>
<path d="M421.162 197.545L422.956 199.352L435.038 194.189L430.262 192.537L421.162 197.545Z" fill="#E58A7B"/>
<path opacity="0.2" d="M473.036 433.463C473.114 433.463 474.869 438.393 474.869 438.393L457.006 445.905L454.192 440.665L473.036 433.463Z" fill="black"/>
<path opacity="0.2" d="M509.551 439.723C509.628 439.723 510.145 444.692 510.145 444.692H490.577L489.183 438.987L509.551 439.723Z" fill="black"/>
<path d="M506.531 134.803C510.08 146.252 496.205 161.908 496.205 161.908L477.038 154.086C479.309 147.469 481.929 140.976 484.885 134.635C490.771 121.947 502.942 123.251 506.531 134.803Z" fill="#0086CF"/>
<path opacity="0.2" d="M506.531 134.803C510.08 146.252 496.205 161.908 496.205 161.908L477.038 154.086C479.309 147.469 481.929 140.976 484.885 134.635C490.771 121.947 502.942 123.251 506.531 134.803Z" fill="black"/>
<path d="M316.072 20.0966H307.824V21.426H316.072V20.0966Z" fill="#0086CF"/>
<path d="M422.838 72.7148L421.84 94.8669L423.168 94.9267L424.166 72.7746L422.838 72.7148Z" fill="#0086CF"/>
<path d="M420.272 26.0597H267.967L253.794 343.216H406.1L420.272 26.0597Z" fill="#0086CF"/>
<path opacity="0.56" d="M415.728 30.4223H263.423L249.251 347.578H401.556L415.728 30.4223Z" fill="#FAFAFA"/>
<path opacity="0.07" d="M411.185 34.7721H258.88L244.695 351.928H397L411.185 34.7721Z" fill="#0086CF"/>
<path d="M393.851 173.099H263.849L262.765 197.364H392.766L393.851 173.099Z" fill="white"/>
<path d="M335.342 155.39H264.636L264.159 166.245H334.865L335.342 155.39Z" fill="#0086CF"/>
<path d="M390.921 238.59H260.919L259.835 262.855H389.836L390.921 238.59Z" fill="white"/>
<path opacity="0.47" d="M367.081 295.627H279.661L278.357 324.707H365.777L367.081 295.627Z" fill="#0086CF"/>
<path d="M361.234 329.224H273.813C273.775 329.234 273.735 329.234 273.697 329.224C273.685 329.187 273.685 329.146 273.697 329.108L274.988 300.015C274.988 299.995 274.992 299.976 275 299.958C275.008 299.94 275.019 299.923 275.034 299.91C275.049 299.897 275.066 299.886 275.085 299.88C275.103 299.874 275.123 299.871 275.143 299.873H362.563C362.58 299.865 362.597 299.861 362.615 299.861C362.633 299.861 362.651 299.865 362.667 299.873C362.676 299.889 362.681 299.907 362.681 299.925C362.681 299.943 362.676 299.961 362.667 299.976L361.402 329.134C361.386 329.164 361.362 329.189 361.332 329.205C361.302 329.221 361.268 329.228 361.234 329.224ZM273.968 328.914H361.079L362.37 300.131H275.259L273.968 328.914Z" fill="white"/>
<path d="M320.073 220.881H261.707L261.229 231.749H319.583L320.073 220.881Z" fill="#0086CF"/>
<path d="M365.416 94.7131C365.082 101.775 362.571 108.561 358.227 114.138C355.011 118.352 350.872 121.772 346.129 124.137C341.386 126.502 336.164 127.749 330.863 127.781C326.58 127.814 322.336 126.969 318.392 125.3C314.448 123.63 310.887 121.17 307.929 118.072C304.972 114.974 302.679 111.304 301.194 107.286C299.709 103.269 299.062 98.9901 299.292 94.7131C299.746 85.8381 303.574 77.4718 309.991 71.3251C316.409 65.1783 324.933 61.7155 333.819 61.6449C338.106 61.6049 342.354 62.4443 346.304 64.1112C350.253 65.7781 353.818 68.2371 356.779 71.3362C359.74 74.4354 362.035 78.1088 363.52 82.1296C365.006 86.1504 365.651 90.4331 365.416 94.7131Z" fill="white"/>
<path d="M368.527 68.5631C368.442 70.4409 367.775 72.2457 366.616 73.726C365.759 74.845 364.658 75.7535 363.396 76.382C362.135 77.0106 360.746 77.3427 359.337 77.353C357.971 77.3612 356.624 77.035 355.414 76.4028C354.203 75.7706 353.166 74.8515 352.393 73.726C351.368 72.2051 350.862 70.3947 350.947 68.5631C351.072 66.2068 352.091 63.9868 353.796 62.3559C355.501 60.725 357.765 59.8059 360.124 59.7862C361.262 59.7758 362.391 59.9987 363.44 60.4409C364.489 60.8832 365.436 61.5356 366.223 62.3579C367.01 63.1802 367.621 64.1549 368.017 65.2221C368.413 66.2893 368.587 67.4264 368.527 68.5631Z" fill="#0086CF"/>
<path d="M277.854 185.231C277.792 186.271 277.338 187.249 276.583 187.968C275.829 188.687 274.83 189.092 273.788 189.104C273.285 189.11 272.786 189.012 272.322 188.818C271.858 188.623 271.439 188.336 271.09 187.973C270.742 187.61 270.472 187.179 270.296 186.708C270.121 186.236 270.044 185.734 270.071 185.231C270.127 184.189 270.579 183.208 271.334 182.488C272.09 181.768 273.093 181.364 274.136 181.359C274.639 181.355 275.137 181.454 275.6 181.649C276.063 181.844 276.482 182.132 276.83 182.494C277.178 182.857 277.448 183.286 277.624 183.757C277.8 184.228 277.878 184.729 277.854 185.231Z" fill="#263238"/>
<path d="M295.253 185.231C295.194 186.273 294.74 187.252 293.985 187.971C293.23 188.691 292.23 189.095 291.187 189.104C290.685 189.108 290.187 189.009 289.725 188.814C289.262 188.619 288.845 188.331 288.498 187.968C288.151 187.605 287.882 187.175 287.707 186.705C287.532 186.234 287.456 185.733 287.482 185.231C287.538 184.191 287.989 183.212 288.742 182.492C289.495 181.773 290.494 181.368 291.535 181.359C292.038 181.353 292.537 181.45 293.001 181.645C293.465 181.839 293.884 182.127 294.233 182.49C294.581 182.853 294.851 183.283 295.027 183.755C295.202 184.226 295.279 184.729 295.253 185.231Z" fill="#263238"/>
<path d="M312.664 185.231C312.605 186.273 312.152 187.252 311.397 187.971C310.642 188.691 309.641 189.095 308.598 189.104C308.096 189.108 307.598 189.009 307.135 188.814C306.672 188.619 306.253 188.331 305.905 187.969C305.557 187.606 305.287 187.176 305.111 186.706C304.935 186.235 304.857 185.733 304.881 185.231C304.94 184.19 305.393 183.211 306.148 182.491C306.904 181.772 307.904 181.367 308.947 181.359C309.45 181.353 309.949 181.45 310.413 181.645C310.877 181.839 311.296 182.127 311.644 182.49C311.993 182.853 312.263 183.283 312.438 183.755C312.614 184.226 312.691 184.729 312.664 185.231Z" fill="#263238"/>
<path d="M274.923 250.723C274.861 251.763 274.407 252.741 273.653 253.459C272.898 254.178 271.9 254.583 270.858 254.595C270.355 254.599 269.857 254.5 269.394 254.305C268.931 254.11 268.512 253.822 268.164 253.46C267.816 253.097 267.546 252.668 267.37 252.197C267.194 251.726 267.116 251.224 267.14 250.723C267.199 249.681 267.652 248.702 268.408 247.983C269.163 247.263 270.163 246.859 271.206 246.85C271.709 246.846 272.207 246.945 272.67 247.14C273.133 247.335 273.551 247.623 273.899 247.985C274.247 248.348 274.518 248.778 274.694 249.248C274.87 249.719 274.948 250.221 274.923 250.723Z" fill="#263238"/>
<path d="M292.323 250.723C292.264 251.761 291.812 252.739 291.06 253.458C290.308 254.177 289.31 254.583 288.27 254.595C287.767 254.601 287.268 254.503 286.804 254.309C286.34 254.114 285.921 253.827 285.572 253.464C285.224 253.101 284.954 252.67 284.778 252.199C284.603 251.727 284.526 251.225 284.552 250.723C284.611 249.681 285.065 248.702 285.82 247.983C286.575 247.263 287.575 246.859 288.618 246.85C289.12 246.846 289.618 246.945 290.08 247.14C290.543 247.335 290.96 247.623 291.307 247.986C291.654 248.349 291.923 248.779 292.098 249.249C292.273 249.72 292.349 250.221 292.323 250.723Z" fill="#263238"/>
<path d="M309.773 250.723C309.714 251.764 309.261 252.743 308.506 253.463C307.751 254.182 306.75 254.587 305.707 254.595C305.205 254.597 304.708 254.497 304.246 254.301C303.784 254.106 303.366 253.818 303.018 253.456C302.671 253.094 302.4 252.665 302.224 252.195C302.047 251.725 301.967 251.224 301.99 250.723C302.052 249.683 302.506 248.705 303.261 247.986C304.015 247.267 305.014 246.862 306.056 246.85C306.559 246.844 307.058 246.942 307.522 247.136C307.986 247.331 308.405 247.618 308.753 247.981C309.102 248.344 309.372 248.775 309.547 249.246C309.723 249.718 309.8 250.22 309.773 250.723Z" fill="#263238"/>
<path d="M327.146 250.723C327.084 251.763 326.63 252.741 325.876 253.459C325.121 254.178 324.122 254.583 323.08 254.595C322.578 254.597 322.081 254.497 321.619 254.301C321.157 254.106 320.739 253.818 320.391 253.456C320.044 253.094 319.773 252.665 319.597 252.195C319.42 251.725 319.34 251.224 319.363 250.723C319.425 249.682 319.879 248.705 320.634 247.986C321.388 247.267 322.387 246.862 323.429 246.85C323.931 246.846 324.43 246.945 324.893 247.14C325.356 247.335 325.774 247.623 326.122 247.985C326.47 248.348 326.741 248.778 326.917 249.248C327.093 249.719 327.171 250.221 327.146 250.723Z" fill="#263238"/>
<path d="M344.622 250.723C344.56 251.763 344.106 252.741 343.352 253.459C342.597 254.178 341.598 254.583 340.557 254.595C340.054 254.601 339.555 254.503 339.091 254.309C338.627 254.114 338.208 253.827 337.859 253.464C337.511 253.101 337.24 252.67 337.065 252.199C336.89 251.727 336.813 251.225 336.839 250.723C336.898 249.681 337.351 248.702 338.107 247.983C338.862 247.263 339.862 246.859 340.905 246.85C341.408 246.846 341.906 246.945 342.369 247.14C342.832 247.335 343.25 247.623 343.598 247.985C343.946 248.348 344.217 248.778 344.393 249.248C344.569 249.719 344.647 250.221 344.622 250.723Z" fill="#263238"/>
<path d="M341.981 92.9909C347.383 87.7079 347.67 79.2398 342.621 74.077C337.573 68.9142 329.1 69.0116 323.698 74.2946C318.295 79.5776 318.009 88.0456 323.058 93.2085C328.106 98.3713 336.579 98.2739 341.981 92.9909Z" fill="#0086CF"/>
<path d="M358.227 114.139C355.011 118.352 350.872 121.772 346.129 124.137C341.386 126.502 336.164 127.749 330.863 127.781C325.724 127.825 320.653 126.603 316.097 124.224C311.541 121.845 307.64 118.381 304.739 114.139C311.012 107.891 320.938 103.813 331.935 103.813C342.932 103.813 352.509 107.891 358.227 114.139Z" fill="#0086CF"/>
<path opacity="0.1" d="M341.981 92.9909C347.383 87.7079 347.67 79.2398 342.621 74.077C337.573 68.9142 329.1 69.0116 323.698 74.2946C318.295 79.5776 318.009 88.0456 323.058 93.2085C328.106 98.3713 336.579 98.2739 341.981 92.9909Z" fill="white"/>
<path opacity="0.1" d="M358.227 114.139C355.011 118.352 350.872 121.772 346.129 124.137C341.386 126.502 336.164 127.749 330.863 127.781C325.724 127.825 320.653 126.603 316.097 124.224C311.541 121.845 307.64 118.381 304.739 114.139C311.012 107.891 320.938 103.813 331.935 103.813C342.932 103.813 352.509 107.891 358.227 114.139Z" fill="white"/>
<path d="M168.323 203.211C167.097 205.896 165.806 208.851 164.683 211.717C163.56 214.582 162.411 217.538 161.418 220.481C159.388 226.28 157.843 232.238 156.797 238.293L156.513 240.19C156.486 240.516 156.516 240.843 156.603 241.158C156.908 242.228 157.388 243.24 158.023 244.153C159.681 246.516 161.603 248.681 163.754 250.606C166.021 252.715 168.399 254.701 170.879 256.557C173.357 258.467 175.964 260.325 178.533 262.081L176.119 266.611C169.986 263.939 164.164 260.602 158.759 256.66C155.875 254.557 153.272 252.093 151.014 249.328C149.676 247.683 148.632 245.818 147.93 243.817C147.521 242.567 147.312 241.26 147.31 239.945C147.31 239.635 147.31 239.183 147.31 238.964V238.332L147.439 237.041C148.179 230.316 149.593 223.683 151.66 217.241C152.667 214.066 153.738 210.904 154.964 207.819C156.19 204.734 157.455 201.714 159.017 198.577L168.323 203.211Z" fill="#E58A7B"/>
<path d="M176.713 261.281L185.838 256.66L183.476 266.676C183.476 266.676 177.216 268.431 174.312 265.385L176.713 261.281Z" fill="#E58A7B"/>
<path d="M194.189 258.299L191.763 266.585L183.476 266.676L185.838 256.66L194.189 258.299Z" fill="#E58A7B"/>
<path d="M207.07 154.886C207.559 156.675 208.238 158.406 209.097 160.049C208.846 160.334 208.523 160.545 208.161 160.661C207.8 160.777 207.414 160.793 207.045 160.708L207.07 154.886Z" fill="#DF5753"/>
<path d="M206.799 154.964C207.334 154.964 207.767 154.299 207.767 153.48C207.767 152.66 207.334 151.995 206.799 151.995C206.265 151.995 205.831 152.66 205.831 153.48C205.831 154.299 206.265 154.964 206.799 154.964Z" fill="#263238"/>
<path d="M206.515 152.047L208.477 151.492C208.477 151.492 207.522 153.015 206.515 152.047Z" fill="#263238"/>
<path d="M181.863 164.36C183.037 170.362 184.212 181.372 180.004 185.386C180.004 185.386 181.656 191.478 192.821 191.478C205.096 191.478 198.681 185.386 198.681 185.386C191.982 183.786 192.15 178.816 193.324 174.144L181.863 164.36Z" fill="#E58A7B"/>
<path d="M178.597 150.679C179.217 160.708 179.268 164.967 184.328 170.117C191.956 177.861 204.141 174.918 206.528 164.954C208.684 155.919 207.316 141.05 197.493 137.062C195.337 136.173 192.99 135.85 190.674 136.122C188.358 136.394 186.15 137.252 184.258 138.615C182.366 139.978 180.854 141.802 179.863 143.913C178.872 146.024 178.437 148.352 178.597 150.679Z" fill="#E58A7B"/>
<path d="M179.591 139.398C174.557 141.231 167.845 139.862 170.478 155.39C173.266 171.834 168.981 177.242 168.981 177.242C168.981 177.242 188.071 181.308 207.561 176.997C207.561 176.997 201.611 166.593 203.276 158.926C205.405 149.246 203.727 145.671 203.727 145.671C203.727 145.671 186.664 136.816 179.591 139.398Z" fill="#263238"/>
<path d="M200.888 155.906C200.893 157.813 201.439 159.679 202.463 161.288C203.831 163.379 205.444 162.579 205.844 160.359C206.206 158.41 205.935 154.964 204.192 153.622C202.45 152.279 200.914 153.596 200.888 155.906Z" fill="#E58A7B"/>
<path d="M175.215 141.089C173.77 137.023 180.662 130.763 195.247 133.344C209.833 135.926 210.465 148.071 210.465 148.071L207.522 144.561L207.651 148.252L192.666 151.13L175.215 141.089Z" fill="#263238"/>
<path d="M176.454 186.07C176.368 185.481 176.516 184.881 176.865 184.399C177.215 183.917 177.739 183.59 178.326 183.489C182.869 182.74 193.195 181.217 198.384 181.94C202.256 182.482 203.263 184.728 203.43 186.574C203.457 186.897 203.414 187.222 203.304 187.527C203.194 187.832 203.02 188.11 202.794 188.342C202.568 188.575 202.294 188.756 201.992 188.874C201.69 188.992 201.366 189.044 201.043 189.026L178.61 188.019C178.081 187.993 177.578 187.784 177.185 187.429C176.792 187.074 176.534 186.594 176.454 186.07Z" fill="#0086CF"/>
<path opacity="0.6" d="M176.454 186.07C176.368 185.481 176.516 184.881 176.865 184.399C177.215 183.917 177.739 183.59 178.326 183.489C182.869 182.74 193.195 181.217 198.384 181.94C202.256 182.482 203.263 184.728 203.43 186.574C203.457 186.897 203.414 187.222 203.304 187.527C203.194 187.832 203.02 188.11 202.794 188.342C202.568 188.575 202.294 188.756 201.992 188.874C201.69 188.992 201.366 189.044 201.043 189.026L178.61 188.019C178.081 187.993 177.578 187.784 177.185 187.429C176.792 187.074 176.534 186.594 176.454 186.07Z" fill="black"/>
<path d="M189.426 411.559L197.751 417.342L211.678 398.458L203.353 392.689L189.426 411.559Z" fill="#E58A7B"/>
<path d="M170.014 411.185L178.803 416.193L191.13 396.225L182.34 391.217L170.014 411.185Z" fill="#E58A7B"/>
<path d="M211.665 398.458L204.489 408.19L196.164 402.421L203.34 392.689L211.665 398.458Z" fill="#CF6F64"/>
<path d="M182.327 391.217L191.13 396.238L184.78 406.525L175.977 401.505L182.327 391.217Z" fill="#CF6F64"/>
<path d="M196.448 249.109C196.448 249.109 228.948 290.064 222.843 329.237C217.925 360.873 189.4 403.712 189.4 403.712L175.99 397.052C185.442 378.111 193.509 358.509 200.126 338.401C202.167 332.158 202.762 325.534 201.868 319.027C200.974 312.52 198.613 306.302 194.963 300.841C178.494 276.795 152.111 291.109 169.859 249.109H196.448Z" fill="#0086CF"/>
<path opacity="0.6" d="M196.448 249.109C196.448 249.109 228.948 290.064 222.843 329.237C217.925 360.873 189.4 403.712 189.4 403.712L175.99 397.052C185.442 378.111 193.509 358.509 200.126 338.401C202.167 332.158 202.762 325.534 201.868 319.027C200.974 312.52 198.613 306.302 194.963 300.841C178.494 276.795 152.111 291.109 169.859 249.109H196.448Z" fill="black"/>
<path opacity="0.4" d="M212.388 275.414L207.664 270.716C207.664 271.09 216.815 327.585 219.384 343.461C220.9 338.823 222.06 334.077 222.856 329.263C225.876 310.044 219.565 290.412 212.388 275.414Z" fill="black"/>
<path d="M210.956 249.109C210.956 249.109 250.09 300.583 251.2 331.444C252.117 357.259 208.606 407.274 208.606 407.274L195.957 399.091C195.957 399.091 221.423 363.57 227.838 334.555C225.36 305.798 172.957 249.109 172.957 249.109H210.956Z" fill="#0086CF"/>
<path opacity="0.6" d="M210.956 249.109C210.956 249.109 250.09 300.583 251.2 331.444C252.117 357.259 208.606 407.274 208.606 407.274L195.957 399.091C195.957 399.091 221.423 363.57 227.838 334.555C225.36 305.798 172.957 249.109 172.957 249.109H210.956Z" fill="black"/>
<path d="M162.541 187.684C158.359 188.678 154.344 203.882 154.344 203.882L170.698 214.802C170.698 214.802 176.145 202.772 174.234 197.506C172.26 192.021 167.794 186.432 162.541 187.684Z" fill="#0086CF"/>
<path opacity="0.2" d="M165.742 197.48L164.606 210.736L170.685 214.815C172.364 211.036 173.606 207.078 174.389 203.017L165.742 197.48Z" fill="black"/>
<path d="M215.796 187.981C215.796 187.981 220.623 189.671 210.955 249.096H169.833C170.53 232.317 170.543 221.991 162.541 187.684C168.299 186.497 174.135 185.729 180.004 185.386C186.222 184.94 192.463 184.94 198.681 185.386C206.709 186.122 215.796 187.981 215.796 187.981Z" fill="#0086CF"/>
<path d="M219.978 197.48C220.907 200.062 221.888 202.837 222.921 205.508C223.953 208.18 224.934 210.93 225.98 213.64L229.142 221.746L229.942 223.772L230.355 224.779L230.549 225.282C230.549 225.373 230.549 225.373 230.549 225.36C230.313 225.027 230.004 224.753 229.645 224.56C229.135 224.259 228.559 224.086 227.967 224.056C227.476 224.041 226.987 224.133 226.535 224.327C225.941 224.598 225.941 224.714 225.954 224.702C226.061 224.615 226.157 224.516 226.238 224.405C226.952 223.467 227.571 222.459 228.083 221.397C228.69 220.21 229.271 218.945 229.852 217.667C230.988 215.086 232.033 212.414 233.079 209.716C234.124 207.019 235.118 204.295 236.086 201.546L239.029 193.311L243.998 194.602C243.017 200.488 241.752 206.218 240.229 212.052C239.493 214.957 238.629 217.835 237.648 220.739C237.157 222.198 236.615 223.643 235.996 225.127C235.35 226.738 234.555 228.285 233.621 229.748C233.277 230.241 232.898 230.707 232.485 231.142C231.826 231.854 231.026 232.421 230.136 232.807C229.346 233.146 228.491 233.305 227.632 233.272C226.67 233.236 225.733 232.956 224.908 232.459C223.936 231.852 223.129 231.014 222.559 230.019C222.366 229.684 222.198 229.348 222.082 229.103L221.836 228.612L221.346 227.606L220.365 225.605C219.074 222.92 217.784 220.21 216.661 217.486C215.538 214.763 214.35 212.001 213.24 209.226C212.13 206.451 211.136 203.676 210.194 200.681L219.978 197.48Z" fill="#E58A7B"/>
<path d="M215.796 187.981C220.739 189.155 226.302 203.766 226.302 203.766L211.601 216.273C211.601 216.273 202.088 200.346 204.011 195.092C206.012 189.62 209.342 186.445 215.796 187.981Z" fill="#0086CF"/>
<path d="M241.365 188.69L246.528 184.379L250.116 189.968L247.47 194.628C247.47 194.628 243.262 198.5 239.545 196.525C238.955 195.199 238.813 193.717 239.142 192.303C239.47 190.889 240.251 189.621 241.365 188.69Z" fill="#E58A7B"/>
<path d="M255.847 184.392L255.46 185.799L247.289 187.167L246.489 184.379L255.847 184.392Z" fill="#E58A7B"/>
<path d="M209.613 407.932L194.873 398.407L197.519 393.812L214.079 403.996L209.613 407.932Z" fill="#0086CF"/>
<path d="M184.573 415.522C183.28 415.364 182.037 414.923 180.933 414.231C180.888 414.215 180.848 414.186 180.82 414.146C180.792 414.107 180.777 414.06 180.777 414.012C180.777 413.963 180.792 413.916 180.82 413.877C180.848 413.838 180.888 413.808 180.933 413.792C181.333 413.663 184.805 412.592 185.812 413.418C185.925 413.512 186.011 413.635 186.061 413.773C186.111 413.911 186.123 414.061 186.096 414.205C186.078 414.438 186.001 414.662 185.873 414.856C185.744 415.05 185.568 415.208 185.36 415.315C185.119 415.447 184.848 415.518 184.573 415.522ZM181.669 414.102C183.282 414.928 184.573 415.225 185.193 414.915C185.328 414.84 185.441 414.732 185.522 414.601C185.604 414.47 185.65 414.321 185.657 414.167C185.657 413.96 185.657 413.87 185.541 413.818C184.999 413.379 183.063 413.715 181.643 414.102H181.669Z" fill="#263238"/>
<path d="M181.024 414.321C180.956 414.32 180.891 414.293 180.843 414.244C180.824 414.208 180.814 414.168 180.814 414.128C180.814 414.087 180.824 414.047 180.843 414.012C180.843 413.895 181.682 411.095 182.998 410.462C183.167 410.385 183.349 410.346 183.534 410.346C183.719 410.346 183.902 410.385 184.07 410.462C184.251 410.519 184.408 410.636 184.516 410.792C184.623 410.949 184.675 411.137 184.664 411.327C184.573 412.489 182.211 414.089 181.127 414.36L181.024 414.321ZM183.528 410.798C183.402 410.802 183.279 410.832 183.166 410.888C182.366 411.275 181.708 412.785 181.385 413.702C182.521 413.224 184.083 411.959 184.134 411.249C184.134 411.133 184.134 410.991 183.837 410.862C183.741 410.81 183.636 410.775 183.528 410.759V410.798Z" fill="#263238"/>
<path d="M202.992 421.098C201.533 421.098 199.507 419.226 198.397 418.077C198.369 418.038 198.353 417.99 198.353 417.942C198.353 417.893 198.369 417.846 198.397 417.806C198.422 417.765 198.459 417.731 198.502 417.708C198.545 417.685 198.593 417.675 198.642 417.677C199.158 417.677 203.637 418.348 204.27 419.613C204.337 419.727 204.372 419.856 204.372 419.988C204.372 420.119 204.337 420.249 204.27 420.362C204.175 420.559 204.032 420.729 203.853 420.855C203.675 420.981 203.467 421.06 203.25 421.085L202.992 421.098ZM199.249 418.258C200.875 419.833 202.308 420.71 203.121 420.607C203.263 420.589 203.399 420.535 203.516 420.452C203.633 420.369 203.728 420.258 203.792 420.13C203.821 420.085 203.836 420.034 203.836 419.981C203.836 419.928 203.821 419.877 203.792 419.833C203.457 419.136 201.069 418.542 199.249 418.258Z" fill="#263238"/>
<path d="M199.39 418.194C199.101 418.202 198.811 418.18 198.526 418.129C198.486 418.123 198.448 418.107 198.417 418.082C198.385 418.057 198.36 418.024 198.345 417.987C198.326 417.949 198.316 417.907 198.316 417.864C198.316 417.822 198.326 417.78 198.345 417.742C198.422 417.651 200.165 415.548 201.817 415.406C202.285 415.369 202.748 415.517 203.108 415.819C203.611 416.257 203.585 416.645 203.456 416.89C203.134 417.768 200.901 418.194 199.39 418.194ZM199.055 417.716C200.501 417.793 202.811 417.316 203.108 416.683C203.108 416.683 203.211 416.477 202.875 416.193C202.742 416.077 202.586 415.989 202.417 415.936C202.248 415.883 202.07 415.865 201.894 415.883C200.782 416.194 199.791 416.838 199.055 417.729V417.716Z" fill="#263238"/>
<path d="M181.372 412.927L170.427 409.83C170.238 409.773 170.035 409.787 169.856 409.87C169.678 409.954 169.536 410.1 169.459 410.281L165.767 418.581C165.681 418.793 165.64 419.022 165.648 419.251C165.656 419.481 165.712 419.706 165.814 419.912C165.915 420.118 166.058 420.3 166.235 420.447C166.412 420.593 166.617 420.701 166.839 420.762C170.711 421.769 172.569 422.053 177.384 423.434C180.353 424.26 184.586 425.796 188.678 426.958C192.769 428.119 194.137 424.131 192.55 423.279C185.373 419.484 184.806 416.825 182.844 413.986C182.492 413.472 181.972 413.097 181.372 412.927Z" fill="#0086CF"/>
<path d="M198.694 416.567L189.349 410.114C189.19 409.998 188.995 409.945 188.8 409.964C188.605 409.983 188.424 410.073 188.29 410.217L182.095 416.877C181.944 417.049 181.831 417.251 181.765 417.47C181.698 417.689 181.679 417.92 181.708 418.147C181.737 418.374 181.814 418.593 181.935 418.788C182.055 418.982 182.215 419.15 182.405 419.278C185.696 421.485 187.4 422.375 191.517 425.228C194.099 426.983 199.094 430.881 202.579 433.308C206.064 435.734 208.658 432.404 207.419 431.088C201.869 425.163 200.656 421.446 199.739 418.077C199.58 417.466 199.21 416.931 198.694 416.567Z" fill="#0086CF"/>
<path d="M191.117 404.564L174.273 396.187L176.016 391.618L194.008 400.446L191.117 404.564Z" fill="#0086CF"/>
<path d="M169.214 246.683L167.794 250.4C167.652 250.684 167.987 250.981 168.465 250.981H211.162C211.536 250.981 211.846 250.8 211.872 250.568L212.233 246.876C212.233 246.631 211.937 246.412 211.536 246.412H169.885C169.759 246.4 169.633 246.418 169.516 246.465C169.399 246.513 169.296 246.587 169.214 246.683Z" fill="#0086CF"/>
<path opacity="0.4" d="M169.214 246.683L167.794 250.4C167.652 250.684 167.987 250.981 168.465 250.981H211.162C211.536 250.981 211.846 250.8 211.872 250.568L212.233 246.876C212.233 246.631 211.937 246.412 211.536 246.412H169.885C169.759 246.4 169.633 246.418 169.516 246.465C169.399 246.513 169.296 246.587 169.214 246.683Z" fill="white"/>
<path d="M175.938 251.342H174.815C174.596 251.342 174.428 251.226 174.441 251.084L174.97 246.295C174.97 246.166 175.177 246.05 175.396 246.05H176.519C176.738 246.05 176.906 246.166 176.893 246.295L176.364 251.084C176.351 251.226 176.158 251.342 175.938 251.342Z" fill="#0086CF"/>
<path d="M202.269 251.342H201.159C200.94 251.342 200.772 251.226 200.785 251.084L201.301 246.295C201.301 246.166 201.52 246.05 201.74 246.05H202.85C203.069 246.05 203.25 246.166 203.224 246.295L202.708 251.084C202.643 251.226 202.501 251.342 202.269 251.342Z" fill="#0086CF"/>
<g style="mix-blend-mode:multiply">
<path d="M174.957 469.926C194.054 469.926 209.536 468.805 209.536 467.422C209.536 466.039 194.054 464.918 174.957 464.918C155.86 464.918 140.379 466.039 140.379 467.422C140.379 468.805 155.86 469.926 174.957 469.926Z" fill="#F5F5F5"/>
</g>
<path d="M196.022 463.885C189.904 462.104 183.115 459.819 179.01 457.431C178.894 457.354 178.765 457.315 178.649 457.251V429.552H191.027C191.966 429.496 192.849 429.084 193.495 428.399C194.14 427.714 194.5 426.808 194.5 425.867C194.5 424.926 194.14 424.02 193.495 423.335C192.849 422.65 191.966 422.238 191.027 422.182H178.713V295.924H171.279V422.182H158.978C158.476 422.152 157.973 422.225 157.5 422.397C157.027 422.569 156.594 422.836 156.228 423.181C155.862 423.526 155.57 423.942 155.371 424.404C155.171 424.866 155.068 425.364 155.068 425.867C155.068 426.37 155.171 426.868 155.371 427.33C155.57 427.792 155.862 428.208 156.228 428.553C156.594 428.898 157.027 429.165 157.5 429.337C157.973 429.508 158.476 429.582 158.978 429.552H171.279V457.212C171.163 457.212 171.046 457.315 170.93 457.393C166.761 459.819 160.024 462.104 153.906 463.846C153.492 463.971 153.137 464.24 152.905 464.604C152.673 464.968 152.579 465.403 152.64 465.831C152.7 466.258 152.912 466.65 153.237 466.934C153.561 467.219 153.977 467.378 154.409 467.383H195.518C195.931 467.355 196.321 467.186 196.625 466.905C196.928 466.624 197.125 466.247 197.184 465.838C197.243 465.428 197.16 465.011 196.948 464.656C196.737 464.3 196.41 464.028 196.022 463.885Z" fill="#E0E0E0"/>
<path d="M197.919 283.068H152.021C148.329 283.068 145.335 286.061 145.335 289.754V303.397C145.335 307.089 148.329 310.083 152.021 310.083H197.919C201.612 310.083 204.605 307.089 204.605 303.397V289.754C204.605 286.061 201.612 283.068 197.919 283.068Z" fill="#0086CF"/>
<path d="M151.595 310.096V312.445C151.595 314.381 153.699 315.956 156.281 315.956H193.711C196.293 315.956 198.397 314.381 198.397 312.445V310.096H151.595Z" fill="#0086CF"/>
<path opacity="0.3" d="M151.595 310.096V312.445C151.595 314.381 153.699 315.956 156.281 315.956H193.711C196.293 315.956 198.397 314.381 198.397 312.445V310.096H151.595Z" fill="white"/>
</svg>
